{"glyphs":{"0":{"ha":696,"x_min":36,"x_max":660,"o":"m 332 -17 q 115 76 193 -17 q 36 329 36 168 q 60 484 36 414 q 127 604 83 554 q 232 681 171 654 q 367 708 293 708 q 489 685 435 708 q 581 617 543 661 q 640 508 619 572 q 660 365 660 444 q 636 209 660 279 q 569 89 613 139 q 466 11 526 39 q 332 -17 406 -17 m 354 165 q 497 210 446 165 q 547 333 547 254 q 492 469 547 419 q 339 519 436 519 q 199 474 249 519 q 149 349 149 429 q 203 215 149 265 q 354 165 258 165 z "},"1":{"ha":507,"x_min":29,"x_max":474,"o":"m 356 558 q 345 377 349 475 q 342 183 342 279 q 355 111 342 132 q 403 90 368 90 q 427 90 415 90 q 449 92 439 90 q 471 94 460 93 l 474 88 l 458 -6 q 385 -3 421 -4 q 319 -1 353 -1 q 260 0 286 0 q 189 -3 226 0 q 119 -8 151 -6 q 65 -13 86 -11 q 43 -15 43 -15 l 54 72 q 113 83 89 75 q 151 105 138 90 q 172 142 165 119 q 178 200 178 165 l 178 499 q 161 563 178 549 q 107 578 144 578 q 85 576 96 578 q 63 574 74 575 q 38 571 50 572 l 29 581 l 38 660 q 67 663 49 661 q 108 668 86 665 q 156 674 131 671 q 206 681 181 676 q 349 701 307 694 q 394 708 392 708 l 408 667 q 373 624 385 647 q 356 558 361 601 z "},"2":{"ha":672,"x_min":21,"x_max":651,"o":"m 21 33 l 125 149 q 220 263 181 213 q 284 353 260 314 q 319 422 308 392 q 331 476 331 451 q 244 561 331 561 q 163 533 204 561 q 89 454 121 504 l 69 454 l 46 557 q 170 668 99 628 q 317 708 242 708 q 474 659 414 708 q 533 529 533 610 q 522 462 533 496 q 480 384 510 428 q 400 281 450 340 q 274 140 350 222 l 279 129 l 413 129 q 468 135 446 129 q 506 155 490 140 q 530 194 521 169 q 546 256 539 218 l 651 265 q 636 176 643 222 q 622 92 629 138 q 613 4 615 46 l 593 -12 q 406 -7 494 -10 q 328 -5 368 -6 q 250 -3 288 -4 q 179 -1 213 -1 q 121 0 146 0 l 32 -12 l 21 33 z "},"3":{"ha":599,"x_min":15,"x_max":543,"o":"m 35 22 q 153 4 88 4 q 233 14 196 4 q 298 42 271 24 q 340 83 325 60 q 356 136 356 107 q 306 221 356 194 q 150 247 257 247 l 138 261 l 128 347 l 218 367 q 294 424 265 388 q 322 500 322 460 q 298 554 322 533 q 238 575 274 575 q 161 557 201 575 q 85 507 121 539 q 76 506 81 507 q 68 506 72 506 l 39 604 q 82 633 53 615 q 147 668 111 651 q 222 697 183 685 q 297 708 261 708 q 447 665 390 708 q 503 546 503 621 q 462 437 503 488 q 350 357 421 386 l 350 346 q 543 163 543 294 q 506 54 543 108 q 410 -43 469 0 q 277 -112 351 -86 q 128 -139 203 -139 q 45 -107 69 -139 q 15 3 21 -75 l 35 22 z "},"4":{"ha":650,"x_min":3,"x_max":625,"o":"m 7 194 l 375 706 q 380 707 378 706 q 383 708 382 708 l 500 693 l 500 218 l 614 218 l 625 203 l 613 88 q 582 89 599 88 q 547 90 567 89 q 501 92 526 90 q 503 17 501 53 q 506 -47 504 -19 q 510 -110 507 -81 l 499 -122 l 339 -139 l 328 -125 q 331 -53 329 -90 q 333 19 332 -21 q 336 96 335 58 q 165 100 253 99 q 3 101 78 101 l 7 194 m 149 218 l 336 218 l 336 465 l 322 465 l 149 218 z "},"5":{"ha":593,"x_min":1,"x_max":544,"o":"m 532 181 q 494 60 532 118 q 397 -42 457 3 q 261 -112 336 -86 q 113 -139 186 -139 q 65 -132 85 -139 q 33 -108 46 -125 q 12 -65 19 -92 q 1 3 4 -37 l 19 22 q 78 8 47 13 q 139 4 108 4 q 222 14 183 4 q 288 41 260 24 q 333 83 317 58 q 349 138 349 108 q 335 185 349 164 q 291 223 322 207 q 210 251 260 239 q 86 275 160 264 l 74 290 q 86 426 81 358 q 94 546 92 493 q 101 665 99 608 l 113 676 l 381 686 q 439 699 421 689 q 468 742 457 710 l 544 747 l 508 543 l 490 525 q 408 531 453 528 q 321 535 371 533 q 214 536 271 536 l 203 413 q 343 377 282 397 q 446 329 404 357 q 510 265 488 301 q 532 181 532 229 z "},"6":{"ha":644,"x_min":39,"x_max":610,"o":"m 563 747 q 438 681 497 721 q 334 592 386 646 q 250 458 282 538 l 257 450 q 276 459 261 451 q 308 475 290 467 q 344 491 326 483 q 375 501 363 499 q 474 482 431 501 q 549 431 518 463 q 594 356 579 399 q 610 265 610 313 q 588 152 610 204 q 528 63 567 100 q 433 4 489 25 q 308 -17 376 -17 q 197 6 246 -17 q 112 67 147 28 q 58 162 76 107 q 39 283 39 217 q 60 427 39 363 q 114 545 81 492 q 190 640 147 599 q 279 714 233 682 q 521 831 386 789 l 535 824 l 563 747 m 322 379 q 256 365 286 379 q 211 340 226 351 q 209 311 210 325 q 208 282 208 297 q 241 145 208 194 q 333 96 274 96 q 415 130 386 96 q 444 231 444 164 q 412 337 444 294 q 322 379 379 379 z "},"7":{"ha":593,"x_min":35,"x_max":594,"o":"m 256 -139 l 129 -101 l 114 -67 l 425 547 l 239 536 q 185 527 206 533 q 151 508 164 521 q 131 472 139 494 q 118 414 124 449 l 35 406 q 46 500 40 451 q 54 592 50 542 q 61 690 58 642 l 69 697 q 122 694 94 696 q 176 692 146 693 q 239 692 207 692 l 540 692 l 594 625 q 504 435 543 519 q 433 278 465 350 q 374 143 401 206 q 322 18 347 81 l 279 -139 l 256 -139 z "},"8":{"ha":665,"x_min":53,"x_max":610,"o":"m 53 181 q 68 258 53 224 q 107 317 83 292 q 158 358 131 342 q 208 386 185 375 q 156 424 181 403 q 112 469 131 444 q 82 526 93 494 q 71 596 71 557 q 92 685 71 643 q 150 760 113 728 q 238 812 188 793 q 350 831 289 831 q 441 817 397 831 q 518 778 485 803 q 571 717 551 753 q 590 636 590 681 q 578 569 590 599 q 549 516 567 539 q 508 476 531 493 q 465 449 486 460 q 520 413 494 432 q 566 368 546 393 q 598 312 586 343 q 610 242 610 281 q 587 140 610 188 q 524 58 564 93 q 430 3 485 24 q 311 -17 375 -17 q 210 -3 257 -17 q 128 37 164 11 q 73 99 93 63 q 53 181 53 135 m 335 86 q 417 116 383 86 q 450 194 450 146 q 436 242 450 221 q 399 279 422 263 q 346 311 376 296 q 283 343 315 326 q 257 325 271 336 q 231 299 243 314 q 212 263 219 283 q 204 217 204 243 q 214 167 204 190 q 241 125 224 143 q 282 97 258 107 q 335 86 306 86 m 233 629 q 245 585 233 604 q 278 549 257 565 q 326 519 299 533 q 382 490 353 504 q 419 533 401 506 q 436 604 436 560 q 406 691 436 661 q 331 721 376 721 q 260 694 286 721 q 233 629 233 667 z "},"9":{"ha":644,"x_min":33,"x_max":606,"o":"m 82 -56 q 206 10 147 -31 q 308 99 256 44 q 393 232 361 153 l 388 242 q 369 233 383 240 q 336 216 354 225 q 299 199 318 207 q 268 190 281 192 q 168 209 211 190 q 94 260 125 228 q 49 335 64 293 q 33 426 33 378 q 55 540 33 488 q 116 629 76 592 q 211 688 156 667 q 335 708 267 708 q 447 686 397 708 q 533 624 497 664 q 587 530 568 585 q 606 408 606 475 q 585 264 606 329 q 530 145 564 199 q 453 50 496 92 q 364 -24 410 8 q 124 -140 257 -99 l 110 -132 l 82 -56 m 321 313 q 387 326 357 313 q 432 350 417 340 q 436 410 436 379 q 403 547 436 497 q 311 596 369 596 q 229 562 258 596 q 200 461 200 528 q 232 353 200 394 q 321 313 264 313 z "},"Æ":{"ha":1210,"x_min":-6,"x_max":1178,"o":"m 443 83 q 501 91 478 86 q 536 103 524 96 q 553 122 549 110 q 558 150 558 133 q 557 183 558 167 q 553 218 556 199 l 536 346 l 415 331 l 299 308 l 236 174 q 221 122 221 139 q 237 96 221 103 q 297 89 253 89 l 343 82 l 335 -8 q 309 -7 335 -8 q 248 -4 283 -6 q 173 -1 213 -3 q 104 0 133 0 q 69 -1 88 0 q 36 -3 51 -1 q 1 -4 18 -4 l -6 79 q 31 109 7 82 q 78 181 54 136 l 367 771 q 356 795 364 789 q 332 801 347 801 q 318 801 325 801 q 304 800 311 800 q 289 799 297 799 l 281 811 l 292 896 q 392 893 338 894 q 498 892 438 892 q 628 892 558 892 q 904 897 788 892 q 1072 908 1021 901 l 1083 893 q 1069 815 1075 857 q 1059 734 1064 779 q 1051 640 1054 689 l 925 632 q 926 653 925 643 q 927 671 926 661 q 928 688 928 681 q 922 733 928 717 q 897 760 915 750 q 842 772 878 769 q 749 775 807 775 q 689 768 701 775 q 675 738 676 761 l 711 485 l 844 501 l 978 528 l 993 514 l 975 397 l 849 388 l 726 374 l 754 203 q 785 131 763 153 q 851 108 807 108 q 946 114 910 108 q 1003 136 982 119 q 1033 184 1024 153 q 1050 268 1043 215 l 1168 278 l 1178 264 q 1164 185 1171 226 q 1151 102 1157 149 q 1139 6 1144 56 l 1126 -10 q 1088 -8 1126 -10 q 988 -5 1049 -7 q 856 -1 928 -3 q 718 0 785 0 l 665 0 q 583 -1 622 0 q 513 -6 544 -3 q 444 -11 476 -8 l 438 0 l 443 83 m 440 446 l 526 457 l 494 708 l 474 708 l 350 440 l 440 446 z "},"Á":{"ha":868,"x_min":-17,"x_max":881,"o":"m 767 183 q 805 113 782 135 q 875 88 828 92 l 881 78 l 871 -4 q 808 -3 839 -4 q 753 -1 782 -1 q 700 0 724 0 q 613 -1 656 0 q 538 -6 569 -3 q 465 -11 499 -8 l 457 0 l 464 83 q 519 90 497 86 q 551 99 540 93 q 567 113 563 104 q 571 135 571 122 q 564 181 571 149 l 536 286 q 471 288 508 288 q 410 288 433 288 q 340 284 376 288 q 278 278 303 281 l 243 174 q 235 131 235 144 q 249 98 235 107 q 299 89 263 89 l 358 89 l 364 79 l 354 -8 q 286 -4 321 -7 q 220 -1 256 -3 q 151 0 185 0 q 93 -1 124 0 q 39 -3 63 -1 q -17 -4 10 -4 l -6 89 q 47 115 26 94 q 85 181 68 135 l 332 885 l 553 907 l 568 900 q 640 629 604 761 q 672 513 656 572 q 704 394 688 453 q 737 281 721 335 q 767 183 753 226 m 311 397 l 408 397 q 460 399 432 397 q 511 403 489 400 l 431 708 l 411 708 l 311 397 m 674 1058 q 574 1032 626 1047 q 472 1003 529 1019 q 356 968 415 988 l 338 981 l 319 1046 q 431 1096 376 1069 q 531 1143 486 1122 q 629 1190 582 1168 l 646 1183 l 682 1076 l 674 1058 z "},"Ă":{"ha":868,"x_min":-17,"x_max":881,"o":"m 767 183 q 805 113 782 135 q 875 88 828 92 l 881 78 l 871 -4 q 808 -3 839 -4 q 753 -1 782 -1 q 700 0 724 0 q 613 -1 656 0 q 538 -6 569 -3 q 465 -11 499 -8 l 457 0 l 464 83 q 519 90 497 86 q 551 99 540 93 q 567 113 563 104 q 571 135 571 122 q 564 181 571 149 l 536 286 q 471 288 508 288 q 410 288 433 288 q 340 284 376 288 q 278 278 303 281 l 243 174 q 235 131 235 144 q 249 98 235 107 q 299 89 263 89 l 358 89 l 364 79 l 354 -8 q 286 -4 321 -7 q 220 -1 256 -3 q 151 0 185 0 q 93 -1 124 0 q 39 -3 63 -1 q -17 -4 10 -4 l -6 89 q 47 115 26 94 q 85 181 68 135 l 332 885 l 553 907 l 568 900 q 640 629 604 761 q 672 513 656 572 q 704 394 688 453 q 737 281 721 335 q 767 183 753 226 m 311 397 l 408 397 q 460 399 432 397 q 511 403 489 400 l 431 708 l 411 708 l 311 397 m 440 1094 q 526 1115 488 1094 q 583 1178 564 1136 l 607 1172 l 646 1124 q 619 1065 636 1093 q 578 1013 603 1036 q 519 976 553 990 q 440 963 485 963 q 362 976 396 963 q 303 1013 328 990 q 261 1065 278 1036 q 235 1124 244 1093 l 274 1172 l 297 1178 q 355 1115 317 1136 q 440 1094 393 1094 z "},"Â":{"ha":868,"x_min":-17,"x_max":881,"o":"m 767 183 q 805 113 782 135 q 875 88 828 92 l 881 78 l 871 -4 q 808 -3 839 -4 q 753 -1 782 -1 q 700 0 724 0 q 613 -1 656 0 q 538 -6 569 -3 q 465 -11 499 -8 l 457 0 l 464 83 q 519 90 497 86 q 551 99 540 93 q 567 113 563 104 q 571 135 571 122 q 564 181 571 149 l 536 286 q 471 288 508 288 q 410 288 433 288 q 340 284 376 288 q 278 278 303 281 l 243 174 q 235 131 235 144 q 249 98 235 107 q 299 89 263 89 l 358 89 l 364 79 l 354 -8 q 286 -4 321 -7 q 220 -1 256 -3 q 151 0 185 0 q 93 -1 124 0 q 39 -3 63 -1 q -17 -4 10 -4 l -6 89 q 47 115 26 94 q 85 181 68 135 l 332 885 l 553 907 l 568 900 q 640 629 604 761 q 672 513 656 572 q 704 394 688 453 q 737 281 721 335 q 767 183 753 226 m 311 397 l 408 397 q 460 399 432 397 q 511 403 489 400 l 431 708 l 411 708 l 311 397 m 210 1044 q 288 1103 249 1072 q 358 1160 326 1135 q 428 1217 394 1189 l 456 1217 q 475 1202 456 1218 q 526 1161 494 1186 q 596 1105 557 1136 q 674 1044 635 1074 l 640 988 l 618 982 q 520 1028 569 1006 q 442 1063 471 1050 q 363 1028 411 1050 q 267 982 315 1006 l 244 988 l 210 1044 z "},"Ä":{"ha":868,"x_min":-17,"x_max":881,"o":"m 767 183 q 805 113 782 135 q 875 88 828 92 l 881 78 l 871 -4 q 808 -3 839 -4 q 753 -1 782 -1 q 700 0 724 0 q 613 -1 656 0 q 538 -6 569 -3 q 465 -11 499 -8 l 457 0 l 464 83 q 519 90 497 86 q 551 99 540 93 q 567 113 563 104 q 571 135 571 122 q 564 181 571 149 l 536 286 q 471 288 508 288 q 410 288 433 288 q 340 284 376 288 q 278 278 303 281 l 243 174 q 235 131 235 144 q 249 98 235 107 q 299 89 263 89 l 358 89 l 364 79 l 354 -8 q 286 -4 321 -7 q 220 -1 256 -3 q 151 0 185 0 q 93 -1 124 0 q 39 -3 63 -1 q -17 -4 10 -4 l -6 89 q 47 115 26 94 q 85 181 68 135 l 332 885 l 553 907 l 568 900 q 640 629 604 761 q 672 513 656 572 q 704 394 688 453 q 737 281 721 335 q 767 183 753 226 m 311 397 l 408 397 q 460 399 432 397 q 511 403 489 400 l 431 708 l 411 708 l 311 397 m 560 981 q 498 1004 519 981 q 476 1065 476 1028 q 502 1132 476 1106 q 571 1158 528 1158 q 632 1135 611 1158 q 653 1075 653 1111 q 627 1007 653 1033 q 560 981 601 981 m 311 981 q 250 1004 271 981 q 229 1065 229 1028 q 255 1132 229 1106 q 322 1158 281 1158 q 384 1135 363 1158 q 406 1075 406 1111 q 380 1007 406 1033 q 311 981 354 981 z "},"À":{"ha":868,"x_min":-17,"x_max":881,"o":"m 767 183 q 805 113 782 135 q 875 88 828 92 l 881 78 l 871 -4 q 808 -3 839 -4 q 753 -1 782 -1 q 700 0 724 0 q 613 -1 656 0 q 538 -6 569 -3 q 465 -11 499 -8 l 457 0 l 464 83 q 519 90 497 86 q 551 99 540 93 q 567 113 563 104 q 571 135 571 122 q 564 181 571 149 l 536 286 q 471 288 508 288 q 410 288 433 288 q 340 284 376 288 q 278 278 303 281 l 243 174 q 235 131 235 144 q 249 98 235 107 q 299 89 263 89 l 358 89 l 364 79 l 354 -8 q 286 -4 321 -7 q 220 -1 256 -3 q 151 0 185 0 q 93 -1 124 0 q 39 -3 63 -1 q -17 -4 10 -4 l -6 89 q 47 115 26 94 q 85 181 68 135 l 332 885 l 553 907 l 568 900 q 640 629 604 761 q 672 513 656 572 q 704 394 688 453 q 737 281 721 335 q 767 183 753 226 m 311 397 l 408 397 q 460 399 432 397 q 511 403 489 400 l 431 708 l 411 708 l 311 397 m 228 1076 l 264 1183 l 281 1190 q 379 1143 328 1168 q 478 1096 424 1122 q 590 1046 533 1069 l 572 981 l 553 968 q 436 1003 493 988 q 335 1032 379 1019 q 235 1058 282 1047 l 228 1076 z "},"Ā":{"ha":868,"x_min":-17,"x_max":881,"o":"m 767 183 q 805 113 782 135 q 875 88 828 92 l 881 78 l 871 -4 q 808 -3 839 -4 q 753 -1 782 -1 q 700 0 724 0 q 613 -1 656 0 q 538 -6 569 -3 q 465 -11 499 -8 l 457 0 l 464 83 q 519 90 497 86 q 551 99 540 93 q 567 113 563 104 q 571 135 571 122 q 564 181 571 149 l 536 286 q 471 288 508 288 q 410 288 433 288 q 340 284 376 288 q 278 278 303 281 l 243 174 q 235 131 235 144 q 249 98 235 107 q 299 89 263 89 l 358 89 l 364 79 l 354 -8 q 286 -4 321 -7 q 220 -1 256 -3 q 151 0 185 0 q 93 -1 124 0 q 39 -3 63 -1 q -17 -4 10 -4 l -6 89 q 47 115 26 94 q 85 181 68 135 l 332 885 l 553 907 l 568 900 q 640 629 604 761 q 672 513 656 572 q 704 394 688 453 q 737 281 721 335 q 767 183 753 226 m 311 397 l 408 397 q 460 399 432 397 q 511 403 489 400 l 431 708 l 411 708 l 311 397 m 654 1092 l 638 985 l 442 983 q 376 983 410 983 q 314 982 342 982 l 249 982 l 233 999 l 253 1104 q 329 1103 292 1103 l 467 1103 q 523 1103 493 1103 q 581 1107 553 1104 q 643 1111 611 1108 l 654 1092 z "},"Ą":{"ha":868,"x_min":-17,"x_max":881,"o":"m 879 -243 q 835 -281 858 -264 q 790 -311 815 -296 q 738 -335 764 -326 q 617 -301 663 -335 q 572 -208 572 -268 q 604 -112 572 -161 q 699 0 636 -64 q 612 -1 654 0 q 538 -6 569 -3 q 465 -11 500 -8 l 457 0 l 464 83 q 519 90 497 86 q 551 99 540 93 q 567 113 563 104 q 571 135 571 122 q 564 181 571 149 l 536 286 q 471 288 508 288 q 410 288 433 288 q 340 284 376 288 q 278 278 303 281 l 243 174 q 235 131 235 144 q 249 98 235 107 q 299 89 263 89 l 358 89 l 364 79 l 354 -8 q 286 -4 321 -7 q 220 -1 256 -3 q 151 0 185 0 q 93 -1 124 0 q 39 -3 63 -1 q -17 -4 10 -4 l -6 89 q 47 115 26 94 q 85 181 68 135 l 332 885 l 553 907 l 568 900 q 640 629 604 761 q 672 513 656 572 q 704 394 688 453 q 737 281 721 335 q 767 183 753 226 q 805 113 782 135 q 875 88 828 92 l 881 78 l 871 -4 q 843 -3 858 -4 q 814 -1 831 -1 q 781 0 797 -1 q 706 -100 728 -64 q 685 -169 685 -136 q 703 -217 685 -199 q 754 -236 722 -236 q 790 -231 772 -236 q 822 -219 807 -226 q 854 -203 839 -212 l 879 -243 m 311 397 l 408 397 q 460 399 432 397 q 511 403 489 400 l 431 708 l 411 708 l 311 397 z "},"˛":{"ha":553,"x_min":118,"x_max":425,"o":"m 425 -243 q 381 -281 404 -264 q 335 -311 361 -296 q 283 -335 310 -326 q 163 -301 208 -335 q 118 -208 118 -268 q 166 -90 118 -151 q 303 58 214 -29 l 378 58 q 308 -23 336 11 q 263 -83 281 -57 q 238 -128 246 -108 q 231 -169 231 -149 q 249 -217 231 -199 q 300 -236 268 -236 q 335 -231 318 -236 q 368 -219 353 -226 q 400 -203 385 -212 l 425 -243 z "},"Å":{"ha":868,"x_min":-17,"x_max":881,"o":"m 767 183 q 805 113 782 135 q 875 88 828 92 l 881 78 l 871 -4 q 808 -3 839 -4 q 753 -1 782 -1 q 700 0 724 0 q 613 -1 656 0 q 538 -6 569 -3 q 465 -11 499 -8 l 457 0 l 464 83 q 519 90 497 86 q 551 99 540 93 q 567 113 563 104 q 571 135 571 122 q 564 181 571 149 l 536 286 q 471 288 508 288 q 410 288 433 288 q 340 284 376 288 q 278 278 303 281 l 243 174 q 235 131 235 144 q 249 98 235 107 q 299 89 263 89 l 358 89 l 364 79 l 354 -8 q 286 -4 321 -7 q 220 -1 256 -3 q 151 0 185 0 q 93 -1 124 0 q 39 -3 63 -1 q -17 -4 10 -4 l -6 89 q 47 115 26 94 q 85 181 68 135 l 332 885 l 553 907 l 568 900 q 640 629 604 761 q 672 513 656 572 q 704 394 688 453 q 737 281 721 335 q 767 183 753 226 m 311 397 l 408 397 q 460 399 432 397 q 511 403 489 400 l 431 708 l 411 708 l 311 397 m 444 1015 q 463 1017 453 1015 q 481 1024 472 1019 q 494 1039 489 1029 q 500 1065 500 1049 q 484 1108 500 1092 q 436 1124 468 1124 q 395 1110 408 1124 q 382 1074 382 1097 q 403 1028 382 1042 q 444 1015 425 1015 m 435 942 q 344 976 375 942 q 313 1068 313 1011 q 349 1163 313 1125 q 446 1200 385 1200 q 503 1190 479 1200 q 541 1163 526 1179 q 563 1124 556 1146 q 569 1079 569 1101 q 560 1028 569 1053 q 534 984 551 1003 q 492 953 517 965 q 435 942 467 942 z "},"Ã":{"ha":868,"x_min":-17,"x_max":881,"o":"m 767 183 q 805 113 782 135 q 875 88 828 92 l 881 78 l 871 -4 q 808 -3 839 -4 q 753 -1 782 -1 q 700 0 724 0 q 613 -1 656 0 q 538 -6 569 -3 q 465 -11 499 -8 l 457 0 l 464 83 q 519 90 497 86 q 551 99 540 93 q 567 113 563 104 q 571 135 571 122 q 564 181 571 149 l 536 286 q 471 288 508 288 q 410 288 433 288 q 340 284 376 288 q 278 278 303 281 l 243 174 q 235 131 235 144 q 249 98 235 107 q 299 89 263 89 l 358 89 l 364 79 l 354 -8 q 286 -4 321 -7 q 220 -1 256 -3 q 151 0 185 0 q 93 -1 124 0 q 39 -3 63 -1 q -17 -4 10 -4 l -6 89 q 47 115 26 94 q 85 181 68 135 l 332 885 l 553 907 l 568 900 q 640 629 604 761 q 672 513 656 572 q 704 394 688 453 q 737 281 721 335 q 767 183 753 226 m 311 397 l 408 397 q 460 399 432 397 q 511 403 489 400 l 431 708 l 411 708 l 311 397 m 247 954 l 193 1006 l 193 1021 l 301 1154 l 325 1160 q 371 1152 342 1160 q 431 1136 400 1144 q 489 1120 461 1128 q 532 1113 517 1113 q 560 1124 544 1113 q 589 1149 575 1135 q 622 1185 604 1164 l 638 1185 l 693 1133 l 693 1119 l 583 985 l 561 979 q 514 987 543 979 q 454 1003 485 994 q 396 1019 424 1011 q 353 1026 368 1026 q 324 1015 340 1026 q 294 990 308 1004 q 263 954 279 975 l 247 954 z "},"B":{"ha":874,"x_min":50,"x_max":822,"o":"m 254 0 q 189 -2 224 0 q 122 -7 154 -4 q 50 -14 86 -11 l 61 81 q 142 113 121 90 q 163 190 163 136 l 164 732 q 154 786 164 771 q 118 801 144 801 q 103 801 111 801 q 88 800 94 800 q 71 799 79 799 l 63 810 l 75 894 q 153 893 117 893 q 217 892 185 892 q 268 892 249 892 q 322 892 286 892 q 393 894 357 893 q 481 899 435 896 q 700 844 625 899 q 775 683 775 789 q 734 558 775 610 q 626 471 693 506 q 766 399 710 449 q 822 264 822 349 q 797 150 822 201 q 724 62 771 99 q 609 6 676 25 q 460 -14 542 -14 q 413 -11 440 -14 q 358 -6 386 -8 q 302 -2 329 -4 q 254 0 275 0 m 349 389 l 343 188 q 373 124 343 143 q 474 106 403 106 q 579 142 542 106 q 617 244 617 178 q 476 390 617 358 l 349 389 m 351 513 q 407 506 382 508 q 451 501 429 503 q 483 500 472 500 q 531 531 510 511 q 564 576 549 547 q 579 647 579 604 q 533 751 579 718 q 388 783 486 783 q 369 778 374 783 q 363 758 364 774 q 358 696 360 729 q 356 629 357 663 q 353 565 354 596 q 351 513 351 535 z "},"C":{"ha":857,"x_min":39,"x_max":799,"o":"m 451 -17 q 279 14 356 -17 q 149 101 203 44 q 67 238 96 157 q 39 422 39 319 q 73 623 39 533 q 170 776 107 713 q 324 874 233 840 q 525 908 414 908 q 616 903 569 908 q 701 890 663 897 q 790 874 747 883 l 799 856 q 783 779 790 821 q 771 696 776 743 q 763 593 765 649 l 625 583 q 626 607 625 594 q 627 631 626 618 q 628 657 628 643 q 592 746 628 718 q 476 774 556 774 q 312 698 368 774 q 256 469 256 622 q 317 206 256 299 q 486 114 378 114 q 603 159 561 114 q 661 306 644 204 l 799 315 q 786 229 792 274 q 776 145 781 192 q 771 56 772 99 l 757 39 q 668 11 715 24 q 572 -8 626 0 q 451 -17 517 -17 z "},"Ć":{"ha":857,"x_min":39,"x_max":799,"o":"m 451 -17 q 279 14 356 -17 q 149 101 203 44 q 67 238 96 157 q 39 422 39 319 q 73 623 39 533 q 170 776 107 713 q 324 874 233 840 q 525 908 414 908 q 616 903 569 908 q 701 890 663 897 q 790 874 747 883 l 799 856 q 783 779 790 821 q 771 696 776 743 q 763 593 765 649 l 625 583 q 626 607 625 594 q 627 631 626 618 q 628 657 628 643 q 592 746 628 718 q 476 774 556 774 q 312 698 368 774 q 256 469 256 622 q 317 206 256 299 q 486 114 378 114 q 603 159 561 114 q 661 306 644 204 l 799 315 q 786 229 792 274 q 776 145 781 192 q 771 56 772 99 l 757 39 q 668 11 715 24 q 572 -8 626 0 q 451 -17 517 -17 m 717 1058 q 617 1032 669 1047 q 515 1003 572 1019 q 399 968 458 988 l 381 981 l 363 1046 q 474 1096 419 1069 q 574 1143 529 1122 q 672 1190 625 1168 l 689 1183 l 725 1076 l 717 1058 z "},"Č":{"ha":857,"x_min":39,"x_max":799,"o":"m 451 -17 q 279 14 356 -17 q 149 101 203 44 q 67 238 96 157 q 39 422 39 319 q 73 623 39 533 q 170 776 107 713 q 324 874 233 840 q 525 908 414 908 q 616 903 569 908 q 701 890 663 897 q 790 874 747 883 l 799 856 q 783 779 790 821 q 771 696 776 743 q 763 593 765 649 l 625 583 q 626 607 625 594 q 627 631 626 618 q 628 657 628 643 q 592 746 628 718 q 476 774 556 774 q 312 698 368 774 q 256 469 256 622 q 317 206 256 299 q 486 114 378 114 q 603 159 561 114 q 661 306 644 204 l 799 315 q 786 229 792 274 q 776 145 781 192 q 771 56 772 99 l 757 39 q 668 11 715 24 q 572 -8 626 0 q 451 -17 517 -17 m 714 1139 q 635 1081 674 1111 q 565 1025 597 1050 q 496 967 529 996 l 468 967 q 397 1025 433 996 q 327 1081 365 1050 q 250 1139 289 1111 l 283 1196 l 306 1201 q 403 1156 354 1178 q 482 1121 453 1133 q 560 1156 513 1133 q 657 1201 608 1178 l 679 1196 l 714 1139 z "},"Ç":{"ha":857,"x_min":39,"x_max":799,"o":"m 418 -15 q 140 110 240 -4 q 39 422 39 225 q 73 623 39 533 q 170 776 107 713 q 324 874 233 840 q 525 908 414 908 q 616 903 569 908 q 701 890 663 897 q 790 874 747 883 l 799 856 q 783 779 790 821 q 771 696 776 743 q 763 593 765 649 l 625 583 q 626 607 625 594 q 627 631 626 618 q 628 657 628 643 q 592 746 628 718 q 476 774 556 774 q 312 698 368 774 q 256 469 256 622 q 317 206 256 299 q 486 114 378 114 q 603 159 561 114 q 661 306 644 204 l 799 315 q 786 229 792 274 q 776 145 781 192 q 771 56 772 99 l 757 39 q 681 14 722 25 q 596 -4 644 4 q 489 -15 547 -12 l 476 -61 q 519 -87 496 -72 q 563 -119 543 -101 q 597 -156 583 -136 q 610 -196 610 -175 q 594 -248 610 -224 q 553 -290 579 -272 q 493 -319 526 -308 q 425 -329 460 -329 q 388 -325 407 -329 q 353 -313 369 -321 q 327 -294 338 -306 q 317 -269 317 -283 q 322 -250 317 -261 q 334 -227 326 -239 q 351 -203 342 -215 q 368 -182 360 -192 l 381 -182 q 401 -240 382 -221 q 453 -260 421 -260 q 492 -249 476 -260 q 508 -218 508 -237 q 497 -193 508 -206 q 469 -168 486 -181 q 431 -143 453 -156 q 389 -119 410 -131 l 418 -15 z "},"¸":{"ha":553,"x_min":124,"x_max":417,"o":"m 240 40 l 313 40 l 283 -61 q 326 -87 303 -72 q 370 -119 350 -101 q 403 -156 390 -136 q 417 -196 417 -175 q 401 -248 417 -224 q 360 -290 386 -272 q 300 -319 333 -308 q 232 -329 267 -329 q 195 -325 214 -329 q 160 -313 176 -321 q 134 -294 144 -306 q 124 -269 124 -283 q 128 -250 124 -261 q 141 -227 133 -239 q 158 -203 149 -215 q 175 -182 167 -192 l 188 -182 q 208 -240 189 -221 q 260 -260 228 -260 q 299 -249 283 -260 q 315 -218 315 -237 q 304 -193 315 -206 q 276 -168 293 -181 q 238 -143 260 -156 q 196 -119 217 -131 l 240 40 z "},"Ċ":{"ha":857,"x_min":39,"x_max":799,"o":"m 451 -17 q 279 14 356 -17 q 149 101 203 44 q 67 238 96 157 q 39 422 39 319 q 73 623 39 533 q 170 776 107 713 q 324 874 233 840 q 525 908 414 908 q 616 903 569 908 q 701 890 663 897 q 790 874 747 883 l 799 856 q 783 779 790 821 q 771 696 776 743 q 763 593 765 649 l 625 583 q 626 607 625 594 q 627 631 626 618 q 628 657 628 643 q 592 746 628 718 q 476 774 556 774 q 312 698 368 774 q 256 469 256 622 q 317 206 256 299 q 486 114 378 114 q 603 159 561 114 q 661 306 644 204 l 799 315 q 786 229 792 274 q 776 145 781 192 q 771 56 772 99 l 757 39 q 668 11 715 24 q 572 -8 626 0 q 451 -17 517 -17 m 478 975 q 405 1003 429 975 q 381 1075 381 1031 q 411 1155 381 1124 q 492 1186 442 1186 q 563 1158 538 1186 q 589 1086 589 1131 q 558 1006 589 1038 q 478 975 528 975 z "},"D":{"ha":963,"x_min":53,"x_max":924,"o":"m 442 -17 q 367 -8 404 -12 q 298 -3 335 -6 q 232 0 261 0 q 174 -2 204 0 q 115 -7 143 -4 q 53 -14 83 -11 l 63 81 q 142 116 122 92 q 163 199 163 140 l 164 725 q 155 785 164 769 q 119 800 146 800 q 105 799 113 800 q 90 799 97 799 q 74 797 82 797 l 65 810 l 76 896 q 144 893 111 894 q 203 892 172 892 q 254 892 233 892 q 315 892 278 892 q 389 894 353 893 q 475 899 431 896 q 664 870 581 899 q 805 788 747 842 q 893 657 863 735 q 924 482 924 579 q 888 281 924 372 q 789 123 853 189 q 636 20 725 57 q 442 -17 547 -17 m 401 778 q 370 771 378 778 q 361 744 363 764 q 348 432 353 568 q 343 203 343 296 q 348 154 343 174 q 366 124 353 135 q 401 108 379 113 q 458 104 424 104 q 643 188 581 104 q 706 439 706 271 q 631 697 706 617 q 401 778 557 778 z "},"Ď":{"ha":963,"x_min":53,"x_max":924,"o":"m 442 -17 q 367 -8 404 -12 q 298 -3 335 -6 q 232 0 261 0 q 174 -2 204 0 q 115 -7 143 -4 q 53 -14 83 -11 l 63 81 q 142 116 122 92 q 163 199 163 140 l 164 725 q 155 785 164 769 q 119 800 146 800 q 105 799 113 800 q 90 799 97 799 q 74 797 82 797 l 65 810 l 76 896 q 144 893 111 894 q 203 892 172 892 q 254 892 233 892 q 315 892 278 892 q 389 894 353 893 q 475 899 431 896 q 664 870 581 899 q 805 788 747 842 q 893 657 863 735 q 924 482 924 579 q 888 281 924 372 q 789 123 853 189 q 636 20 725 57 q 442 -17 547 -17 m 401 778 q 370 771 378 778 q 361 744 363 764 q 348 432 353 568 q 343 203 343 296 q 348 154 343 174 q 366 124 353 135 q 401 108 379 113 q 458 104 424 104 q 643 188 581 104 q 706 439 706 271 q 631 697 706 617 q 401 778 557 778 m 703 1139 q 624 1081 663 1111 q 554 1025 586 1050 q 485 967 518 996 l 457 967 q 386 1025 422 996 q 316 1081 354 1050 q 239 1139 278 1111 l 272 1196 l 294 1201 q 392 1156 343 1178 q 471 1121 442 1133 q 549 1156 501 1133 q 646 1201 597 1178 l 668 1196 l 703 1139 z "},"E":{"ha":829,"x_min":50,"x_max":776,"o":"m 343 193 q 346 149 343 165 q 358 124 349 132 q 385 113 367 115 q 432 110 403 110 q 535 115 496 110 q 598 136 575 119 q 631 184 621 153 q 649 268 642 215 l 767 278 l 776 264 q 763 185 769 226 q 749 102 756 149 q 738 6 743 56 l 725 -10 q 572 -6 649 -8 q 431 -1 506 -3 q 292 0 357 0 q 201 -2 244 0 q 125 -7 158 -4 q 50 -14 86 -11 l 61 81 q 140 114 119 89 q 161 200 161 139 l 163 726 q 153 786 163 771 q 117 801 144 801 q 103 801 110 801 q 90 800 97 800 q 75 799 83 799 l 65 811 l 76 896 q 165 893 119 894 q 249 892 204 892 q 333 892 293 892 q 756 908 628 892 l 767 893 q 753 815 758 857 q 742 734 747 779 q 735 640 738 689 l 607 632 q 608 653 607 643 q 609 671 608 661 q 610 688 610 681 q 604 733 610 717 q 581 760 599 750 q 528 772 563 769 q 435 775 493 775 q 396 774 410 775 q 374 767 382 772 q 364 753 367 763 q 361 729 361 744 l 351 514 q 412 513 374 514 q 481 513 450 513 q 524 514 497 513 q 578 518 551 515 q 642 524 608 521 l 653 511 l 633 392 q 569 393 601 392 q 510 395 542 394 q 453 396 479 396 q 393 393 421 396 q 347 388 365 390 q 344 266 344 311 q 343 193 343 221 z "},"É":{"ha":829,"x_min":50,"x_max":776,"o":"m 343 193 q 346 149 343 165 q 358 124 349 132 q 385 113 367 115 q 432 110 403 110 q 535 115 496 110 q 598 136 575 119 q 631 184 621 153 q 649 268 642 215 l 767 278 l 776 264 q 763 185 769 226 q 749 102 756 149 q 738 6 743 56 l 725 -10 q 572 -6 649 -8 q 431 -1 506 -3 q 292 0 357 0 q 201 -2 244 0 q 125 -7 158 -4 q 50 -14 86 -11 l 61 81 q 140 114 119 89 q 161 200 161 139 l 163 726 q 153 786 163 771 q 117 801 144 801 q 103 801 110 801 q 90 800 97 800 q 75 799 83 799 l 65 811 l 76 896 q 165 893 119 894 q 249 892 204 892 q 333 892 293 892 q 756 908 628 892 l 767 893 q 753 815 758 857 q 742 734 747 779 q 735 640 738 689 l 607 632 q 608 653 607 643 q 609 671 608 661 q 610 688 610 681 q 604 733 610 717 q 581 760 599 750 q 528 772 563 769 q 435 775 493 775 q 396 774 410 775 q 374 767 382 772 q 364 753 367 763 q 361 729 361 744 l 351 514 q 412 513 374 514 q 481 513 450 513 q 524 514 497 513 q 578 518 551 515 q 642 524 608 521 l 653 511 l 633 392 q 569 393 601 392 q 510 395 542 394 q 453 396 479 396 q 393 393 421 396 q 347 388 365 390 q 344 266 344 311 q 343 193 343 221 m 675 1058 q 575 1032 628 1047 q 474 1003 531 1019 q 357 968 417 988 l 339 981 l 321 1046 q 433 1096 378 1069 q 532 1143 488 1122 q 631 1190 583 1168 l 647 1183 l 683 1076 l 675 1058 z "},"Ě":{"ha":829,"x_min":50,"x_max":776,"o":"m 343 193 q 346 149 343 165 q 358 124 349 132 q 385 113 367 115 q 432 110 403 110 q 535 115 496 110 q 598 136 575 119 q 631 184 621 153 q 649 268 642 215 l 767 278 l 776 264 q 763 185 769 226 q 749 102 756 149 q 738 6 743 56 l 725 -10 q 572 -6 649 -8 q 431 -1 506 -3 q 292 0 357 0 q 201 -2 244 0 q 125 -7 158 -4 q 50 -14 86 -11 l 61 81 q 140 114 119 89 q 161 200 161 139 l 163 726 q 153 786 163 771 q 117 801 144 801 q 103 801 110 801 q 90 800 97 800 q 75 799 83 799 l 65 811 l 76 896 q 165 893 119 894 q 249 892 204 892 q 333 892 293 892 q 756 908 628 892 l 767 893 q 753 815 758 857 q 742 734 747 779 q 735 640 738 689 l 607 632 q 608 653 607 643 q 609 671 608 661 q 610 688 610 681 q 604 733 610 717 q 581 760 599 750 q 528 772 563 769 q 435 775 493 775 q 396 774 410 775 q 374 767 382 772 q 364 753 367 763 q 361 729 361 744 l 351 514 q 412 513 374 514 q 481 513 450 513 q 524 514 497 513 q 578 518 551 515 q 642 524 608 521 l 653 511 l 633 392 q 569 393 601 392 q 510 395 542 394 q 453 396 479 396 q 393 393 421 396 q 347 388 365 390 q 344 266 344 311 q 343 193 343 221 m 674 1139 q 595 1081 633 1111 q 525 1025 557 1050 q 456 967 489 996 l 428 967 q 357 1025 393 996 q 287 1081 325 1050 q 210 1139 249 1111 l 243 1196 l 265 1201 q 363 1156 314 1178 q 442 1121 413 1133 q 520 1156 472 1133 q 617 1201 568 1178 l 639 1196 l 674 1139 z "},"Ê":{"ha":829,"x_min":50,"x_max":776,"o":"m 343 193 q 346 149 343 165 q 358 124 349 132 q 385 113 367 115 q 432 110 403 110 q 535 115 496 110 q 598 136 575 119 q 631 184 621 153 q 649 268 642 215 l 767 278 l 776 264 q 763 185 769 226 q 749 102 756 149 q 738 6 743 56 l 725 -10 q 572 -6 649 -8 q 431 -1 506 -3 q 292 0 357 0 q 201 -2 244 0 q 125 -7 158 -4 q 50 -14 86 -11 l 61 81 q 140 114 119 89 q 161 200 161 139 l 163 726 q 153 786 163 771 q 117 801 144 801 q 103 801 110 801 q 90 800 97 800 q 75 799 83 799 l 65 811 l 76 896 q 165 893 119 894 q 249 892 204 892 q 333 892 293 892 q 756 908 628 892 l 767 893 q 753 815 758 857 q 742 734 747 779 q 735 640 738 689 l 607 632 q 608 653 607 643 q 609 671 608 661 q 610 688 610 681 q 604 733 610 717 q 581 760 599 750 q 528 772 563 769 q 435 775 493 775 q 396 774 410 775 q 374 767 382 772 q 364 753 367 763 q 361 729 361 744 l 351 514 q 412 513 374 514 q 481 513 450 513 q 524 514 497 513 q 578 518 551 515 q 642 524 608 521 l 653 511 l 633 392 q 569 393 601 392 q 510 395 542 394 q 453 396 479 396 q 393 393 421 396 q 347 388 365 390 q 344 266 344 311 q 343 193 343 221 m 211 1044 q 289 1103 250 1072 q 360 1160 328 1135 q 429 1217 396 1189 l 457 1217 q 476 1202 457 1218 q 527 1161 496 1186 q 597 1105 558 1136 q 675 1044 636 1074 l 642 988 l 619 982 q 522 1028 571 1006 q 443 1063 472 1050 q 365 1028 413 1050 q 268 982 317 1006 l 246 988 l 211 1044 z "},"Ë":{"ha":829,"x_min":50,"x_max":776,"o":"m 343 193 q 346 149 343 165 q 358 124 349 132 q 385 113 367 115 q 432 110 403 110 q 535 115 496 110 q 598 136 575 119 q 631 184 621 153 q 649 268 642 215 l 767 278 l 776 264 q 763 185 769 226 q 749 102 756 149 q 738 6 743 56 l 725 -10 q 572 -6 649 -8 q 431 -1 506 -3 q 292 0 357 0 q 201 -2 244 0 q 125 -7 158 -4 q 50 -14 86 -11 l 61 81 q 140 114 119 89 q 161 200 161 139 l 163 726 q 153 786 163 771 q 117 801 144 801 q 103 801 110 801 q 90 800 97 800 q 75 799 83 799 l 65 811 l 76 896 q 165 893 119 894 q 249 892 204 892 q 333 892 293 892 q 756 908 628 892 l 767 893 q 753 815 758 857 q 742 734 747 779 q 735 640 738 689 l 607 632 q 608 653 607 643 q 609 671 608 661 q 610 688 610 681 q 604 733 610 717 q 581 760 599 750 q 528 772 563 769 q 435 775 493 775 q 396 774 410 775 q 374 767 382 772 q 364 753 367 763 q 361 729 361 744 l 351 514 q 412 513 374 514 q 481 513 450 513 q 524 514 497 513 q 578 518 551 515 q 642 524 608 521 l 653 511 l 633 392 q 569 393 601 392 q 510 395 542 394 q 453 396 479 396 q 393 393 421 396 q 347 388 365 390 q 344 266 344 311 q 343 193 343 221 m 560 981 q 498 1004 519 981 q 476 1065 476 1028 q 502 1132 476 1106 q 571 1158 528 1158 q 632 1135 611 1158 q 653 1075 653 1111 q 627 1007 653 1033 q 560 981 601 981 m 311 981 q 250 1004 271 981 q 229 1065 229 1028 q 255 1132 229 1106 q 322 1158 281 1158 q 384 1135 363 1158 q 406 1075 406 1111 q 380 1007 406 1033 q 311 981 354 981 z "},"Ė":{"ha":829,"x_min":50,"x_max":776,"o":"m 343 193 q 346 149 343 165 q 358 124 349 132 q 385 113 367 115 q 432 110 403 110 q 535 115 496 110 q 598 136 575 119 q 631 184 621 153 q 649 268 642 215 l 767 278 l 776 264 q 763 185 769 226 q 749 102 756 149 q 738 6 743 56 l 725 -10 q 572 -6 649 -8 q 431 -1 506 -3 q 292 0 357 0 q 201 -2 244 0 q 125 -7 158 -4 q 50 -14 86 -11 l 61 81 q 140 114 119 89 q 161 200 161 139 l 163 726 q 153 786 163 771 q 117 801 144 801 q 103 801 110 801 q 90 800 97 800 q 75 799 83 799 l 65 811 l 76 896 q 165 893 119 894 q 249 892 204 892 q 333 892 293 892 q 756 908 628 892 l 767 893 q 753 815 758 857 q 742 734 747 779 q 735 640 738 689 l 607 632 q 608 653 607 643 q 609 671 608 661 q 610 688 610 681 q 604 733 610 717 q 581 760 599 750 q 528 772 563 769 q 435 775 493 775 q 396 774 410 775 q 374 767 382 772 q 364 753 367 763 q 361 729 361 744 l 351 514 q 412 513 374 514 q 481 513 450 513 q 524 514 497 513 q 578 518 551 515 q 642 524 608 521 l 653 511 l 633 392 q 569 393 601 392 q 510 395 542 394 q 453 396 479 396 q 393 393 421 396 q 347 388 365 390 q 344 266 344 311 q 343 193 343 221 m 436 975 q 363 1003 388 975 q 339 1075 339 1031 q 369 1155 339 1124 q 450 1186 400 1186 q 522 1158 496 1186 q 547 1086 547 1131 q 517 1006 547 1038 q 436 975 486 975 z "},"È":{"ha":829,"x_min":50,"x_max":776,"o":"m 343 193 q 346 149 343 165 q 358 124 349 132 q 385 113 367 115 q 432 110 403 110 q 535 115 496 110 q 598 136 575 119 q 631 184 621 153 q 649 268 642 215 l 767 278 l 776 264 q 763 185 769 226 q 749 102 756 149 q 738 6 743 56 l 725 -10 q 572 -6 649 -8 q 431 -1 506 -3 q 292 0 357 0 q 201 -2 244 0 q 125 -7 158 -4 q 50 -14 86 -11 l 61 81 q 140 114 119 89 q 161 200 161 139 l 163 726 q 153 786 163 771 q 117 801 144 801 q 103 801 110 801 q 90 800 97 800 q 75 799 83 799 l 65 811 l 76 896 q 165 893 119 894 q 249 892 204 892 q 333 892 293 892 q 756 908 628 892 l 767 893 q 753 815 758 857 q 742 734 747 779 q 735 640 738 689 l 607 632 q 608 653 607 643 q 609 671 608 661 q 610 688 610 681 q 604 733 610 717 q 581 760 599 750 q 528 772 563 769 q 435 775 493 775 q 396 774 410 775 q 374 767 382 772 q 364 753 367 763 q 361 729 361 744 l 351 514 q 412 513 374 514 q 481 513 450 513 q 524 514 497 513 q 578 518 551 515 q 642 524 608 521 l 653 511 l 633 392 q 569 393 601 392 q 510 395 542 394 q 453 396 479 396 q 393 393 421 396 q 347 388 365 390 q 344 266 344 311 q 343 193 343 221 m 208 1076 l 244 1183 l 261 1190 q 360 1143 308 1168 q 459 1096 404 1122 q 571 1046 514 1069 l 553 981 l 533 968 q 417 1003 474 988 q 315 1032 360 1019 q 215 1058 263 1047 l 208 1076 z "},"Ē":{"ha":829,"x_min":50,"x_max":776,"o":"m 343 193 q 346 149 343 165 q 358 124 349 132 q 385 113 367 115 q 432 110 403 110 q 535 115 496 110 q 598 136 575 119 q 631 184 621 153 q 649 268 642 215 l 767 278 l 776 264 q 763 185 769 226 q 749 102 756 149 q 738 6 743 56 l 725 -10 q 572 -6 649 -8 q 431 -1 506 -3 q 292 0 357 0 q 201 -2 244 0 q 125 -7 158 -4 q 50 -14 86 -11 l 61 81 q 140 114 119 89 q 161 200 161 139 l 163 726 q 153 786 163 771 q 117 801 144 801 q 103 801 110 801 q 90 800 97 800 q 75 799 83 799 l 65 811 l 76 896 q 165 893 119 894 q 249 892 204 892 q 333 892 293 892 q 756 908 628 892 l 767 893 q 753 815 758 857 q 742 734 747 779 q 735 640 738 689 l 607 632 q 608 653 607 643 q 609 671 608 661 q 610 688 610 681 q 604 733 610 717 q 581 760 599 750 q 528 772 563 769 q 435 775 493 775 q 396 774 410 775 q 374 767 382 772 q 364 753 367 763 q 361 729 361 744 l 351 514 q 412 513 374 514 q 481 513 450 513 q 524 514 497 513 q 578 518 551 515 q 642 524 608 521 l 653 511 l 633 392 q 569 393 601 392 q 510 395 542 394 q 453 396 479 396 q 393 393 421 396 q 347 388 365 390 q 344 266 344 311 q 343 193 343 221 m 654 1092 l 638 985 l 442 983 q 376 983 410 983 q 314 982 342 982 l 249 982 l 233 999 l 253 1104 q 329 1103 292 1103 l 467 1103 q 523 1103 493 1103 q 581 1107 553 1104 q 643 1111 611 1108 l 654 1092 z "},"Ŋ":{"ha":1010,"x_min":50,"x_max":986,"o":"m 215 892 q 255 892 232 892 q 299 894 278 893 q 349 897 324 896 q 477 691 411 794 q 599 504 543 588 q 726 317 664 407 l 739 317 l 738 744 q 726 790 738 776 q 692 804 715 804 q 676 803 685 804 q 661 803 668 803 l 643 803 l 638 811 l 649 897 q 721 894 686 896 q 780 892 750 893 q 826 892 810 892 q 878 892 850 892 q 929 896 906 893 q 986 900 957 897 l 979 808 q 911 782 931 801 q 890 721 892 763 l 876 119 q 858 -3 874 50 q 809 -99 842 -57 q 725 -173 776 -142 q 603 -226 674 -204 l 565 -171 l 569 -156 q 660 -83 629 -119 q 706 6 692 -46 q 557 235 626 129 q 435 421 488 342 q 319 590 372 514 l 307 590 l 304 150 q 315 101 306 114 q 353 88 325 88 q 369 88 358 88 q 389 89 379 88 q 413 90 400 89 l 419 82 l 407 -6 q 339 -3 374 -4 q 273 -1 308 -1 q 206 0 238 0 q 160 -1 185 0 q 113 -6 135 -3 q 63 -11 88 -8 l 74 79 q 136 107 118 85 q 157 185 154 129 l 174 721 q 169 756 174 742 q 151 781 164 771 q 117 797 139 790 q 60 807 94 803 l 50 821 l 60 899 q 118 894 90 896 q 169 892 142 893 q 215 892 196 892 z "},"Ę":{"ha":829,"x_min":50,"x_max":776,"o":"m 772 -243 q 728 -281 751 -264 q 683 -311 708 -296 q 631 -335 657 -326 q 510 -301 556 -335 q 465 -208 465 -268 q 497 -115 465 -162 q 588 -4 528 -67 q 440 -1 521 -1 q 292 0 360 0 q 201 -2 244 0 q 125 -7 158 -4 q 50 -14 86 -11 l 61 81 q 140 114 119 89 q 161 200 161 139 l 163 726 q 153 786 163 771 q 117 801 144 801 q 103 801 110 801 q 90 800 97 800 q 75 799 83 799 l 65 811 l 76 896 q 165 893 119 894 q 249 892 204 892 q 333 892 293 892 q 756 908 628 892 l 767 893 q 753 815 758 857 q 742 734 747 779 q 735 640 738 689 l 607 632 q 608 653 607 643 q 609 671 608 661 q 610 688 610 681 q 604 733 610 717 q 581 760 599 750 q 528 772 563 769 q 435 775 493 775 q 396 774 410 775 q 374 767 382 772 q 364 753 367 763 q 361 729 361 744 l 351 514 q 412 513 374 514 q 481 513 450 513 q 524 514 497 513 q 578 518 551 515 q 642 524 608 521 l 653 511 l 633 392 q 569 393 601 392 q 510 395 542 394 q 453 396 479 396 q 393 393 421 396 q 347 388 365 390 q 344 266 344 311 q 343 193 343 221 q 346 149 343 165 q 358 124 349 132 q 385 113 367 115 q 432 110 403 110 q 535 115 496 110 q 598 136 575 119 q 631 184 621 153 q 649 268 642 215 l 767 278 l 776 264 q 763 185 769 226 q 749 102 756 149 q 738 6 743 56 l 725 -10 q 710 -8 718 -8 q 692 -8 703 -8 q 668 -7 681 -8 q 598 -101 618 -67 q 578 -169 578 -136 q 597 -217 578 -199 q 647 -236 615 -236 q 683 -231 665 -236 q 715 -219 700 -226 q 747 -203 732 -212 l 772 -243 z "},"Ð":{"ha":985,"x_min":11,"x_max":944,"o":"m 463 -17 q 386 -8 424 -12 q 317 -3 354 -6 q 251 0 281 0 q 192 -2 224 0 q 135 -7 161 -4 q 74 -14 103 -11 l 83 81 q 134 94 114 86 q 165 118 154 103 q 179 159 175 133 q 183 225 183 185 l 183 397 l 22 397 l 11 407 l 25 490 l 183 490 l 183 725 q 175 785 183 769 q 140 800 167 800 q 126 799 133 800 q 111 799 118 799 q 94 797 103 797 l 86 810 l 97 896 q 165 893 132 894 q 224 892 193 892 q 275 892 254 892 q 333 892 296 892 q 406 894 369 893 q 494 899 447 896 q 682 870 599 899 q 824 788 765 842 q 913 656 882 733 q 944 482 944 579 q 909 281 944 372 q 810 123 874 189 q 657 20 746 57 q 463 -17 568 -17 m 369 490 l 543 493 l 551 481 l 543 397 l 367 397 l 364 203 q 369 154 364 174 q 387 124 374 135 q 422 108 400 113 q 479 104 444 104 q 663 188 601 104 q 725 439 725 271 q 651 697 725 617 q 421 778 576 778 q 390 771 397 778 q 381 744 382 764 l 369 490 z "},"F":{"ha":739,"x_min":50,"x_max":733,"o":"m 343 197 q 355 126 343 144 q 403 108 367 108 q 431 109 415 108 q 461 111 447 110 q 493 115 476 113 l 506 101 l 490 -6 q 408 -3 449 -4 q 337 -1 374 -1 q 274 0 300 0 q 194 -3 233 0 q 122 -8 154 -6 q 50 -15 85 -12 l 61 79 q 140 115 119 90 q 161 200 161 139 l 163 726 q 153 786 163 771 q 117 801 144 801 q 103 801 110 801 q 90 800 97 800 q 75 799 83 799 l 65 811 l 76 896 q 165 893 119 894 q 249 892 204 892 q 333 892 293 892 q 563 896 464 892 q 724 908 663 900 l 733 893 q 722 814 728 856 q 713 733 718 778 q 706 639 708 688 l 579 631 q 581 653 579 642 q 581 672 581 663 q 582 688 582 681 q 577 733 582 715 q 556 759 572 750 q 511 772 540 768 q 435 775 482 775 q 396 774 410 775 q 374 767 382 772 q 364 753 367 763 q 361 729 361 744 l 351 490 l 481 489 q 521 490 496 489 q 569 494 546 492 q 626 500 596 497 l 638 488 l 618 368 q 558 369 588 368 q 505 372 533 371 q 453 372 476 372 q 393 369 421 372 q 347 363 365 365 l 343 197 z "},"G":{"ha":908,"x_min":39,"x_max":840,"o":"m 840 407 q 811 380 822 394 q 794 340 800 365 q 785 276 788 315 q 783 178 783 238 q 785 107 783 138 q 793 57 788 76 l 781 39 q 692 11 742 24 q 588 -8 649 0 q 453 -17 528 -17 q 281 14 357 -17 q 150 101 204 44 q 67 238 96 157 q 39 422 39 319 q 73 625 39 535 q 171 778 107 715 q 326 875 235 842 q 533 908 418 908 q 628 903 579 908 q 717 890 676 897 q 808 874 763 883 l 818 856 q 803 782 810 822 q 790 701 796 747 q 782 600 785 654 l 644 592 q 646 614 644 601 q 648 638 647 625 q 649 667 649 651 q 615 749 649 725 q 500 774 581 774 q 315 699 375 774 q 254 469 254 625 q 315 205 254 296 q 488 114 375 114 q 542 119 518 114 q 585 132 567 125 q 621 150 606 139 l 621 279 q 609 333 621 319 q 560 346 597 346 l 489 346 l 481 357 l 496 457 q 529 456 508 457 q 576 456 550 456 q 631 455 603 456 q 689 454 660 454 q 740 455 715 454 q 785 457 765 456 q 818 460 806 458 q 831 461 831 461 l 840 407 z "},"Ğ":{"ha":908,"x_min":39,"x_max":840,"o":"m 840 407 q 811 380 822 394 q 794 340 800 365 q 785 276 788 315 q 783 178 783 238 q 785 107 783 138 q 793 57 788 76 l 781 39 q 692 11 742 24 q 588 -8 649 0 q 453 -17 528 -17 q 281 14 357 -17 q 150 101 204 44 q 67 238 96 157 q 39 422 39 319 q 73 625 39 535 q 171 778 107 715 q 326 875 235 842 q 533 908 418 908 q 628 903 579 908 q 717 890 676 897 q 808 874 763 883 l 818 856 q 803 782 810 822 q 790 701 796 747 q 782 600 785 654 l 644 592 q 646 614 644 601 q 648 638 647 625 q 649 667 649 651 q 615 749 649 725 q 500 774 581 774 q 315 699 375 774 q 254 469 254 625 q 315 205 254 296 q 488 114 375 114 q 542 119 518 114 q 585 132 567 125 q 621 150 606 139 l 621 279 q 609 333 621 319 q 560 346 597 346 l 489 346 l 481 357 l 496 457 q 529 456 508 457 q 576 456 550 456 q 631 455 603 456 q 689 454 660 454 q 740 455 715 454 q 785 457 765 456 q 818 460 806 458 q 831 461 831 461 l 840 407 m 492 1114 q 577 1135 539 1114 q 635 1197 615 1156 l 658 1192 l 697 1143 q 671 1084 688 1113 q 629 1033 654 1056 q 570 996 604 1010 q 492 982 536 982 q 413 996 447 982 q 354 1033 379 1010 q 313 1084 329 1056 q 286 1143 296 1113 l 325 1192 l 349 1197 q 406 1135 368 1156 q 492 1114 444 1114 z "},"Ģ":{"ha":908,"x_min":39,"x_max":840,"o":"m 840 407 q 811 380 822 394 q 794 340 800 365 q 785 276 788 315 q 783 178 783 238 q 785 107 783 138 q 793 57 788 76 l 781 39 q 692 11 742 24 q 588 -8 649 0 q 453 -17 528 -17 q 281 14 357 -17 q 150 101 204 44 q 67 238 96 157 q 39 422 39 319 q 73 625 39 535 q 171 778 107 715 q 326 875 235 842 q 533 908 418 908 q 628 903 579 908 q 717 890 676 897 q 808 874 763 883 l 818 856 q 803 782 810 822 q 790 701 796 747 q 782 600 785 654 l 644 592 q 646 614 644 601 q 648 638 647 625 q 649 667 649 651 q 615 749 649 725 q 500 774 581 774 q 315 699 375 774 q 254 469 254 625 q 315 205 254 296 q 488 114 375 114 q 542 119 518 114 q 585 132 567 125 q 621 150 606 139 l 621 279 q 609 333 621 319 q 560 346 597 346 l 489 346 l 481 357 l 496 457 q 529 456 508 457 q 576 456 550 456 q 631 455 603 456 q 689 454 660 454 q 740 455 715 454 q 785 457 765 456 q 818 460 806 458 q 831 461 831 461 l 840 407 m 367 -119 q 421 -85 392 -100 q 476 -71 450 -71 q 545 -103 518 -71 q 572 -190 572 -135 q 556 -263 572 -228 q 510 -331 539 -299 q 445 -391 482 -362 q 368 -442 408 -419 l 317 -400 l 317 -376 q 384 -310 357 -349 q 411 -235 411 -271 q 397 -181 411 -207 q 363 -139 383 -156 l 367 -119 z "},"Ġ":{"ha":908,"x_min":39,"x_max":840,"o":"m 840 407 q 811 380 822 394 q 794 340 800 365 q 785 276 788 315 q 783 178 783 238 q 785 107 783 138 q 793 57 788 76 l 781 39 q 692 11 742 24 q 588 -8 649 0 q 453 -17 528 -17 q 281 14 357 -17 q 150 101 204 44 q 67 238 96 157 q 39 422 39 319 q 73 625 39 535 q 171 778 107 715 q 326 875 235 842 q 533 908 418 908 q 628 903 579 908 q 717 890 676 897 q 808 874 763 883 l 818 856 q 803 782 810 822 q 790 701 796 747 q 782 600 785 654 l 644 592 q 646 614 644 601 q 648 638 647 625 q 649 667 649 651 q 615 749 649 725 q 500 774 581 774 q 315 699 375 774 q 254 469 254 625 q 315 205 254 296 q 488 114 375 114 q 542 119 518 114 q 585 132 567 125 q 621 150 606 139 l 621 279 q 609 333 621 319 q 560 346 597 346 l 489 346 l 481 357 l 496 457 q 529 456 508 457 q 576 456 550 456 q 631 455 603 456 q 689 454 660 454 q 740 455 715 454 q 785 457 765 456 q 818 460 806 458 q 831 461 831 461 l 840 407 m 488 975 q 415 1003 439 975 q 390 1075 390 1031 q 421 1155 390 1124 q 501 1186 451 1186 q 573 1158 547 1186 q 599 1086 599 1131 q 568 1006 599 1038 q 488 975 538 975 z "},"H":{"ha":1038,"x_min":51,"x_max":989,"o":"m 890 733 q 884 601 888 674 q 878 453 881 528 q 875 309 876 379 q 874 185 874 239 q 886 111 874 131 q 932 92 899 92 q 949 92 940 92 q 965 93 958 92 q 982 96 974 94 l 989 85 l 976 -4 q 908 -3 944 -4 q 842 -1 878 -1 q 774 0 806 0 q 720 -1 753 0 q 656 -1 688 -1 q 581 -3 619 -3 l 592 89 q 640 95 621 89 q 671 116 660 101 q 687 155 682 131 q 692 217 692 179 l 692 393 l 635 393 q 586 394 611 393 q 542 394 561 394 q 495 392 526 394 q 431 388 464 390 q 347 381 392 383 l 344 185 q 355 109 344 128 q 397 90 365 90 q 416 90 407 90 q 432 92 425 90 q 447 94 440 93 l 454 85 l 442 -4 q 376 -3 408 -4 q 320 -1 349 -1 q 272 0 292 0 q 202 -1 240 0 q 131 -5 164 -3 q 74 -9 97 -7 q 51 -12 51 -11 l 61 78 q 111 92 92 83 q 142 113 131 100 q 157 146 153 126 q 161 194 161 165 l 163 729 q 153 788 163 774 q 113 801 143 801 q 99 801 106 801 q 85 800 92 800 l 69 800 l 63 811 l 74 893 q 135 892 104 892 l 239 892 q 302 892 265 892 q 371 896 339 893 q 449 901 408 899 l 442 808 q 399 799 415 804 q 375 783 383 793 q 363 755 367 772 q 358 710 360 738 l 350 511 l 528 508 q 614 510 578 508 q 692 518 650 513 l 692 729 q 682 787 692 772 q 642 801 672 801 q 628 801 635 801 q 614 800 621 800 l 599 800 l 592 811 l 603 893 q 669 892 636 892 l 781 892 q 839 892 804 892 q 906 896 874 893 q 985 901 943 899 l 976 810 q 935 801 951 806 q 909 788 918 796 q 896 766 900 779 q 890 733 892 753 z "},"Ħ":{"ha":1035,"x_min":26,"x_max":1010,"o":"m 886 697 q 928 698 910 697 q 961 699 947 699 q 990 700 976 699 l 1010 681 l 1003 617 l 883 617 q 878 503 881 563 q 875 388 876 444 q 873 279 874 332 q 872 185 872 226 q 885 111 872 131 q 931 92 897 92 q 948 92 939 92 q 964 93 957 92 q 981 96 972 94 l 988 85 l 975 -4 q 907 -3 943 -4 q 840 -1 876 -1 q 772 0 804 0 q 719 -1 751 0 q 654 -1 686 -1 q 579 -3 618 -3 l 590 89 q 639 95 619 89 q 669 116 658 101 q 685 155 681 131 q 690 217 690 179 l 690 393 l 633 393 q 585 394 610 393 q 540 394 560 394 q 494 392 525 394 q 429 388 463 390 q 346 381 390 383 l 343 185 q 353 109 343 128 q 396 90 364 90 q 415 90 406 90 q 431 92 424 90 q 446 94 439 93 l 453 85 l 440 -4 q 375 -3 407 -4 q 319 -1 347 -1 q 271 0 290 0 q 201 -1 239 0 q 129 -5 163 -3 q 73 -9 96 -7 q 50 -12 50 -11 l 60 78 q 110 92 90 83 q 140 113 129 100 q 156 146 151 126 q 160 194 160 165 l 161 614 l 40 614 l 26 628 l 38 694 q 72 693 53 693 l 161 693 l 161 729 q 151 788 161 774 q 111 801 142 801 q 97 801 104 801 q 83 800 90 800 l 68 800 l 61 811 l 72 893 q 133 892 103 892 l 238 892 q 301 892 264 892 q 369 896 338 893 q 447 901 407 899 l 440 808 q 398 799 414 804 q 374 783 382 793 q 362 755 365 772 q 357 710 358 738 l 356 693 l 554 693 l 690 693 l 690 729 q 681 787 690 772 q 640 801 671 801 q 626 801 633 801 q 613 800 619 800 l 597 800 l 590 811 l 601 893 q 668 892 635 892 l 779 892 q 838 892 803 892 q 904 896 872 893 q 983 901 942 899 l 975 810 q 933 801 950 806 q 908 788 917 796 q 894 766 899 779 q 889 733 890 753 l 886 697 m 353 615 l 349 511 l 526 508 q 613 510 576 508 q 690 518 649 513 l 690 615 l 521 615 l 353 615 z "},"I":{"ha":507,"x_min":50,"x_max":464,"o":"m 361 733 q 354 598 357 671 q 349 451 351 525 q 346 309 347 378 q 344 185 344 240 q 355 109 344 128 q 397 90 365 90 q 419 90 408 90 q 439 92 431 90 q 457 94 449 93 l 464 85 l 451 -4 q 371 -3 410 -4 q 303 -1 338 -1 q 244 0 268 0 q 181 -2 215 0 q 118 -7 147 -4 q 50 -12 83 -10 l 60 78 q 141 114 121 90 q 161 194 161 138 l 163 729 q 153 787 163 772 q 113 801 143 801 q 97 801 106 801 q 81 800 88 800 l 64 800 l 57 811 l 67 893 q 103 893 81 893 q 152 892 125 893 q 208 892 179 892 q 261 892 236 892 q 317 892 285 892 q 382 896 350 893 q 458 901 418 899 l 450 808 q 380 787 397 801 q 361 733 363 772 z "},"Ĳ":{"ha":969,"x_min":50,"x_max":935,"o":"m 361 733 q 354 598 357 671 q 349 451 351 525 q 346 309 347 378 q 344 185 344 240 q 355 109 344 128 q 397 90 365 90 q 419 90 408 90 q 439 92 431 90 q 457 94 449 93 l 464 85 l 451 -4 q 371 -3 410 -4 q 303 -1 338 -1 q 244 0 268 0 q 181 -2 215 0 q 118 -7 147 -4 q 50 -12 83 -10 l 60 78 q 141 114 121 90 q 161 194 161 138 l 163 729 q 153 787 163 772 q 113 801 143 801 q 97 801 106 801 q 81 800 88 800 l 64 800 l 57 811 l 67 893 q 103 893 81 893 q 152 892 125 893 q 208 892 179 892 q 261 892 236 892 q 317 892 285 892 q 382 896 350 893 q 458 901 418 899 l 450 808 q 380 787 397 801 q 361 733 363 772 m 656 729 q 647 788 656 774 q 607 801 638 801 q 591 801 600 801 q 572 799 582 800 q 550 797 561 797 l 542 808 l 553 892 l 725 892 q 798 893 761 892 q 865 897 835 894 q 935 903 901 900 l 926 808 q 890 799 904 804 q 869 787 876 794 q 859 767 863 779 q 854 733 856 754 q 849 609 851 686 q 843 447 846 532 q 839 279 840 361 q 838 140 838 197 q 770 -82 836 3 q 560 -214 704 -167 l 521 -157 l 524 -142 q 588 -85 563 -112 q 628 -22 614 -57 q 649 60 643 14 q 656 171 656 106 l 656 729 z "},"J":{"ha":463,"x_min":14,"x_max":428,"o":"m 149 729 q 140 788 149 774 q 100 801 131 801 q 84 801 93 801 q 65 799 75 800 q 43 797 54 797 l 35 808 l 46 892 l 218 892 q 291 893 254 892 q 358 897 328 894 q 428 903 394 900 l 419 808 q 383 799 397 804 q 363 787 369 794 q 352 767 356 779 q 347 733 349 754 q 342 609 344 686 q 336 447 339 532 q 332 279 333 361 q 331 140 331 197 q 263 -82 329 3 q 53 -214 197 -167 l 14 -157 l 17 -142 q 81 -85 56 -112 q 122 -22 107 -57 q 142 60 136 14 q 149 171 149 106 l 149 729 z "},"Í":{"ha":507,"x_min":50,"x_max":500,"o":"m 361 733 q 354 598 357 671 q 349 451 351 525 q 346 309 347 378 q 344 185 344 240 q 355 109 344 128 q 397 90 365 90 q 419 90 408 90 q 439 92 431 90 q 457 94 449 93 l 464 85 l 451 -4 q 371 -3 410 -4 q 303 -1 338 -1 q 244 0 268 0 q 181 -2 215 0 q 118 -7 147 -4 q 50 -12 83 -10 l 60 78 q 141 114 121 90 q 161 194 161 138 l 163 729 q 153 787 163 772 q 113 801 143 801 q 97 801 106 801 q 81 800 88 800 l 64 800 l 57 811 l 67 893 q 103 893 81 893 q 152 892 125 893 q 208 892 179 892 q 261 892 236 892 q 317 892 285 892 q 382 896 350 893 q 458 901 418 899 l 450 808 q 380 787 397 801 q 361 733 363 772 m 492 1058 q 392 1032 444 1047 q 290 1003 347 1019 q 174 968 233 988 l 156 981 l 138 1046 q 249 1096 194 1069 q 349 1143 304 1122 q 447 1190 400 1168 l 464 1183 l 500 1076 l 492 1058 z "},"Î":{"ha":507,"x_min":28,"x_max":492,"o":"m 361 733 q 354 598 357 671 q 349 451 351 525 q 346 309 347 378 q 344 185 344 240 q 355 109 344 128 q 397 90 365 90 q 419 90 408 90 q 439 92 431 90 q 457 94 449 93 l 464 85 l 451 -4 q 371 -3 410 -4 q 303 -1 338 -1 q 244 0 268 0 q 181 -2 215 0 q 118 -7 147 -4 q 50 -12 83 -10 l 60 78 q 141 114 121 90 q 161 194 161 138 l 163 729 q 153 787 163 772 q 113 801 143 801 q 97 801 106 801 q 81 800 88 800 l 64 800 l 57 811 l 67 893 q 103 893 81 893 q 152 892 125 893 q 208 892 179 892 q 261 892 236 892 q 317 892 285 892 q 382 896 350 893 q 458 901 418 899 l 450 808 q 380 787 397 801 q 361 733 363 772 m 28 1044 q 106 1103 67 1072 q 176 1160 144 1135 q 246 1217 213 1189 l 274 1217 q 293 1202 274 1218 q 344 1161 313 1186 q 414 1105 375 1136 q 492 1044 453 1074 l 458 988 l 436 982 q 338 1028 388 1006 q 260 1063 289 1050 q 181 1028 229 1050 q 85 982 133 1006 l 63 988 l 28 1044 z "},"Ï":{"ha":507,"x_min":47,"x_max":471,"o":"m 361 733 q 354 598 357 671 q 349 451 351 525 q 346 309 347 378 q 344 185 344 240 q 355 109 344 128 q 397 90 365 90 q 419 90 408 90 q 439 92 431 90 q 457 94 449 93 l 464 85 l 451 -4 q 371 -3 410 -4 q 303 -1 338 -1 q 244 0 268 0 q 181 -2 215 0 q 118 -7 147 -4 q 50 -12 83 -10 l 60 78 q 141 114 121 90 q 161 194 161 138 l 163 729 q 153 787 163 772 q 113 801 143 801 q 97 801 106 801 q 81 800 88 800 l 64 800 l 57 811 l 67 893 q 103 893 81 893 q 152 892 125 893 q 208 892 179 892 q 261 892 236 892 q 317 892 285 892 q 382 896 350 893 q 458 901 418 899 l 450 808 q 380 787 397 801 q 361 733 363 772 m 378 981 q 316 1004 338 981 q 294 1065 294 1028 q 320 1132 294 1106 q 389 1158 346 1158 q 450 1135 429 1158 q 471 1075 471 1111 q 445 1007 471 1033 q 378 981 419 981 m 129 981 q 68 1004 89 981 q 47 1065 47 1028 q 73 1132 47 1106 q 140 1158 99 1158 q 202 1135 181 1158 q 224 1075 224 1111 q 198 1007 224 1033 q 129 981 172 981 z "},"İ":{"ha":507,"x_min":50,"x_max":464,"o":"m 361 733 q 354 598 357 671 q 349 451 351 525 q 346 309 347 378 q 344 185 344 240 q 355 109 344 128 q 397 90 365 90 q 419 90 408 90 q 439 92 431 90 q 457 94 449 93 l 464 85 l 451 -4 q 371 -3 410 -4 q 303 -1 338 -1 q 244 0 268 0 q 181 -2 215 0 q 118 -7 147 -4 q 50 -12 83 -10 l 60 78 q 141 114 121 90 q 161 194 161 138 l 163 729 q 153 787 163 772 q 113 801 143 801 q 97 801 106 801 q 81 800 88 800 l 64 800 l 57 811 l 67 893 q 103 893 81 893 q 152 892 125 893 q 208 892 179 892 q 261 892 236 892 q 317 892 285 892 q 382 896 350 893 q 458 901 418 899 l 450 808 q 380 787 397 801 q 361 733 363 772 m 254 975 q 181 1003 206 975 q 157 1075 157 1031 q 188 1155 157 1124 q 268 1186 218 1186 q 340 1158 314 1186 q 365 1086 365 1131 q 335 1006 365 1038 q 254 975 304 975 z "},"Ì":{"ha":507,"x_min":26,"x_max":464,"o":"m 361 733 q 354 598 357 671 q 349 451 351 525 q 346 309 347 378 q 344 185 344 240 q 355 109 344 128 q 397 90 365 90 q 419 90 408 90 q 439 92 431 90 q 457 94 449 93 l 464 85 l 451 -4 q 371 -3 410 -4 q 303 -1 338 -1 q 244 0 268 0 q 181 -2 215 0 q 118 -7 147 -4 q 50 -12 83 -10 l 60 78 q 141 114 121 90 q 161 194 161 138 l 163 729 q 153 787 163 772 q 113 801 143 801 q 97 801 106 801 q 81 800 88 800 l 64 800 l 57 811 l 67 893 q 103 893 81 893 q 152 892 125 893 q 208 892 179 892 q 261 892 236 892 q 317 892 285 892 q 382 896 350 893 q 458 901 418 899 l 450 808 q 380 787 397 801 q 361 733 363 772 m 26 1076 l 63 1183 l 79 1190 q 178 1143 126 1168 q 277 1096 222 1122 q 389 1046 332 1069 l 371 981 l 351 968 q 235 1003 292 988 q 133 1032 178 1019 q 33 1058 81 1047 l 26 1076 z "},"Ī":{"ha":507,"x_min":50,"x_max":472,"o":"m 361 733 q 354 598 357 671 q 349 451 351 525 q 346 309 347 378 q 344 185 344 240 q 355 109 344 128 q 397 90 365 90 q 419 90 408 90 q 439 92 431 90 q 457 94 449 93 l 464 85 l 451 -4 q 371 -3 410 -4 q 303 -1 338 -1 q 244 0 268 0 q 181 -2 215 0 q 118 -7 147 -4 q 50 -12 83 -10 l 60 78 q 141 114 121 90 q 161 194 161 138 l 163 729 q 153 787 163 772 q 113 801 143 801 q 97 801 106 801 q 81 800 88 800 l 64 800 l 57 811 l 67 893 q 103 893 81 893 q 152 892 125 893 q 208 892 179 892 q 261 892 236 892 q 317 892 285 892 q 382 896 350 893 q 458 901 418 899 l 450 808 q 380 787 397 801 q 361 733 363 772 m 472 1092 l 456 985 l 260 983 q 194 983 228 983 q 132 982 160 982 l 67 982 l 51 999 l 71 1104 q 147 1103 110 1103 l 285 1103 q 341 1103 311 1103 q 399 1107 371 1104 q 461 1111 429 1108 l 472 1092 z "},"Į":{"ha":507,"x_min":50,"x_max":479,"o":"m 479 -243 q 435 -281 458 -264 q 390 -311 415 -296 q 338 -335 364 -326 q 217 -301 263 -335 q 172 -208 172 -268 q 204 -112 172 -161 q 299 0 236 -64 l 244 0 q 181 -2 215 0 q 118 -7 147 -4 q 50 -12 83 -10 l 60 78 q 141 114 121 90 q 161 194 161 138 l 163 729 q 153 787 163 772 q 113 801 143 801 q 97 801 106 801 q 81 800 88 800 l 64 800 l 57 811 l 67 893 q 103 893 81 893 q 152 892 125 893 q 208 892 179 892 q 261 892 236 892 q 317 892 285 892 q 382 896 350 893 q 458 901 418 899 l 450 808 q 380 787 397 801 q 361 733 363 772 q 354 598 357 671 q 349 451 351 525 q 346 309 347 378 q 344 185 344 240 q 355 109 344 128 q 397 90 365 90 q 419 90 408 90 q 439 92 431 90 q 457 94 449 93 l 464 85 l 451 -4 q 429 -3 440 -3 q 406 -3 418 -3 q 379 -1 394 -3 q 306 -100 326 -64 q 285 -169 285 -136 q 303 -217 285 -199 q 354 -236 322 -236 q 390 -231 372 -236 q 422 -219 407 -226 q 454 -203 439 -212 l 479 -243 z "},"K":{"ha":915,"x_min":51,"x_max":908,"o":"m 163 729 q 153 788 163 774 q 113 801 143 801 q 99 801 106 801 q 85 800 92 800 l 69 800 l 63 811 l 74 894 q 153 893 117 893 q 215 892 185 892 q 261 892 246 892 q 316 892 283 892 q 379 896 349 893 q 453 901 415 899 l 444 808 q 376 782 393 797 q 357 728 358 767 l 344 185 q 353 109 342 128 q 397 90 365 90 q 418 90 408 90 q 435 92 428 90 q 451 94 443 93 l 457 85 l 444 -4 q 367 -3 404 -4 q 301 -1 335 -1 q 244 0 267 0 q 181 -1 215 0 q 118 -3 147 -1 q 51 -4 83 -4 l 64 85 q 113 96 94 89 q 142 115 132 103 q 157 147 153 128 q 161 194 161 165 l 163 729 m 375 469 l 579 692 q 615 760 615 728 q 599 790 615 781 q 542 803 582 800 l 538 813 l 549 899 q 614 894 582 896 q 671 892 642 893 q 722 892 700 892 q 769 892 742 892 q 824 894 797 893 q 885 897 853 896 l 894 882 l 883 803 q 841 782 861 794 q 800 751 821 769 q 755 706 779 732 q 701 644 731 679 l 558 483 l 742 203 q 817 113 782 140 q 900 82 853 85 l 908 69 l 897 -4 q 825 -12 858 -8 q 771 -18 797 -15 q 735 -21 744 -21 q 654 7 690 -21 q 581 96 618 35 l 371 439 l 375 469 z "},"Ķ":{"ha":915,"x_min":51,"x_max":908,"o":"m 163 729 q 153 788 163 774 q 113 801 143 801 q 99 801 106 801 q 85 800 92 800 l 69 800 l 63 811 l 74 894 q 153 893 117 893 q 215 892 185 892 q 261 892 246 892 q 316 892 283 892 q 379 896 349 893 q 453 901 415 899 l 444 808 q 376 782 393 797 q 357 728 358 767 l 344 185 q 353 109 342 128 q 397 90 365 90 q 418 90 408 90 q 435 92 428 90 q 451 94 443 93 l 457 85 l 444 -4 q 367 -3 404 -4 q 301 -1 335 -1 q 244 0 267 0 q 181 -1 215 0 q 118 -3 147 -1 q 51 -4 83 -4 l 64 85 q 113 96 94 89 q 142 115 132 103 q 157 147 153 128 q 161 194 161 165 l 163 729 m 375 469 l 579 692 q 615 760 615 728 q 599 790 615 781 q 542 803 582 800 l 538 813 l 549 899 q 614 894 582 896 q 671 892 642 893 q 722 892 700 892 q 769 892 742 892 q 824 894 797 893 q 885 897 853 896 l 894 882 l 883 803 q 841 782 861 794 q 800 751 821 769 q 755 706 779 732 q 701 644 731 679 l 558 483 l 742 203 q 817 113 782 140 q 900 82 853 85 l 908 69 l 897 -4 q 825 -12 858 -8 q 771 -18 797 -15 q 735 -21 744 -21 q 654 7 690 -21 q 581 96 618 35 l 371 439 l 375 469 m 383 -119 q 438 -85 408 -100 q 493 -71 467 -71 q 562 -103 535 -71 q 589 -190 589 -135 q 572 -263 589 -228 q 527 -331 556 -299 q 462 -391 499 -362 q 385 -442 425 -419 l 333 -400 l 333 -376 q 401 -310 374 -349 q 428 -235 428 -271 q 414 -181 428 -207 q 379 -139 400 -156 l 383 -119 z "},"L":{"ha":738,"x_min":58,"x_max":736,"o":"m 296 0 q 206 -2 249 0 q 131 -7 164 -4 q 58 -14 92 -11 l 68 81 q 141 114 121 89 q 161 200 161 139 l 161 729 q 151 788 161 774 q 111 801 142 801 q 98 801 104 801 q 85 800 92 800 l 69 800 l 63 811 l 72 893 q 108 893 86 893 q 156 892 131 893 q 210 892 182 892 q 261 892 238 892 q 321 892 285 892 q 392 896 357 893 q 476 901 432 899 l 465 803 q 409 792 429 799 q 378 775 389 786 q 365 746 368 764 q 360 701 361 728 q 353 582 356 644 q 348 454 350 519 q 345 322 346 389 q 344 193 344 256 q 348 151 344 167 q 360 126 351 135 q 386 113 369 117 q 431 110 403 110 q 510 117 479 110 q 561 148 542 125 q 591 213 581 171 q 608 321 601 254 l 726 333 l 736 319 q 722 224 728 275 q 710 123 715 179 q 699 4 704 67 l 686 -11 q 553 -6 619 -8 q 426 -1 494 -3 q 296 0 358 0 z "},"Ĺ":{"ha":738,"x_min":58,"x_max":736,"o":"m 296 0 q 206 -2 249 0 q 131 -7 164 -4 q 58 -14 92 -11 l 68 81 q 141 114 121 89 q 161 200 161 139 l 161 729 q 151 788 161 774 q 111 801 142 801 q 98 801 104 801 q 85 800 92 800 l 69 800 l 63 811 l 72 893 q 108 893 86 893 q 156 892 131 893 q 210 892 182 892 q 261 892 238 892 q 321 892 285 892 q 392 896 357 893 q 476 901 432 899 l 465 803 q 409 792 429 799 q 378 775 389 786 q 365 746 368 764 q 360 701 361 728 q 353 582 356 644 q 348 454 350 519 q 345 322 346 389 q 344 193 344 256 q 348 151 344 167 q 360 126 351 135 q 386 113 369 117 q 431 110 403 110 q 510 117 479 110 q 561 148 542 125 q 591 213 581 171 q 608 321 601 254 l 726 333 l 736 319 q 722 224 728 275 q 710 123 715 179 q 699 4 704 67 l 686 -11 q 553 -6 619 -8 q 426 -1 494 -3 q 296 0 358 0 m 497 1058 q 397 1032 450 1047 q 296 1003 353 1019 q 179 968 239 988 l 161 981 l 143 1046 q 255 1096 200 1069 q 354 1143 310 1122 q 453 1190 406 1168 l 469 1183 l 506 1076 l 497 1058 z "},"Ľ":{"ha":746,"x_min":58,"x_max":736,"o":"m 296 0 q 206 -2 249 0 q 131 -7 164 -4 q 58 -14 92 -11 l 68 81 q 141 114 121 89 q 161 200 161 139 l 161 729 q 151 788 161 774 q 111 801 142 801 q 98 801 104 801 q 85 800 92 800 l 69 800 l 63 811 l 72 893 q 108 893 86 893 q 156 892 131 893 q 210 892 182 892 q 261 892 238 892 q 321 892 285 892 q 392 896 357 893 q 476 901 432 899 l 465 803 q 409 792 429 799 q 378 775 389 786 q 365 746 368 764 q 360 701 361 728 q 353 582 356 644 q 348 454 350 519 q 345 322 346 389 q 344 193 344 256 q 348 151 344 167 q 360 126 351 135 q 386 113 369 117 q 431 110 403 110 q 510 117 479 110 q 561 148 542 125 q 591 213 581 171 q 608 321 601 254 l 726 333 l 736 319 q 722 224 728 275 q 710 123 715 179 q 699 4 704 67 l 686 -11 q 553 -6 619 -8 q 426 -1 494 -3 q 296 0 358 0 m 735 875 q 719 781 728 831 q 703 683 713 738 q 681 574 693 629 l 614 547 l 594 553 q 594 669 596 613 q 590 771 593 726 q 583 869 588 824 l 724 889 l 735 875 z "},"Ļ":{"ha":738,"x_min":58,"x_max":736,"o":"m 296 0 q 206 -2 249 0 q 131 -7 164 -4 q 58 -14 92 -11 l 68 81 q 141 114 121 89 q 161 200 161 139 l 161 729 q 151 788 161 774 q 111 801 142 801 q 98 801 104 801 q 85 800 92 800 l 69 800 l 63 811 l 72 893 q 108 893 86 893 q 156 892 131 893 q 210 892 182 892 q 261 892 238 892 q 321 892 285 892 q 392 896 357 893 q 476 901 432 899 l 465 803 q 409 792 429 799 q 378 775 389 786 q 365 746 368 764 q 360 701 361 728 q 353 582 356 644 q 348 454 350 519 q 345 322 346 389 q 344 193 344 256 q 348 151 344 167 q 360 126 351 135 q 386 113 369 117 q 431 110 403 110 q 510 117 479 110 q 561 148 542 125 q 591 213 581 171 q 608 321 601 254 l 726 333 l 736 319 q 722 224 728 275 q 710 123 715 179 q 699 4 704 67 l 686 -11 q 553 -6 619 -8 q 426 -1 494 -3 q 296 0 358 0 m 306 -119 q 360 -85 331 -100 q 415 -71 389 -71 q 484 -103 457 -71 q 511 -190 511 -135 q 494 -263 511 -228 q 449 -331 478 -299 q 384 -391 421 -362 q 307 -442 347 -419 l 256 -400 l 256 -376 q 323 -310 296 -349 q 350 -235 350 -271 q 336 -181 350 -207 q 301 -139 322 -156 l 306 -119 z "},"Ŀ":{"ha":769,"x_min":58,"x_max":742,"o":"m 296 0 q 206 -2 249 0 q 131 -7 164 -4 q 58 -14 92 -11 l 68 81 q 141 114 121 89 q 161 200 161 139 l 161 729 q 151 788 161 774 q 111 801 142 801 q 98 801 104 801 q 85 800 92 800 l 69 800 l 63 811 l 72 893 q 108 893 86 893 q 156 892 131 893 q 210 892 182 892 q 261 892 238 892 q 321 892 285 892 q 392 896 357 893 q 476 901 432 899 l 465 803 q 409 792 429 799 q 378 775 389 786 q 365 746 368 764 q 360 701 361 728 q 353 582 356 644 q 348 454 350 519 q 345 322 346 389 q 344 193 344 256 q 348 151 344 167 q 360 126 351 135 q 386 113 369 117 q 431 110 403 110 q 510 117 479 110 q 561 148 542 125 q 591 213 581 171 q 608 321 601 254 l 726 333 l 736 319 q 722 224 728 275 q 710 123 715 179 q 699 4 704 67 l 686 -11 q 553 -6 619 -8 q 426 -1 494 -3 q 296 0 358 0 m 629 528 q 551 557 576 528 q 525 633 525 586 q 555 715 525 683 q 638 747 585 747 q 715 718 688 747 q 742 642 742 689 q 712 560 742 592 q 629 528 682 528 z "},"·":{"ha":331,"x_min":57,"x_max":274,"o":"m 161 224 q 83 253 108 224 q 57 329 57 282 q 87 411 57 379 q 169 443 117 443 q 247 414 219 443 q 274 338 274 385 q 244 256 274 288 q 161 224 214 224 z "},"Ł":{"ha":786,"x_min":54,"x_max":753,"o":"m 313 0 q 223 -2 265 0 q 147 -7 181 -4 q 75 -14 108 -11 l 85 81 q 158 114 138 89 q 178 200 178 139 l 178 369 l 92 326 l 78 329 l 54 415 l 178 476 l 178 729 q 168 788 178 774 q 128 801 158 801 q 115 801 121 801 q 101 800 108 800 l 86 800 l 79 811 l 89 893 q 125 893 103 893 q 173 892 147 893 q 226 892 199 892 q 278 892 254 892 q 338 892 301 892 q 408 896 374 893 q 493 901 449 899 l 482 803 q 426 792 446 799 q 395 775 406 786 q 381 746 385 764 q 376 701 378 728 q 368 551 369 631 l 553 644 l 564 639 l 588 554 l 364 442 q 361 317 361 379 q 361 193 361 254 q 365 151 361 167 q 377 126 368 135 q 403 113 386 117 q 447 110 419 110 q 527 117 496 110 q 578 148 558 125 q 608 213 597 171 q 625 321 618 254 l 743 333 l 753 319 q 739 224 744 275 q 726 123 732 179 q 715 4 721 67 l 703 -11 q 569 -6 636 -8 q 443 -1 511 -3 q 313 0 375 0 z "},"M":{"ha":1168,"x_min":38,"x_max":1133,"o":"m 511 -22 q 449 174 479 79 q 391 351 418 268 q 340 501 364 433 q 299 618 317 569 l 288 618 q 274 389 279 492 q 269 302 271 344 q 265 225 267 260 q 261 166 263 190 q 260 136 260 142 q 304 90 260 90 q 316 90 308 90 q 331 92 324 90 q 350 93 339 92 l 358 85 l 343 -6 q 278 -3 310 -4 q 222 -1 250 -1 q 178 0 194 0 q 132 -1 157 0 q 86 -6 107 -3 q 38 -11 61 -8 l 47 82 q 107 108 88 88 q 131 182 126 129 q 137 238 132 194 q 148 340 142 282 q 161 465 154 399 q 174 588 168 531 q 183 687 179 646 q 186 738 186 728 q 182 768 186 756 q 166 788 178 781 q 134 800 154 796 q 82 807 114 804 l 75 815 l 88 899 q 157 894 124 896 q 215 892 185 893 q 264 892 244 892 q 311 892 285 892 q 361 894 338 893 q 415 897 388 896 q 478 677 447 779 q 533 496 510 575 q 588 326 561 404 l 599 326 q 654 496 625 404 q 712 676 679 575 q 781 893 744 778 q 817 892 796 893 q 860 891 838 892 q 907 890 883 890 q 951 892 931 890 q 995 893 971 892 q 1042 896 1019 894 q 1092 900 1067 897 l 1097 894 l 1089 808 q 1008 789 1029 804 q 988 735 988 774 q 991 651 988 711 q 999 515 994 590 q 1010 359 1004 439 q 1021 218 1015 279 q 1042 117 1028 143 q 1088 92 1056 92 q 1101 92 1094 92 q 1115 93 1108 92 q 1128 94 1121 93 l 1133 86 l 1121 -4 q 1071 -3 1096 -4 q 1025 -1 1050 -1 q 979 0 1000 0 q 931 -1 963 0 q 865 -5 899 -3 q 806 -8 832 -7 q 776 -11 779 -10 l 788 83 q 846 103 828 88 q 864 151 864 119 q 863 187 864 161 q 859 247 861 213 q 855 323 857 282 q 850 406 853 364 q 836 618 844 503 l 824 618 q 783 502 807 569 q 731 353 758 435 q 673 180 703 272 q 613 -10 643 88 l 511 -22 z "},"N":{"ha":1013,"x_min":47,"x_max":988,"o":"m 736 326 l 733 742 q 722 788 732 774 q 688 801 711 801 q 658 801 672 801 q 640 800 644 800 l 635 811 l 644 897 q 711 894 678 896 q 769 892 739 893 q 824 892 800 892 q 878 892 849 892 q 931 894 907 893 q 988 899 958 896 l 981 806 q 915 779 935 799 q 893 718 894 760 l 875 -19 l 728 -37 q 573 205 646 93 q 444 400 500 317 q 324 579 379 497 l 310 579 l 308 151 q 319 103 308 117 q 356 89 329 89 q 372 89 361 89 q 392 90 382 89 q 415 93 403 92 l 424 83 l 410 -6 q 343 -3 376 -4 q 284 -1 315 -1 q 231 0 253 0 q 172 -1 203 0 q 117 -6 142 -3 q 60 -11 88 -8 l 71 82 q 132 108 113 88 q 153 169 151 128 l 171 718 q 149 780 171 763 q 58 804 126 797 l 47 818 l 57 899 q 113 894 85 896 q 164 892 136 893 q 218 892 192 892 q 264 892 240 892 q 307 894 288 893 q 351 897 331 896 q 485 683 419 786 q 604 501 551 581 q 722 326 665 408 l 736 326 z "},"Ń":{"ha":1013,"x_min":47,"x_max":988,"o":"m 736 326 l 733 742 q 722 788 732 774 q 688 801 711 801 q 658 801 672 801 q 640 800 644 800 l 635 811 l 644 897 q 711 894 678 896 q 769 892 739 893 q 824 892 800 892 q 878 892 849 892 q 931 894 907 893 q 988 899 958 896 l 981 806 q 915 779 935 799 q 893 718 894 760 l 875 -19 l 728 -37 q 573 205 646 93 q 444 400 500 317 q 324 579 379 497 l 310 579 l 308 151 q 319 103 308 117 q 356 89 329 89 q 372 89 361 89 q 392 90 382 89 q 415 93 403 92 l 424 83 l 410 -6 q 343 -3 376 -4 q 284 -1 315 -1 q 231 0 253 0 q 172 -1 203 0 q 117 -6 142 -3 q 60 -11 88 -8 l 71 82 q 132 108 113 88 q 153 169 151 128 l 171 718 q 149 780 171 763 q 58 804 126 797 l 47 818 l 57 899 q 113 894 85 896 q 164 892 136 893 q 218 892 192 892 q 264 892 240 892 q 307 894 288 893 q 351 897 331 896 q 485 683 419 786 q 604 501 551 581 q 722 326 665 408 l 736 326 m 758 1058 q 658 1032 711 1047 q 557 1003 614 1019 q 440 968 500 988 l 422 981 l 404 1046 q 516 1096 461 1069 q 615 1143 571 1122 q 714 1190 667 1168 l 731 1183 l 767 1076 l 758 1058 z "},"Ň":{"ha":1013,"x_min":47,"x_max":988,"o":"m 736 326 l 733 742 q 722 788 732 774 q 688 801 711 801 q 658 801 672 801 q 640 800 644 800 l 635 811 l 644 897 q 711 894 678 896 q 769 892 739 893 q 824 892 800 892 q 878 892 849 892 q 931 894 907 893 q 988 899 958 896 l 981 806 q 915 779 935 799 q 893 718 894 760 l 875 -19 l 728 -37 q 573 205 646 93 q 444 400 500 317 q 324 579 379 497 l 310 579 l 308 151 q 319 103 308 117 q 356 89 329 89 q 372 89 361 89 q 392 90 382 89 q 415 93 403 92 l 424 83 l 410 -6 q 343 -3 376 -4 q 284 -1 315 -1 q 231 0 253 0 q 172 -1 203 0 q 117 -6 142 -3 q 60 -11 88 -8 l 71 82 q 132 108 113 88 q 153 169 151 128 l 171 718 q 149 780 171 763 q 58 804 126 797 l 47 818 l 57 899 q 113 894 85 896 q 164 892 136 893 q 218 892 192 892 q 264 892 240 892 q 307 894 288 893 q 351 897 331 896 q 485 683 419 786 q 604 501 551 581 q 722 326 665 408 l 736 326 m 756 1139 q 677 1081 715 1111 q 607 1025 639 1050 q 538 967 571 996 l 510 967 q 439 1025 475 996 q 369 1081 407 1050 q 292 1139 331 1111 l 325 1196 l 347 1201 q 445 1156 396 1178 q 524 1121 494 1133 q 602 1156 554 1133 q 699 1201 650 1178 l 721 1196 l 756 1139 z "},"Ņ":{"ha":1013,"x_min":47,"x_max":988,"o":"m 736 326 l 733 742 q 722 788 732 774 q 688 801 711 801 q 658 801 672 801 q 640 800 644 800 l 635 811 l 644 897 q 711 894 678 896 q 769 892 739 893 q 824 892 800 892 q 878 892 849 892 q 931 894 907 893 q 988 899 958 896 l 981 806 q 915 779 935 799 q 893 718 894 760 l 875 -19 l 728 -37 q 573 205 646 93 q 444 400 500 317 q 324 579 379 497 l 310 579 l 308 151 q 319 103 308 117 q 356 89 329 89 q 372 89 361 89 q 392 90 382 89 q 415 93 403 92 l 424 83 l 410 -6 q 343 -3 376 -4 q 284 -1 315 -1 q 231 0 253 0 q 172 -1 203 0 q 117 -6 142 -3 q 60 -11 88 -8 l 71 82 q 132 108 113 88 q 153 169 151 128 l 171 718 q 149 780 171 763 q 58 804 126 797 l 47 818 l 57 899 q 113 894 85 896 q 164 892 136 893 q 218 892 192 892 q 264 892 240 892 q 307 894 288 893 q 351 897 331 896 q 485 683 419 786 q 604 501 551 581 q 722 326 665 408 l 736 326 m 417 -119 q 471 -85 442 -100 q 526 -71 500 -71 q 595 -103 568 -71 q 622 -190 622 -135 q 606 -263 622 -228 q 560 -331 589 -299 q 495 -391 532 -362 q 418 -442 458 -419 l 367 -400 l 367 -376 q 434 -310 407 -349 q 461 -235 461 -271 q 447 -181 461 -207 q 413 -139 433 -156 l 417 -119 z "},"Ñ":{"ha":1013,"x_min":47,"x_max":988,"o":"m 736 326 l 733 742 q 722 788 732 774 q 688 801 711 801 q 658 801 672 801 q 640 800 644 800 l 635 811 l 644 897 q 711 894 678 896 q 769 892 739 893 q 824 892 800 892 q 878 892 849 892 q 931 894 907 893 q 988 899 958 896 l 981 806 q 915 779 935 799 q 893 718 894 760 l 875 -19 l 728 -37 q 573 205 646 93 q 444 400 500 317 q 324 579 379 497 l 310 579 l 308 151 q 319 103 308 117 q 356 89 329 89 q 372 89 361 89 q 392 90 382 89 q 415 93 403 92 l 424 83 l 410 -6 q 343 -3 376 -4 q 284 -1 315 -1 q 231 0 253 0 q 172 -1 203 0 q 117 -6 142 -3 q 60 -11 88 -8 l 71 82 q 132 108 113 88 q 153 169 151 128 l 171 718 q 149 780 171 763 q 58 804 126 797 l 47 818 l 57 899 q 113 894 85 896 q 164 892 136 893 q 218 892 192 892 q 264 892 240 892 q 307 894 288 893 q 351 897 331 896 q 485 683 419 786 q 604 501 551 581 q 722 326 665 408 l 736 326 m 331 954 l 276 1006 l 276 1021 l 385 1154 l 408 1160 q 454 1152 425 1160 q 514 1136 483 1144 q 572 1120 544 1128 q 615 1113 600 1113 q 643 1124 628 1113 q 672 1149 658 1135 q 706 1185 688 1164 l 721 1185 l 776 1133 l 776 1119 l 667 985 l 644 979 q 597 987 626 979 q 538 1003 568 994 q 479 1019 507 1011 q 436 1026 451 1026 q 408 1015 424 1026 q 378 990 392 1004 q 346 954 363 975 l 331 954 z "},"O":{"ha":936,"x_min":39,"x_max":897,"o":"m 472 104 q 626 181 571 104 q 681 400 681 257 q 622 680 681 586 q 456 774 564 774 q 307 697 360 774 q 254 478 254 621 q 311 199 254 293 q 472 104 368 104 m 438 -17 q 271 14 344 -17 q 146 101 197 44 q 67 240 94 158 q 39 422 39 321 q 72 622 39 532 q 164 775 104 711 q 308 874 224 839 q 494 908 392 908 q 664 878 589 908 q 791 792 739 849 q 870 656 843 736 q 897 474 897 575 q 865 272 897 363 q 772 118 832 182 q 626 19 711 54 q 438 -17 542 -17 z "},"Œ":{"ha":1306,"x_min":40,"x_max":1251,"o":"m 818 193 q 821 149 818 165 q 833 124 824 132 q 860 113 842 115 q 907 110 878 110 q 1010 115 971 110 q 1073 136 1050 119 q 1106 184 1096 153 q 1124 268 1117 215 l 1242 278 l 1251 264 q 1238 185 1244 226 q 1224 102 1231 149 q 1214 6 1218 56 l 1200 -10 q 1046 -4 1122 -7 q 903 1 979 -1 q 764 3 828 3 q 586 -6 669 3 q 436 -15 503 -15 q 272 15 344 -15 q 147 102 199 46 q 68 240 96 158 q 40 422 40 321 q 72 621 40 532 q 161 772 103 710 q 302 868 219 835 q 488 901 385 901 q 632 892 557 901 q 797 883 707 883 q 1051 891 939 883 q 1231 908 1164 899 l 1242 893 q 1228 815 1233 857 q 1217 734 1222 779 q 1210 640 1213 689 l 1083 632 q 1085 653 1083 643 q 1085 671 1085 661 q 1086 688 1086 681 q 1081 733 1086 717 q 1056 760 1075 750 q 1002 772 1038 769 q 908 775 967 775 q 869 774 883 775 q 848 767 856 772 q 838 753 840 763 q 836 729 836 744 l 826 514 l 956 513 q 999 514 972 513 q 1053 518 1026 515 q 1117 524 1083 521 l 1128 511 l 1108 392 q 1044 393 1076 392 q 985 395 1017 394 q 928 396 954 396 l 821 388 l 818 193 m 468 101 q 602 142 561 101 q 644 281 643 183 l 646 631 q 604 748 646 717 q 460 779 563 779 q 308 702 363 779 q 253 479 253 625 q 308 197 253 292 q 468 101 364 101 z "},"Ó":{"ha":936,"x_min":39,"x_max":897,"o":"m 472 104 q 626 181 571 104 q 681 400 681 257 q 622 680 681 586 q 456 774 564 774 q 307 697 360 774 q 254 478 254 621 q 311 199 254 293 q 472 104 368 104 m 438 -17 q 271 14 344 -17 q 146 101 197 44 q 67 240 94 158 q 39 422 39 321 q 72 622 39 532 q 164 775 104 711 q 308 874 224 839 q 494 908 392 908 q 664 878 589 908 q 791 792 739 849 q 870 656 843 736 q 897 474 897 575 q 865 272 897 363 q 772 118 832 182 q 626 19 711 54 q 438 -17 542 -17 m 697 1058 q 597 1032 650 1047 q 496 1003 553 1019 q 379 968 439 988 l 361 981 l 343 1046 q 455 1096 400 1069 q 554 1143 510 1122 q 653 1190 606 1168 l 669 1183 l 706 1076 l 697 1058 z "},"Ô":{"ha":936,"x_min":39,"x_max":897,"o":"m 472 104 q 626 181 571 104 q 681 400 681 257 q 622 680 681 586 q 456 774 564 774 q 307 697 360 774 q 254 478 254 621 q 311 199 254 293 q 472 104 368 104 m 438 -17 q 271 14 344 -17 q 146 101 197 44 q 67 240 94 158 q 39 422 39 321 q 72 622 39 532 q 164 775 104 711 q 308 874 224 839 q 494 908 392 908 q 664 878 589 908 q 791 792 739 849 q 870 656 843 736 q 897 474 897 575 q 865 272 897 363 q 772 118 832 182 q 626 19 711 54 q 438 -17 542 -17 m 232 1044 q 310 1103 271 1072 q 381 1160 349 1135 q 450 1217 417 1189 l 478 1217 q 497 1202 478 1218 q 548 1161 517 1186 q 618 1105 579 1136 q 696 1044 657 1074 l 663 988 l 640 982 q 542 1028 592 1006 q 464 1063 493 1050 q 385 1028 433 1050 q 289 982 338 1006 l 267 988 l 232 1044 z "},"Ö":{"ha":936,"x_min":39,"x_max":897,"o":"m 472 104 q 626 181 571 104 q 681 400 681 257 q 622 680 681 586 q 456 774 564 774 q 307 697 360 774 q 254 478 254 621 q 311 199 254 293 q 472 104 368 104 m 438 -17 q 271 14 344 -17 q 146 101 197 44 q 67 240 94 158 q 39 422 39 321 q 72 622 39 532 q 164 775 104 711 q 308 874 224 839 q 494 908 392 908 q 664 878 589 908 q 791 792 739 849 q 870 656 843 736 q 897 474 897 575 q 865 272 897 363 q 772 118 832 182 q 626 19 711 54 q 438 -17 542 -17 m 582 981 q 520 1004 542 981 q 499 1065 499 1028 q 524 1132 499 1106 q 593 1158 550 1158 q 654 1135 633 1158 q 675 1075 675 1111 q 649 1007 675 1033 q 582 981 624 981 m 333 981 q 272 1004 293 981 q 251 1065 251 1028 q 277 1132 251 1106 q 344 1158 303 1158 q 406 1135 385 1158 q 428 1075 428 1111 q 402 1007 428 1033 q 333 981 376 981 z "},"Ò":{"ha":936,"x_min":39,"x_max":897,"o":"m 472 104 q 626 181 571 104 q 681 400 681 257 q 622 680 681 586 q 456 774 564 774 q 307 697 360 774 q 254 478 254 621 q 311 199 254 293 q 472 104 368 104 m 438 -17 q 271 14 344 -17 q 146 101 197 44 q 67 240 94 158 q 39 422 39 321 q 72 622 39 532 q 164 775 104 711 q 308 874 224 839 q 494 908 392 908 q 664 878 589 908 q 791 792 739 849 q 870 656 843 736 q 897 474 897 575 q 865 272 897 363 q 772 118 832 182 q 626 19 711 54 q 438 -17 542 -17 m 231 1076 l 267 1183 l 283 1190 q 382 1143 331 1168 q 481 1096 426 1122 q 593 1046 536 1069 l 575 981 l 556 968 q 439 1003 496 988 q 338 1032 382 1019 q 238 1058 285 1047 l 231 1076 z "},"Ő":{"ha":936,"x_min":39,"x_max":897,"o":"m 472 104 q 626 181 571 104 q 681 400 681 257 q 622 680 681 586 q 456 774 564 774 q 307 697 360 774 q 254 478 254 621 q 311 199 254 293 q 472 104 368 104 m 438 -17 q 271 14 344 -17 q 146 101 197 44 q 67 240 94 158 q 39 422 39 321 q 72 622 39 532 q 164 775 104 711 q 308 874 224 839 q 494 908 392 908 q 664 878 589 908 q 791 792 739 849 q 870 656 843 736 q 897 474 897 575 q 865 272 897 363 q 772 118 832 182 q 626 19 711 54 q 438 -17 542 -17 m 557 1086 q 483 1044 521 1067 q 409 1001 450 1025 q 324 950 368 978 l 304 957 l 272 1004 q 348 1070 311 1038 q 415 1131 385 1103 q 482 1190 450 1161 l 499 1189 l 558 1103 l 557 1086 m 790 1081 q 717 1039 756 1061 q 642 996 683 1019 q 556 944 600 972 l 539 950 l 506 997 q 581 1063 544 1031 q 649 1124 618 1096 q 715 1183 683 1154 l 732 1181 l 792 1097 l 790 1081 z "},"Ō":{"ha":936,"x_min":39,"x_max":897,"o":"m 472 104 q 626 181 571 104 q 681 400 681 257 q 622 680 681 586 q 456 774 564 774 q 307 697 360 774 q 254 478 254 621 q 311 199 254 293 q 472 104 368 104 m 438 -17 q 271 14 344 -17 q 146 101 197 44 q 67 240 94 158 q 39 422 39 321 q 72 622 39 532 q 164 775 104 711 q 308 874 224 839 q 494 908 392 908 q 664 878 589 908 q 791 792 739 849 q 870 656 843 736 q 897 474 897 575 q 865 272 897 363 q 772 118 832 182 q 626 19 711 54 q 438 -17 542 -17 m 676 1092 l 660 985 l 464 983 q 398 983 432 983 q 336 982 364 982 l 271 982 l 256 999 l 275 1104 q 351 1103 314 1103 l 489 1103 q 545 1103 515 1103 q 603 1107 575 1104 q 665 1111 633 1108 l 676 1092 z "},"Ø":{"ha":936,"x_min":39,"x_max":897,"o":"m 183 65 q 76 212 113 122 q 39 422 39 301 q 72 622 39 532 q 164 775 104 711 q 308 874 224 839 q 494 908 392 908 q 660 879 586 908 l 742 1013 l 828 972 l 832 954 l 753 828 q 860 683 824 772 q 897 474 897 593 q 865 272 897 363 q 772 118 832 182 q 626 19 711 54 q 438 -17 542 -17 q 350 -9 392 -17 q 272 13 308 -1 l 175 -149 l 92 -108 l 88 -94 l 183 65 m 472 104 q 626 181 571 104 q 681 400 681 257 q 640 642 681 549 l 353 149 q 472 104 401 104 m 254 478 q 290 243 254 335 l 574 733 q 456 774 525 774 q 307 697 360 774 q 254 478 254 621 z "},"Õ":{"ha":936,"x_min":39,"x_max":897,"o":"m 472 104 q 626 181 571 104 q 681 400 681 257 q 622 680 681 586 q 456 774 564 774 q 307 697 360 774 q 254 478 254 621 q 311 199 254 293 q 472 104 368 104 m 438 -17 q 271 14 344 -17 q 146 101 197 44 q 67 240 94 158 q 39 422 39 321 q 72 622 39 532 q 164 775 104 711 q 308 874 224 839 q 494 908 392 908 q 664 878 589 908 q 791 792 739 849 q 870 656 843 736 q 897 474 897 575 q 865 272 897 363 q 772 118 832 182 q 626 19 711 54 q 438 -17 542 -17 m 269 954 l 215 1006 l 215 1021 l 324 1154 l 347 1160 q 393 1152 364 1160 q 453 1136 422 1144 q 511 1120 483 1128 q 554 1113 539 1113 q 582 1124 567 1113 q 611 1149 597 1135 q 644 1185 626 1164 l 660 1185 l 715 1133 l 715 1119 l 606 985 l 583 979 q 536 987 565 979 q 476 1003 507 994 q 418 1019 446 1011 q 375 1026 390 1026 q 347 1015 363 1026 q 317 990 331 1004 q 285 954 301 975 l 269 954 z "},"P":{"ha":801,"x_min":54,"x_max":796,"o":"m 74 893 q 106 893 86 893 q 151 892 126 893 q 201 892 175 892 q 249 892 226 892 q 302 892 268 892 q 372 894 336 893 q 460 899 413 896 q 622 876 557 899 q 725 815 686 853 q 780 730 764 778 q 796 631 796 682 q 769 511 796 568 q 696 410 742 454 q 590 341 650 367 q 464 315 529 315 l 346 315 l 344 213 q 347 150 344 174 q 356 113 349 126 q 375 95 363 100 q 408 90 388 90 q 428 90 418 90 q 449 92 439 90 q 469 94 460 93 l 475 86 l 461 -4 q 393 -3 426 -4 q 335 -1 365 -1 q 286 0 306 0 q 221 -1 260 0 q 145 -5 182 -3 q 82 -9 108 -7 q 54 -11 56 -11 l 65 83 q 141 117 121 93 q 161 199 161 140 l 163 726 q 153 786 163 771 q 118 801 144 801 q 102 801 111 801 q 86 800 93 800 q 69 799 78 799 l 63 810 l 74 893 m 471 422 q 597 611 597 449 q 549 739 597 699 q 393 779 500 779 q 369 776 374 779 q 363 754 364 772 q 354 599 357 681 q 349 439 351 518 l 471 422 z "},"Q":{"ha":943,"x_min":39,"x_max":1133,"o":"m 438 -17 q 271 14 344 -17 q 146 101 197 44 q 67 240 94 158 q 39 422 39 321 q 72 622 39 532 q 164 775 104 711 q 308 874 224 839 q 494 908 392 908 q 664 878 589 908 q 791 792 739 849 q 870 656 843 736 q 897 474 897 575 q 877 322 897 393 q 820 193 857 251 q 731 90 783 135 q 617 21 679 46 l 617 8 q 822 -109 731 -71 q 989 -147 913 -147 q 1034 -145 1013 -147 q 1072 -140 1056 -143 q 1107 -133 1090 -137 l 1118 -143 l 1133 -201 q 1054 -260 1090 -235 q 992 -299 1022 -282 q 947 -317 963 -317 q 859 -306 901 -317 q 762 -262 817 -294 q 630 -172 707 -231 q 438 -17 553 -112 m 472 104 q 626 181 571 104 q 681 400 681 257 q 622 680 681 586 q 456 774 564 774 q 307 697 360 774 q 254 478 254 621 q 311 199 254 293 q 472 104 368 104 z "},"R":{"ha":893,"x_min":50,"x_max":889,"o":"m 346 349 l 344 196 q 347 140 344 161 q 360 108 350 119 q 390 94 371 97 q 443 89 410 90 l 449 81 l 435 -6 q 415 -5 435 -6 q 365 -3 394 -4 q 304 -2 336 -3 q 249 -1 272 -1 q 182 -2 217 -1 q 118 -4 147 -3 q 50 -8 83 -6 l 63 85 q 141 116 121 93 q 161 199 161 139 l 163 733 q 153 788 163 774 q 118 801 144 801 q 102 801 111 801 q 86 800 93 800 q 69 799 78 799 l 63 810 l 74 894 q 140 893 107 893 q 198 892 168 892 q 249 892 228 892 q 306 892 269 892 q 376 894 342 893 q 461 899 417 896 q 706 838 621 899 q 790 660 790 776 q 742 509 790 576 q 604 394 694 442 l 725 200 q 799 108 764 138 q 879 79 835 79 l 889 67 l 879 -7 l 714 -22 q 563 107 622 -22 l 443 349 l 346 349 m 475 460 q 506 474 486 464 q 544 505 525 485 q 578 556 564 525 q 593 633 593 588 q 386 783 593 783 q 367 778 371 783 q 361 753 363 772 q 353 603 356 669 q 350 474 351 538 l 475 460 z "},"Ŕ":{"ha":893,"x_min":50,"x_max":889,"o":"m 346 349 l 344 196 q 347 140 344 161 q 360 108 350 119 q 390 94 371 97 q 443 89 410 90 l 449 81 l 435 -6 q 415 -5 435 -6 q 365 -3 394 -4 q 304 -2 336 -3 q 249 -1 272 -1 q 182 -2 217 -1 q 118 -4 147 -3 q 50 -8 83 -6 l 63 85 q 141 116 121 93 q 161 199 161 139 l 163 733 q 153 788 163 774 q 118 801 144 801 q 102 801 111 801 q 86 800 93 800 q 69 799 78 799 l 63 810 l 74 894 q 140 893 107 893 q 198 892 168 892 q 249 892 228 892 q 306 892 269 892 q 376 894 342 893 q 461 899 417 896 q 706 838 621 899 q 790 660 790 776 q 742 509 790 576 q 604 394 694 442 l 725 200 q 799 108 764 138 q 879 79 835 79 l 889 67 l 879 -7 l 714 -22 q 563 107 622 -22 l 443 349 l 346 349 m 475 460 q 506 474 486 464 q 544 505 525 485 q 578 556 564 525 q 593 633 593 588 q 386 783 593 783 q 367 778 371 783 q 361 753 363 772 q 353 603 356 669 q 350 474 351 538 l 475 460 m 682 1058 q 582 1032 635 1047 q 481 1003 538 1019 q 364 968 424 988 l 346 981 l 328 1046 q 440 1096 385 1069 q 539 1143 494 1122 q 638 1190 590 1168 l 654 1183 l 690 1076 l 682 1058 z "},"Ř":{"ha":893,"x_min":50,"x_max":889,"o":"m 346 349 l 344 196 q 347 140 344 161 q 360 108 350 119 q 390 94 371 97 q 443 89 410 90 l 449 81 l 435 -6 q 415 -5 435 -6 q 365 -3 394 -4 q 304 -2 336 -3 q 249 -1 272 -1 q 182 -2 217 -1 q 118 -4 147 -3 q 50 -8 83 -6 l 63 85 q 141 116 121 93 q 161 199 161 139 l 163 733 q 153 788 163 774 q 118 801 144 801 q 102 801 111 801 q 86 800 93 800 q 69 799 78 799 l 63 810 l 74 894 q 140 893 107 893 q 198 892 168 892 q 249 892 228 892 q 306 892 269 892 q 376 894 342 893 q 461 899 417 896 q 706 838 621 899 q 790 660 790 776 q 742 509 790 576 q 604 394 694 442 l 725 200 q 799 108 764 138 q 879 79 835 79 l 889 67 l 879 -7 l 714 -22 q 563 107 622 -22 l 443 349 l 346 349 m 475 460 q 506 474 486 464 q 544 505 525 485 q 578 556 564 525 q 593 633 593 588 q 386 783 593 783 q 367 778 371 783 q 361 753 363 772 q 353 603 356 669 q 350 474 351 538 l 475 460 m 681 1139 q 602 1081 640 1111 q 532 1025 564 1050 q 463 967 496 996 l 435 967 q 364 1025 400 996 q 294 1081 332 1050 q 217 1139 256 1111 l 250 1196 l 272 1201 q 370 1156 321 1178 q 449 1121 419 1133 q 527 1156 479 1133 q 624 1201 575 1178 l 646 1196 l 681 1139 z "},"Ŗ":{"ha":893,"x_min":50,"x_max":889,"o":"m 346 349 l 344 196 q 347 140 344 161 q 360 108 350 119 q 390 94 371 97 q 443 89 410 90 l 449 81 l 435 -6 q 415 -5 435 -6 q 365 -3 394 -4 q 304 -2 336 -3 q 249 -1 272 -1 q 182 -2 217 -1 q 118 -4 147 -3 q 50 -8 83 -6 l 63 85 q 141 116 121 93 q 161 199 161 139 l 163 733 q 153 788 163 774 q 118 801 144 801 q 102 801 111 801 q 86 800 93 800 q 69 799 78 799 l 63 810 l 74 894 q 140 893 107 893 q 198 892 168 892 q 249 892 228 892 q 306 892 269 892 q 376 894 342 893 q 461 899 417 896 q 706 838 621 899 q 790 660 790 776 q 742 509 790 576 q 604 394 694 442 l 725 200 q 799 108 764 138 q 879 79 835 79 l 889 67 l 879 -7 l 714 -22 q 563 107 622 -22 l 443 349 l 346 349 m 475 460 q 506 474 486 464 q 544 505 525 485 q 578 556 564 525 q 593 633 593 588 q 386 783 593 783 q 367 778 371 783 q 361 753 363 772 q 353 603 356 669 q 350 474 351 538 l 475 460 m 361 -119 q 415 -85 386 -100 q 471 -71 444 -71 q 540 -103 513 -71 q 567 -190 567 -135 q 550 -263 567 -228 q 505 -331 533 -299 q 440 -391 476 -362 q 363 -442 403 -419 l 311 -400 l 311 -376 q 378 -310 351 -349 q 406 -235 406 -271 q 392 -181 406 -207 q 357 -139 378 -156 l 361 -119 z "},"S":{"ha":750,"x_min":50,"x_max":693,"o":"m 306 -17 q 206 -9 250 -17 q 129 10 161 -1 q 61 36 92 21 l 50 56 q 61 131 56 92 q 68 206 65 164 q 72 292 71 249 l 189 301 q 197 207 189 244 q 222 147 204 169 q 268 116 239 125 q 342 107 297 107 q 447 136 408 107 q 486 214 486 165 q 469 265 486 243 q 422 307 451 288 q 356 344 393 326 q 281 381 319 361 q 201 423 240 400 q 130 476 161 446 q 80 543 99 506 q 61 631 61 581 q 89 742 61 692 q 165 830 117 793 q 282 888 214 867 q 432 908 350 908 q 528 902 485 908 q 603 889 571 896 q 671 871 639 881 l 681 853 q 668 781 674 819 q 656 704 663 747 q 647 614 650 661 l 542 606 l 529 615 l 529 629 q 530 644 529 636 q 531 664 531 653 q 500 751 531 725 q 396 776 469 776 q 301 749 338 776 q 264 678 264 722 q 279 630 264 651 q 319 590 294 608 q 377 556 344 572 q 446 522 410 539 q 533 478 489 501 q 613 424 578 454 q 671 355 649 394 q 693 264 693 315 q 665 149 693 200 q 587 60 638 97 q 465 3 536 24 q 306 -17 393 -17 z "},"Ś":{"ha":750,"x_min":50,"x_max":693,"o":"m 306 -17 q 206 -9 250 -17 q 129 10 161 -1 q 61 36 92 21 l 50 56 q 61 131 56 92 q 68 206 65 164 q 72 292 71 249 l 189 301 q 197 207 189 244 q 222 147 204 169 q 268 116 239 125 q 342 107 297 107 q 447 136 408 107 q 486 214 486 165 q 469 265 486 243 q 422 307 451 288 q 356 344 393 326 q 281 381 319 361 q 201 423 240 400 q 130 476 161 446 q 80 543 99 506 q 61 631 61 581 q 89 742 61 692 q 165 830 117 793 q 282 888 214 867 q 432 908 350 908 q 528 902 485 908 q 603 889 571 896 q 671 871 639 881 l 681 853 q 668 781 674 819 q 656 704 663 747 q 647 614 650 661 l 542 606 l 529 615 l 529 629 q 530 644 529 636 q 531 664 531 653 q 500 751 531 725 q 396 776 469 776 q 301 749 338 776 q 264 678 264 722 q 279 630 264 651 q 319 590 294 608 q 377 556 344 572 q 446 522 410 539 q 533 478 489 501 q 613 424 578 454 q 671 355 649 394 q 693 264 693 315 q 665 149 693 200 q 587 60 638 97 q 465 3 536 24 q 306 -17 393 -17 m 569 1058 q 469 1032 522 1047 q 368 1003 425 1019 q 251 968 311 988 l 233 981 l 215 1046 q 327 1096 272 1069 q 426 1143 382 1122 q 525 1190 478 1168 l 542 1183 l 578 1076 l 569 1058 z "},"Š":{"ha":750,"x_min":50,"x_max":693,"o":"m 306 -17 q 206 -9 250 -17 q 129 10 161 -1 q 61 36 92 21 l 50 56 q 61 131 56 92 q 68 206 65 164 q 72 292 71 249 l 189 301 q 197 207 189 244 q 222 147 204 169 q 268 116 239 125 q 342 107 297 107 q 447 136 408 107 q 486 214 486 165 q 469 265 486 243 q 422 307 451 288 q 356 344 393 326 q 281 381 319 361 q 201 423 240 400 q 130 476 161 446 q 80 543 99 506 q 61 631 61 581 q 89 742 61 692 q 165 830 117 793 q 282 888 214 867 q 432 908 350 908 q 528 902 485 908 q 603 889 571 896 q 671 871 639 881 l 681 853 q 668 781 674 819 q 656 704 663 747 q 647 614 650 661 l 542 606 l 529 615 l 529 629 q 530 644 529 636 q 531 664 531 653 q 500 751 531 725 q 396 776 469 776 q 301 749 338 776 q 264 678 264 722 q 279 630 264 651 q 319 590 294 608 q 377 556 344 572 q 446 522 410 539 q 533 478 489 501 q 613 424 578 454 q 671 355 649 394 q 693 264 693 315 q 665 149 693 200 q 587 60 638 97 q 465 3 536 24 q 306 -17 393 -17 m 568 1139 q 490 1081 528 1111 q 419 1025 451 1050 q 350 967 383 996 l 322 967 q 251 1025 288 996 q 181 1081 219 1050 q 104 1139 143 1111 l 138 1196 l 160 1201 q 258 1156 208 1178 q 336 1121 307 1133 q 415 1156 367 1133 q 511 1201 463 1178 l 533 1196 l 568 1139 z "},"Ş":{"ha":750,"x_min":50,"x_max":693,"o":"m 265 -15 q 181 -4 218 -12 q 117 14 144 4 q 61 36 85 24 l 50 56 q 61 131 56 92 q 68 206 65 164 q 72 292 71 249 l 189 301 q 197 207 189 244 q 222 147 204 169 q 268 116 239 125 q 342 107 297 107 q 447 136 408 107 q 486 214 486 165 q 469 265 486 243 q 422 307 451 288 q 356 344 393 326 q 281 381 319 361 q 201 423 240 400 q 130 476 161 446 q 80 543 99 506 q 61 631 61 581 q 89 742 61 692 q 165 830 117 793 q 282 888 214 867 q 432 908 350 908 q 528 902 485 908 q 603 889 571 896 q 671 871 639 881 l 681 853 q 668 781 674 819 q 656 704 663 747 q 647 614 650 661 l 542 606 l 529 615 l 529 629 q 530 644 529 636 q 531 664 531 653 q 500 751 531 725 q 396 776 469 776 q 301 749 338 776 q 264 678 264 722 q 279 630 264 651 q 319 590 294 608 q 377 556 344 572 q 446 522 410 539 q 533 478 489 501 q 613 424 578 454 q 671 355 649 394 q 693 264 693 315 q 668 153 693 203 q 596 67 643 103 q 483 10 549 31 q 336 -15 417 -11 l 324 -61 q 367 -87 343 -72 q 410 -119 390 -101 q 444 -156 431 -136 q 457 -196 457 -175 q 442 -248 457 -224 q 400 -290 426 -272 q 340 -319 374 -308 q 272 -329 307 -329 q 235 -325 254 -329 q 201 -313 217 -321 q 174 -294 185 -306 q 164 -269 164 -283 q 169 -250 164 -261 q 181 -227 174 -239 q 198 -203 189 -215 q 215 -182 207 -192 l 228 -182 q 249 -240 229 -221 q 300 -260 268 -260 q 340 -249 324 -260 q 356 -218 356 -237 q 344 -193 356 -206 q 317 -168 333 -181 q 278 -143 300 -156 q 236 -119 257 -131 l 265 -15 z "},"Ș":{"ha":750,"x_min":50,"x_max":693,"o":"m 306 -17 q 206 -9 250 -17 q 129 10 161 -1 q 61 36 92 21 l 50 56 q 61 131 56 92 q 68 206 65 164 q 72 292 71 249 l 189 301 q 197 207 189 244 q 222 147 204 169 q 268 116 239 125 q 342 107 297 107 q 447 136 408 107 q 486 214 486 165 q 469 265 486 243 q 422 307 451 288 q 356 344 393 326 q 281 381 319 361 q 201 423 240 400 q 130 476 161 446 q 80 543 99 506 q 61 631 61 581 q 89 742 61 692 q 165 830 117 793 q 282 888 214 867 q 432 908 350 908 q 528 902 485 908 q 603 889 571 896 q 671 871 639 881 l 681 853 q 668 781 674 819 q 656 704 663 747 q 647 614 650 661 l 542 606 l 529 615 l 529 629 q 530 644 529 636 q 531 664 531 653 q 500 751 531 725 q 396 776 469 776 q 301 749 338 776 q 264 678 264 722 q 279 630 264 651 q 319 590 294 608 q 377 556 344 572 q 446 522 410 539 q 533 478 489 501 q 613 424 578 454 q 671 355 649 394 q 693 264 693 315 q 665 149 693 200 q 587 60 638 97 q 465 3 536 24 q 306 -17 393 -17 m 204 -119 q 258 -85 229 -100 q 314 -71 288 -71 q 383 -103 356 -71 q 410 -190 410 -135 q 393 -263 410 -228 q 348 -331 376 -299 q 283 -391 319 -362 q 206 -442 246 -419 l 154 -400 l 154 -376 q 222 -310 194 -349 q 249 -235 249 -271 q 235 -181 249 -207 q 200 -139 221 -156 l 204 -119 z "},"T":{"ha":790,"x_min":7,"x_max":782,"o":"m 300 782 q 211 774 243 781 q 162 749 179 768 q 138 696 144 731 q 124 601 131 661 l 7 593 q 14 692 10 640 q 19 788 17 735 q 22 892 21 840 l 38 907 l 178 892 l 610 892 l 753 907 l 768 892 q 772 788 769 839 q 776 694 774 736 q 782 601 779 646 l 665 593 q 650 694 657 657 q 626 749 643 731 q 580 774 610 768 q 497 782 550 781 q 492 666 494 736 q 487 515 489 596 q 483 349 485 435 q 482 188 482 264 q 499 114 482 135 q 558 93 517 93 q 587 93 574 93 q 611 94 600 93 q 632 97 622 96 l 638 90 l 625 -6 q 531 -3 576 -4 q 451 -1 492 -1 q 383 0 411 0 q 314 -1 354 0 q 238 -4 274 -3 q 150 -8 194 -7 l 161 83 q 234 94 207 88 q 276 117 261 101 q 295 158 290 132 q 300 229 300 185 l 300 782 z "},"Ŧ":{"ha":790,"x_min":7,"x_max":782,"o":"m 300 383 q 255 382 276 382 q 217 382 233 382 l 181 382 l 167 396 l 178 463 q 215 461 196 461 l 300 461 l 300 782 q 211 774 243 781 q 162 749 179 768 q 138 696 144 731 q 124 601 131 661 l 7 593 q 14 692 10 640 q 19 788 17 735 q 22 892 21 840 l 38 907 l 178 892 l 610 892 l 753 907 l 768 892 q 772 788 769 839 q 776 694 774 736 q 782 601 779 646 l 665 593 q 650 694 657 657 q 626 749 643 731 q 580 774 610 768 q 497 782 550 781 q 490 643 493 728 q 485 463 488 558 q 522 463 504 463 q 556 465 540 464 q 588 468 572 467 l 607 449 l 601 385 l 483 383 q 482 283 482 333 q 482 188 482 233 q 499 114 482 135 q 558 93 517 93 q 587 93 574 93 q 611 94 600 93 q 632 97 622 96 l 638 90 l 625 -6 q 531 -3 576 -4 q 451 -1 492 -1 q 383 0 411 0 q 314 -1 354 0 q 238 -4 274 -3 q 150 -8 194 -7 l 161 83 q 234 94 207 88 q 276 117 261 101 q 295 158 290 132 q 300 229 300 185 l 300 383 z "},"Ť":{"ha":790,"x_min":7,"x_max":782,"o":"m 300 782 q 211 774 243 781 q 162 749 179 768 q 138 696 144 731 q 124 601 131 661 l 7 593 q 14 692 10 640 q 19 788 17 735 q 22 892 21 840 l 38 907 l 178 892 l 610 892 l 753 907 l 768 892 q 772 788 769 839 q 776 694 774 736 q 782 601 779 646 l 665 593 q 650 694 657 657 q 626 749 643 731 q 580 774 610 768 q 497 782 550 781 q 492 666 494 736 q 487 515 489 596 q 483 349 485 435 q 482 188 482 264 q 499 114 482 135 q 558 93 517 93 q 587 93 574 93 q 611 94 600 93 q 632 97 622 96 l 638 90 l 625 -6 q 531 -3 576 -4 q 451 -1 492 -1 q 383 0 411 0 q 314 -1 354 0 q 238 -4 274 -3 q 150 -8 194 -7 l 161 83 q 234 94 207 88 q 276 117 261 101 q 295 158 290 132 q 300 229 300 185 l 300 782 m 632 1139 q 553 1081 592 1111 q 483 1025 515 1050 q 414 967 447 996 l 386 967 q 315 1025 351 996 q 245 1081 283 1050 q 168 1139 207 1111 l 201 1196 l 224 1201 q 322 1156 272 1178 q 400 1121 371 1133 q 478 1156 431 1133 q 575 1201 526 1178 l 597 1196 l 632 1139 z "},"Ţ":{"ha":790,"x_min":7,"x_max":782,"o":"m 356 0 q 289 -2 324 -1 q 222 -4 254 -3 q 150 -8 186 -6 l 161 83 q 234 94 207 88 q 276 117 261 101 q 295 158 290 132 q 300 229 300 185 l 300 782 q 211 774 243 781 q 162 749 179 768 q 138 696 144 731 q 124 601 131 661 l 7 593 q 14 692 10 640 q 19 788 17 735 q 22 892 21 840 l 38 907 l 178 892 l 610 892 l 753 907 l 768 892 q 772 788 769 839 q 776 694 774 736 q 782 601 779 646 l 665 593 q 650 694 657 657 q 626 749 643 731 q 580 774 610 768 q 497 782 550 781 q 492 666 494 736 q 487 515 489 596 q 483 349 485 435 q 482 188 482 264 q 499 114 482 135 q 558 93 517 93 q 587 93 574 93 q 611 94 600 93 q 632 97 622 96 l 638 90 l 625 -6 q 557 -3 592 -4 q 492 -1 528 -1 q 426 0 457 -1 l 410 -61 q 453 -87 429 -72 q 497 -119 476 -101 q 530 -156 517 -136 q 543 -196 543 -175 q 528 -248 543 -224 q 486 -290 513 -272 q 426 -319 460 -308 q 358 -329 393 -329 q 322 -325 340 -329 q 287 -313 303 -321 q 260 -294 271 -306 q 250 -269 250 -283 q 255 -250 250 -261 q 267 -227 260 -239 q 284 -203 275 -215 q 301 -182 293 -192 l 314 -182 q 335 -240 315 -221 q 386 -260 354 -260 q 426 -249 410 -260 q 442 -218 442 -237 q 431 -193 442 -206 q 403 -168 419 -181 q 365 -143 386 -156 q 322 -119 343 -131 l 356 0 z "},"Þ":{"ha":796,"x_min":50,"x_max":779,"o":"m 361 744 q 359 725 360 732 q 358 711 358 718 l 464 711 q 779 467 779 711 q 753 361 779 410 q 682 276 728 313 q 575 220 636 240 q 443 200 514 200 l 344 200 l 344 158 q 355 103 344 117 q 397 90 365 90 q 423 90 411 90 q 444 92 435 90 q 464 94 456 93 l 469 85 l 457 -4 q 375 -3 414 -4 q 304 -1 340 -1 q 244 0 268 0 q 181 -2 215 0 q 118 -7 147 -4 q 50 -12 83 -10 l 60 78 q 110 92 90 83 q 140 113 129 100 q 156 146 151 126 q 161 194 161 165 l 163 729 q 153 787 163 772 q 113 801 143 801 q 97 801 106 801 q 81 800 88 800 l 64 800 l 57 811 l 67 893 q 103 893 81 893 q 152 892 125 893 q 208 892 179 892 q 261 892 236 892 q 317 892 285 892 q 382 896 350 893 q 458 901 418 899 l 450 808 q 406 799 422 804 q 379 788 389 794 q 366 770 369 781 q 361 744 363 760 m 353 579 q 348 435 350 503 q 346 322 346 367 q 406 309 372 315 q 461 303 440 303 q 582 453 582 321 q 535 564 582 529 q 385 599 488 599 q 360 594 365 599 q 353 579 354 590 z "},"U":{"ha":910,"x_min":25,"x_max":886,"o":"m 304 328 q 349 167 304 224 q 476 110 393 110 q 646 290 646 110 q 646 335 646 307 q 645 398 646 364 q 644 469 644 432 q 643 543 643 507 q 640 726 642 629 q 631 787 639 772 q 596 801 622 801 q 581 801 589 801 q 567 800 574 800 q 550 799 558 799 l 547 804 l 558 896 q 619 893 589 894 q 673 892 644 892 q 721 892 701 892 q 777 892 747 892 q 831 896 807 893 q 886 900 858 897 l 878 807 q 835 796 851 801 q 811 783 819 790 q 800 765 803 776 q 797 738 797 754 l 797 306 q 706 66 797 149 q 439 -17 614 -17 q 117 283 117 -17 l 117 726 q 108 787 117 772 q 72 801 100 801 q 58 801 65 801 q 44 800 51 800 q 28 799 36 799 l 25 804 l 38 896 q 107 893 71 894 q 172 892 138 892 q 236 892 206 892 q 285 892 257 892 q 340 896 314 893 q 401 900 371 897 l 392 806 q 332 784 347 800 q 314 732 317 768 l 304 328 z "},"Ú":{"ha":910,"x_min":25,"x_max":886,"o":"m 304 328 q 349 167 304 224 q 476 110 393 110 q 646 290 646 110 q 646 335 646 307 q 645 398 646 364 q 644 469 644 432 q 643 543 643 507 q 640 726 642 629 q 631 787 639 772 q 596 801 622 801 q 581 801 589 801 q 567 800 574 800 q 550 799 558 799 l 547 804 l 558 896 q 619 893 589 894 q 673 892 644 892 q 721 892 701 892 q 777 892 747 892 q 831 896 807 893 q 886 900 858 897 l 878 807 q 835 796 851 801 q 811 783 819 790 q 800 765 803 776 q 797 738 797 754 l 797 306 q 706 66 797 149 q 439 -17 614 -17 q 117 283 117 -17 l 117 726 q 108 787 117 772 q 72 801 100 801 q 58 801 65 801 q 44 800 51 800 q 28 799 36 799 l 25 804 l 38 896 q 107 893 71 894 q 172 892 138 892 q 236 892 206 892 q 285 892 257 892 q 340 896 314 893 q 401 900 371 897 l 392 806 q 332 784 347 800 q 314 732 317 768 l 304 328 m 706 1058 q 606 1032 658 1047 q 504 1003 561 1019 q 388 968 447 988 l 369 981 l 351 1046 q 463 1096 408 1069 q 563 1143 518 1122 q 661 1190 614 1168 l 678 1183 l 714 1076 l 706 1058 z "},"Û":{"ha":910,"x_min":25,"x_max":886,"o":"m 304 328 q 349 167 304 224 q 476 110 393 110 q 646 290 646 110 q 646 335 646 307 q 645 398 646 364 q 644 469 644 432 q 643 543 643 507 q 640 726 642 629 q 631 787 639 772 q 596 801 622 801 q 581 801 589 801 q 567 800 574 800 q 550 799 558 799 l 547 804 l 558 896 q 619 893 589 894 q 673 892 644 892 q 721 892 701 892 q 777 892 747 892 q 831 896 807 893 q 886 900 858 897 l 878 807 q 835 796 851 801 q 811 783 819 790 q 800 765 803 776 q 797 738 797 754 l 797 306 q 706 66 797 149 q 439 -17 614 -17 q 117 283 117 -17 l 117 726 q 108 787 117 772 q 72 801 100 801 q 58 801 65 801 q 44 800 51 800 q 28 799 36 799 l 25 804 l 38 896 q 107 893 71 894 q 172 892 138 892 q 236 892 206 892 q 285 892 257 892 q 340 896 314 893 q 401 900 371 897 l 392 806 q 332 784 347 800 q 314 732 317 768 l 304 328 m 242 1044 q 319 1103 281 1072 q 390 1160 358 1135 q 460 1217 426 1189 l 488 1217 q 507 1202 488 1218 q 558 1161 526 1186 q 628 1105 589 1136 q 706 1044 667 1074 l 672 988 l 650 982 q 552 1028 601 1006 q 474 1063 503 1050 q 395 1028 443 1050 q 299 982 347 1006 l 276 988 l 242 1044 z "},"Ü":{"ha":910,"x_min":25,"x_max":886,"o":"m 304 328 q 349 167 304 224 q 476 110 393 110 q 646 290 646 110 q 646 335 646 307 q 645 398 646 364 q 644 469 644 432 q 643 543 643 507 q 640 726 642 629 q 631 787 639 772 q 596 801 622 801 q 581 801 589 801 q 567 800 574 800 q 550 799 558 799 l 547 804 l 558 896 q 619 893 589 894 q 673 892 644 892 q 721 892 701 892 q 777 892 747 892 q 831 896 807 893 q 886 900 858 897 l 878 807 q 835 796 851 801 q 811 783 819 790 q 800 765 803 776 q 797 738 797 754 l 797 306 q 706 66 797 149 q 439 -17 614 -17 q 117 283 117 -17 l 117 726 q 108 787 117 772 q 72 801 100 801 q 58 801 65 801 q 44 800 51 800 q 28 799 36 799 l 25 804 l 38 896 q 107 893 71 894 q 172 892 138 892 q 236 892 206 892 q 285 892 257 892 q 340 896 314 893 q 401 900 371 897 l 392 806 q 332 784 347 800 q 314 732 317 768 l 304 328 m 590 981 q 528 1004 550 981 q 507 1065 507 1028 q 533 1132 507 1106 q 601 1158 558 1158 q 663 1135 642 1158 q 683 1075 683 1111 q 658 1007 683 1033 q 590 981 632 981 m 342 981 q 281 1004 301 981 q 260 1065 260 1028 q 285 1132 260 1106 q 353 1158 311 1158 q 415 1135 393 1158 q 436 1075 436 1111 q 410 1007 436 1033 q 342 981 385 981 z "},"Ù":{"ha":910,"x_min":25,"x_max":886,"o":"m 304 328 q 349 167 304 224 q 476 110 393 110 q 646 290 646 110 q 646 335 646 307 q 645 398 646 364 q 644 469 644 432 q 643 543 643 507 q 640 726 642 629 q 631 787 639 772 q 596 801 622 801 q 581 801 589 801 q 567 800 574 800 q 550 799 558 799 l 547 804 l 558 896 q 619 893 589 894 q 673 892 644 892 q 721 892 701 892 q 777 892 747 892 q 831 896 807 893 q 886 900 858 897 l 878 807 q 835 796 851 801 q 811 783 819 790 q 800 765 803 776 q 797 738 797 754 l 797 306 q 706 66 797 149 q 439 -17 614 -17 q 117 283 117 -17 l 117 726 q 108 787 117 772 q 72 801 100 801 q 58 801 65 801 q 44 800 51 800 q 28 799 36 799 l 25 804 l 38 896 q 107 893 71 894 q 172 892 138 892 q 236 892 206 892 q 285 892 257 892 q 340 896 314 893 q 401 900 371 897 l 392 806 q 332 784 347 800 q 314 732 317 768 l 304 328 m 239 1076 l 275 1183 l 292 1190 q 390 1143 339 1168 q 490 1096 435 1122 q 601 1046 544 1069 l 583 981 l 564 968 q 447 1003 504 988 q 346 1032 390 1019 q 246 1058 293 1047 l 239 1076 z "},"Ű":{"ha":910,"x_min":25,"x_max":886,"o":"m 304 328 q 349 167 304 224 q 476 110 393 110 q 646 290 646 110 q 646 335 646 307 q 645 398 646 364 q 644 469 644 432 q 643 543 643 507 q 640 726 642 629 q 631 787 639 772 q 596 801 622 801 q 581 801 589 801 q 567 800 574 800 q 550 799 558 799 l 547 804 l 558 896 q 619 893 589 894 q 673 892 644 892 q 721 892 701 892 q 777 892 747 892 q 831 896 807 893 q 886 900 858 897 l 878 807 q 835 796 851 801 q 811 783 819 790 q 800 765 803 776 q 797 738 797 754 l 797 306 q 706 66 797 149 q 439 -17 614 -17 q 117 283 117 -17 l 117 726 q 108 787 117 772 q 72 801 100 801 q 58 801 65 801 q 44 800 51 800 q 28 799 36 799 l 25 804 l 38 896 q 107 893 71 894 q 172 892 138 892 q 236 892 206 892 q 285 892 257 892 q 340 896 314 893 q 401 900 371 897 l 392 806 q 332 784 347 800 q 314 732 317 768 l 304 328 m 567 1086 q 493 1044 531 1067 q 419 1001 460 1025 q 333 950 378 978 l 314 957 l 282 1004 q 358 1070 321 1038 q 425 1131 394 1103 q 492 1190 460 1161 l 508 1189 l 568 1103 l 567 1086 m 800 1081 q 726 1039 765 1061 q 651 996 693 1019 q 565 944 610 972 l 549 950 l 515 997 q 591 1063 554 1031 q 658 1124 628 1096 q 725 1183 693 1154 l 742 1181 l 801 1097 l 800 1081 z "},"Ū":{"ha":910,"x_min":25,"x_max":886,"o":"m 304 328 q 349 167 304 224 q 476 110 393 110 q 646 290 646 110 q 646 335 646 307 q 645 398 646 364 q 644 469 644 432 q 643 543 643 507 q 640 726 642 629 q 631 787 639 772 q 596 801 622 801 q 581 801 589 801 q 567 800 574 800 q 550 799 558 799 l 547 804 l 558 896 q 619 893 589 894 q 673 892 644 892 q 721 892 701 892 q 777 892 747 892 q 831 896 807 893 q 886 900 858 897 l 878 807 q 835 796 851 801 q 811 783 819 790 q 800 765 803 776 q 797 738 797 754 l 797 306 q 706 66 797 149 q 439 -17 614 -17 q 117 283 117 -17 l 117 726 q 108 787 117 772 q 72 801 100 801 q 58 801 65 801 q 44 800 51 800 q 28 799 36 799 l 25 804 l 38 896 q 107 893 71 894 q 172 892 138 892 q 236 892 206 892 q 285 892 257 892 q 340 896 314 893 q 401 900 371 897 l 392 806 q 332 784 347 800 q 314 732 317 768 l 304 328 m 685 1092 l 668 985 l 472 983 q 406 983 440 983 q 344 982 372 982 l 279 982 l 264 999 l 283 1104 q 360 1103 322 1103 l 497 1103 q 553 1103 524 1103 q 611 1107 583 1104 q 674 1111 642 1108 l 685 1092 z "},"Ų":{"ha":910,"x_min":25,"x_max":886,"o":"m 747 -243 q 703 -281 726 -264 q 658 -311 683 -296 q 606 -335 632 -326 q 483 -301 528 -335 q 439 -208 439 -267 q 467 -120 439 -167 q 561 -3 494 -74 q 439 -17 510 -17 q 117 283 117 -17 l 117 726 q 108 787 117 772 q 72 801 100 801 q 58 801 65 801 q 44 800 51 800 q 28 799 36 799 l 25 804 l 38 896 q 107 893 71 894 q 172 892 138 892 q 236 892 206 892 q 285 892 257 892 q 340 896 314 893 q 401 900 371 897 l 392 806 q 332 784 347 800 q 314 732 317 768 l 304 328 q 349 166 304 222 q 476 110 393 110 q 646 290 646 110 q 646 335 646 307 q 645 398 646 364 q 644 469 644 432 q 643 543 643 507 q 640 726 642 629 q 631 787 639 772 q 596 801 622 801 q 581 801 589 801 q 567 800 574 800 q 550 799 558 799 l 547 804 l 558 896 q 619 893 589 894 q 673 892 644 892 q 721 892 701 892 q 777 892 747 892 q 831 896 807 893 q 886 900 858 897 l 878 807 q 835 796 851 801 q 811 783 819 790 q 800 765 803 776 q 797 738 797 754 l 797 306 q 775 176 797 233 q 708 67 753 118 q 628 -27 658 10 q 581 -89 597 -64 q 558 -133 564 -114 q 553 -169 553 -151 q 572 -218 553 -200 q 622 -236 590 -236 q 657 -231 640 -236 q 689 -219 674 -226 q 721 -203 704 -212 l 747 -243 z "},"Ů":{"ha":910,"x_min":25,"x_max":886,"o":"m 304 328 q 349 167 304 224 q 476 110 393 110 q 646 290 646 110 q 646 335 646 307 q 645 398 646 364 q 644 469 644 432 q 643 543 643 507 q 640 726 642 629 q 631 787 639 772 q 596 801 622 801 q 581 801 589 801 q 567 800 574 800 q 550 799 558 799 l 547 804 l 558 896 q 619 893 589 894 q 673 892 644 892 q 721 892 701 892 q 777 892 747 892 q 831 896 807 893 q 886 900 858 897 l 878 807 q 835 796 851 801 q 811 783 819 790 q 800 765 803 776 q 797 738 797 754 l 797 306 q 706 66 797 149 q 439 -17 614 -17 q 117 283 117 -17 l 117 726 q 108 787 117 772 q 72 801 100 801 q 58 801 65 801 q 44 800 51 800 q 28 799 36 799 l 25 804 l 38 896 q 107 893 71 894 q 172 892 138 892 q 236 892 206 892 q 285 892 257 892 q 340 896 314 893 q 401 900 371 897 l 392 806 q 332 784 347 800 q 314 732 317 768 l 304 328 m 475 1015 q 493 1017 483 1015 q 511 1024 503 1019 q 525 1039 519 1029 q 531 1065 531 1049 q 515 1108 531 1092 q 467 1124 499 1124 q 426 1110 439 1124 q 413 1074 413 1097 q 434 1028 413 1042 q 475 1015 456 1015 m 465 942 q 374 976 406 942 q 343 1068 343 1011 q 379 1163 343 1125 q 476 1200 415 1200 q 533 1190 510 1200 q 572 1163 557 1179 q 593 1124 586 1146 q 600 1079 600 1101 q 591 1028 600 1053 q 565 984 582 1003 q 522 953 547 965 q 465 942 497 942 z "},"V":{"ha":868,"x_min":-10,"x_max":872,"o":"m 100 715 q 63 779 88 760 q -4 801 39 799 l -10 811 l 0 894 q 65 893 33 893 q 122 892 93 892 q 175 892 151 892 q 256 893 214 892 q 332 897 297 894 q 411 903 372 900 l 419 892 l 413 807 q 357 801 378 804 q 324 792 336 797 q 309 777 313 786 q 306 754 306 768 q 311 715 306 744 q 325 643 317 685 q 344 551 333 601 q 368 449 356 500 q 432 182 396 328 l 453 182 q 479 255 463 206 q 515 365 496 304 q 555 492 535 426 q 591 613 575 557 q 617 708 607 668 q 628 760 628 749 q 613 793 628 783 q 557 803 597 803 l 503 803 l 496 813 l 506 899 q 575 894 539 896 q 642 892 606 893 q 711 892 678 892 q 767 892 739 892 q 818 893 794 892 q 872 894 844 893 l 863 803 q 815 783 829 797 q 788 731 801 769 l 532 7 l 303 -21 q 231 250 267 117 q 199 368 215 307 q 165 490 182 429 q 131 609 147 551 q 100 715 114 667 z "},"W":{"ha":1339,"x_min":-8,"x_max":1342,"o":"m 794 -21 q 779 52 790 3 q 752 168 768 101 q 717 313 736 235 q 675 475 697 392 l 661 475 l 517 7 l 293 -21 q 224 250 258 117 q 192 368 208 307 q 160 490 176 429 q 128 609 144 551 q 97 715 111 667 q 61 779 85 760 q -3 801 38 799 l -8 811 l 1 894 q 64 893 33 893 q 119 892 90 892 q 171 892 149 892 q 253 893 213 892 q 326 897 294 894 q 399 903 364 900 l 406 892 l 399 807 q 345 801 365 804 q 313 792 325 797 q 298 778 301 786 q 294 756 294 769 q 300 715 294 744 q 314 642 306 685 q 333 549 322 600 q 356 447 344 499 q 418 182 382 328 l 436 182 q 468 278 449 217 q 509 410 488 339 q 551 553 531 481 q 589 682 572 625 q 583 713 586 699 q 578 740 581 728 q 548 788 571 775 q 476 801 525 800 l 469 811 l 481 894 q 551 893 515 893 q 614 892 581 892 q 671 892 647 892 q 751 893 710 892 q 824 897 792 894 q 897 903 861 900 l 904 892 l 897 807 q 843 801 864 804 q 811 792 822 797 q 797 777 800 786 q 793 754 793 768 q 799 715 793 744 q 813 643 804 685 q 832 551 821 601 q 854 449 843 500 q 917 182 881 328 l 935 182 q 960 256 943 207 q 995 367 976 306 q 1033 493 1014 428 q 1069 615 1053 558 q 1095 713 1085 672 q 1106 764 1106 753 q 1090 794 1106 786 q 1036 803 1075 803 l 983 803 l 976 813 l 988 899 q 1056 894 1021 896 q 1119 892 1085 893 q 1186 892 1154 892 q 1240 892 1213 892 q 1290 893 1267 892 q 1342 894 1317 893 l 1332 803 q 1306 796 1317 800 q 1287 784 1294 792 q 1273 764 1279 776 q 1260 731 1267 751 l 1015 7 l 794 -21 z "},"Ẃ":{"ha":1339,"x_min":-8,"x_max":1342,"o":"m 794 -21 q 779 52 790 3 q 752 168 768 101 q 717 313 736 235 q 675 475 697 392 l 661 475 l 517 7 l 293 -21 q 224 250 258 117 q 192 368 208 307 q 160 490 176 429 q 128 609 144 551 q 97 715 111 667 q 61 779 85 760 q -3 801 38 799 l -8 811 l 1 894 q 64 893 33 893 q 119 892 90 892 q 171 892 149 892 q 253 893 213 892 q 326 897 294 894 q 399 903 364 900 l 406 892 l 399 807 q 345 801 365 804 q 313 792 325 797 q 298 778 301 786 q 294 756 294 769 q 300 715 294 744 q 314 642 306 685 q 333 549 322 600 q 356 447 344 499 q 418 182 382 328 l 436 182 q 468 278 449 217 q 509 410 488 339 q 551 553 531 481 q 589 682 572 625 q 583 713 586 699 q 578 740 581 728 q 548 788 571 775 q 476 801 525 800 l 469 811 l 481 894 q 551 893 515 893 q 614 892 581 892 q 671 892 647 892 q 751 893 710 892 q 824 897 792 894 q 897 903 861 900 l 904 892 l 897 807 q 843 801 864 804 q 811 792 822 797 q 797 777 800 786 q 793 754 793 768 q 799 715 793 744 q 813 643 804 685 q 832 551 821 601 q 854 449 843 500 q 917 182 881 328 l 935 182 q 960 256 943 207 q 995 367 976 306 q 1033 493 1014 428 q 1069 615 1053 558 q 1095 713 1085 672 q 1106 764 1106 753 q 1090 794 1106 786 q 1036 803 1075 803 l 983 803 l 976 813 l 988 899 q 1056 894 1021 896 q 1119 892 1085 893 q 1186 892 1154 892 q 1240 892 1213 892 q 1290 893 1267 892 q 1342 894 1317 893 l 1332 803 q 1306 796 1317 800 q 1287 784 1294 792 q 1273 764 1279 776 q 1260 731 1267 751 l 1015 7 l 794 -21 m 915 1058 q 815 1032 868 1047 q 714 1003 771 1019 q 597 968 657 988 l 579 981 l 561 1046 q 673 1096 618 1069 q 772 1143 728 1122 q 871 1190 824 1168 l 888 1183 l 924 1076 l 915 1058 z "},"Ŵ":{"ha":1339,"x_min":-8,"x_max":1342,"o":"m 794 -21 q 779 52 790 3 q 752 168 768 101 q 717 313 736 235 q 675 475 697 392 l 661 475 l 517 7 l 293 -21 q 224 250 258 117 q 192 368 208 307 q 160 490 176 429 q 128 609 144 551 q 97 715 111 667 q 61 779 85 760 q -3 801 38 799 l -8 811 l 1 894 q 64 893 33 893 q 119 892 90 892 q 171 892 149 892 q 253 893 213 892 q 326 897 294 894 q 399 903 364 900 l 406 892 l 399 807 q 345 801 365 804 q 313 792 325 797 q 298 778 301 786 q 294 756 294 769 q 300 715 294 744 q 314 642 306 685 q 333 549 322 600 q 356 447 344 499 q 418 182 382 328 l 436 182 q 468 278 449 217 q 509 410 488 339 q 551 553 531 481 q 589 682 572 625 q 583 713 586 699 q 578 740 581 728 q 548 788 571 775 q 476 801 525 800 l 469 811 l 481 894 q 551 893 515 893 q 614 892 581 892 q 671 892 647 892 q 751 893 710 892 q 824 897 792 894 q 897 903 861 900 l 904 892 l 897 807 q 843 801 864 804 q 811 792 822 797 q 797 777 800 786 q 793 754 793 768 q 799 715 793 744 q 813 643 804 685 q 832 551 821 601 q 854 449 843 500 q 917 182 881 328 l 935 182 q 960 256 943 207 q 995 367 976 306 q 1033 493 1014 428 q 1069 615 1053 558 q 1095 713 1085 672 q 1106 764 1106 753 q 1090 794 1106 786 q 1036 803 1075 803 l 983 803 l 976 813 l 988 899 q 1056 894 1021 896 q 1119 892 1085 893 q 1186 892 1154 892 q 1240 892 1213 892 q 1290 893 1267 892 q 1342 894 1317 893 l 1332 803 q 1306 796 1317 800 q 1287 784 1294 792 q 1273 764 1279 776 q 1260 731 1267 751 l 1015 7 l 794 -21 m 451 1044 q 529 1103 490 1072 q 600 1160 568 1135 q 669 1217 636 1189 l 697 1217 q 717 1202 697 1218 q 767 1161 736 1186 q 838 1105 799 1136 q 915 1044 876 1074 l 882 988 l 860 982 q 762 1028 811 1006 q 683 1063 713 1050 q 605 1028 653 1050 q 508 982 557 1006 l 486 988 l 451 1044 z "},"Ẅ":{"ha":1339,"x_min":-8,"x_max":1342,"o":"m 794 -21 q 779 52 790 3 q 752 168 768 101 q 717 313 736 235 q 675 475 697 392 l 661 475 l 517 7 l 293 -21 q 224 250 258 117 q 192 368 208 307 q 160 490 176 429 q 128 609 144 551 q 97 715 111 667 q 61 779 85 760 q -3 801 38 799 l -8 811 l 1 894 q 64 893 33 893 q 119 892 90 892 q 171 892 149 892 q 253 893 213 892 q 326 897 294 894 q 399 903 364 900 l 406 892 l 399 807 q 345 801 365 804 q 313 792 325 797 q 298 778 301 786 q 294 756 294 769 q 300 715 294 744 q 314 642 306 685 q 333 549 322 600 q 356 447 344 499 q 418 182 382 328 l 436 182 q 468 278 449 217 q 509 410 488 339 q 551 553 531 481 q 589 682 572 625 q 583 713 586 699 q 578 740 581 728 q 548 788 571 775 q 476 801 525 800 l 469 811 l 481 894 q 551 893 515 893 q 614 892 581 892 q 671 892 647 892 q 751 893 710 892 q 824 897 792 894 q 897 903 861 900 l 904 892 l 897 807 q 843 801 864 804 q 811 792 822 797 q 797 777 800 786 q 793 754 793 768 q 799 715 793 744 q 813 643 804 685 q 832 551 821 601 q 854 449 843 500 q 917 182 881 328 l 935 182 q 960 256 943 207 q 995 367 976 306 q 1033 493 1014 428 q 1069 615 1053 558 q 1095 713 1085 672 q 1106 764 1106 753 q 1090 794 1106 786 q 1036 803 1075 803 l 983 803 l 976 813 l 988 899 q 1056 894 1021 896 q 1119 892 1085 893 q 1186 892 1154 892 q 1240 892 1213 892 q 1290 893 1267 892 q 1342 894 1317 893 l 1332 803 q 1306 796 1317 800 q 1287 784 1294 792 q 1273 764 1279 776 q 1260 731 1267 751 l 1015 7 l 794 -21 m 800 981 q 738 1004 760 981 q 717 1065 717 1028 q 742 1132 717 1106 q 811 1158 768 1158 q 872 1135 851 1158 q 893 1075 893 1111 q 867 1007 893 1033 q 800 981 842 981 m 551 981 q 490 1004 511 981 q 469 1065 469 1028 q 495 1132 469 1106 q 563 1158 521 1158 q 624 1135 603 1158 q 646 1075 646 1111 q 620 1007 646 1033 q 551 981 594 981 z "},"Ẁ":{"ha":1339,"x_min":-8,"x_max":1342,"o":"m 794 -21 q 779 52 790 3 q 752 168 768 101 q 717 313 736 235 q 675 475 697 392 l 661 475 l 517 7 l 293 -21 q 224 250 258 117 q 192 368 208 307 q 160 490 176 429 q 128 609 144 551 q 97 715 111 667 q 61 779 85 760 q -3 801 38 799 l -8 811 l 1 894 q 64 893 33 893 q 119 892 90 892 q 171 892 149 892 q 253 893 213 892 q 326 897 294 894 q 399 903 364 900 l 406 892 l 399 807 q 345 801 365 804 q 313 792 325 797 q 298 778 301 786 q 294 756 294 769 q 300 715 294 744 q 314 642 306 685 q 333 549 322 600 q 356 447 344 499 q 418 182 382 328 l 436 182 q 468 278 449 217 q 509 410 488 339 q 551 553 531 481 q 589 682 572 625 q 583 713 586 699 q 578 740 581 728 q 548 788 571 775 q 476 801 525 800 l 469 811 l 481 894 q 551 893 515 893 q 614 892 581 892 q 671 892 647 892 q 751 893 710 892 q 824 897 792 894 q 897 903 861 900 l 904 892 l 897 807 q 843 801 864 804 q 811 792 822 797 q 797 777 800 786 q 793 754 793 768 q 799 715 793 744 q 813 643 804 685 q 832 551 821 601 q 854 449 843 500 q 917 182 881 328 l 935 182 q 960 256 943 207 q 995 367 976 306 q 1033 493 1014 428 q 1069 615 1053 558 q 1095 713 1085 672 q 1106 764 1106 753 q 1090 794 1106 786 q 1036 803 1075 803 l 983 803 l 976 813 l 988 899 q 1056 894 1021 896 q 1119 892 1085 893 q 1186 892 1154 892 q 1240 892 1213 892 q 1290 893 1267 892 q 1342 894 1317 893 l 1332 803 q 1306 796 1317 800 q 1287 784 1294 792 q 1273 764 1279 776 q 1260 731 1267 751 l 1015 7 l 794 -21 m 450 1076 l 486 1183 l 503 1190 q 601 1143 550 1168 q 701 1096 646 1122 q 813 1046 756 1069 l 794 981 l 775 968 q 658 1003 715 988 q 557 1032 601 1019 q 457 1058 504 1047 l 450 1076 z "},"X":{"ha":947,"x_min":10,"x_max":938,"o":"m 357 460 l 208 682 q 128 764 168 740 q 31 799 88 788 l 25 806 l 36 894 q 107 893 71 893 q 178 892 139 892 q 257 892 217 892 q 326 892 289 892 q 396 896 364 893 q 469 901 432 899 l 476 889 l 469 808 q 406 796 425 806 q 386 767 386 786 q 421 690 386 744 q 510 556 456 636 q 551 616 528 583 q 596 680 575 649 q 631 736 617 711 q 646 774 646 761 q 631 798 646 790 q 578 808 615 806 l 575 815 l 583 896 q 618 895 596 896 q 665 894 640 894 q 717 892 690 893 q 767 892 743 892 q 819 892 792 892 q 869 893 846 892 q 922 896 896 894 l 928 886 l 921 801 q 865 778 889 790 q 820 749 840 765 q 781 708 800 732 q 738 653 761 685 l 588 446 l 750 211 q 833 125 790 153 q 933 94 875 97 l 938 89 l 926 -3 q 858 -1 892 -3 q 799 1 831 0 q 746 1 768 1 q 676 0 718 1 q 594 -4 635 -1 q 496 -10 547 -7 l 489 0 l 497 85 q 572 124 572 89 q 551 174 572 142 l 432 350 l 340 221 q 303 165 314 185 q 292 129 292 144 q 360 88 292 92 l 365 78 l 357 -8 q 285 -4 319 -7 q 225 0 256 -1 q 176 1 194 1 q 128 0 156 1 q 75 -3 100 -1 q 15 -6 46 -4 l 10 8 l 18 92 q 117 160 65 108 q 219 278 168 211 l 357 460 z "},"Y":{"ha":831,"x_min":-14,"x_max":844,"o":"m 315 767 q 332 713 315 754 q 369 624 349 672 q 409 535 390 576 q 433 481 428 493 l 447 481 l 557 710 q 576 776 576 749 q 560 799 576 792 q 506 808 543 806 l 503 815 l 513 896 q 547 895 525 896 q 595 893 569 894 q 647 891 621 892 q 697 890 674 890 q 746 891 721 890 q 792 893 771 892 q 839 896 817 894 l 844 886 l 835 801 q 784 778 806 792 q 744 743 763 764 q 707 692 725 722 q 667 624 689 663 l 533 375 q 519 338 524 356 q 512 299 514 321 q 509 249 510 276 q 508 183 508 221 q 521 113 507 132 q 574 93 535 93 q 597 93 585 93 q 619 94 608 93 q 643 97 632 96 l 647 90 l 635 -6 q 546 -3 589 -4 q 471 -1 510 -1 q 406 0 432 0 q 338 -3 375 0 q 268 -8 301 -6 q 189 -15 229 -12 l 199 81 q 264 94 239 86 q 302 116 289 101 q 319 153 315 131 q 324 211 324 176 l 324 253 q 315 319 324 289 q 283 394 307 349 l 147 660 q 117 714 132 690 q 85 754 103 738 q 45 781 68 771 q -10 799 22 792 l -14 806 l -3 894 q 65 892 32 893 q 124 890 93 890 q 176 890 156 890 q 240 892 203 890 q 314 896 278 893 q 399 901 356 899 l 406 889 l 399 808 q 333 797 351 806 q 315 767 315 788 z "},"Ý":{"ha":831,"x_min":-14,"x_max":844,"o":"m 315 767 q 332 713 315 754 q 369 624 349 672 q 409 535 390 576 q 433 481 428 493 l 447 481 l 557 710 q 576 776 576 749 q 560 799 576 792 q 506 808 543 806 l 503 815 l 513 896 q 547 895 525 896 q 595 893 569 894 q 647 891 621 892 q 697 890 674 890 q 746 891 721 890 q 792 893 771 892 q 839 896 817 894 l 844 886 l 835 801 q 784 778 806 792 q 744 743 763 764 q 707 692 725 722 q 667 624 689 663 l 533 375 q 519 338 524 356 q 512 299 514 321 q 509 249 510 276 q 508 183 508 221 q 521 113 507 132 q 574 93 535 93 q 597 93 585 93 q 619 94 608 93 q 643 97 632 96 l 647 90 l 635 -6 q 546 -3 589 -4 q 471 -1 510 -1 q 406 0 432 0 q 338 -3 375 0 q 268 -8 301 -6 q 189 -15 229 -12 l 199 81 q 264 94 239 86 q 302 116 289 101 q 319 153 315 131 q 324 211 324 176 l 324 253 q 315 319 324 289 q 283 394 307 349 l 147 660 q 117 714 132 690 q 85 754 103 738 q 45 781 68 771 q -10 799 22 792 l -14 806 l -3 894 q 65 892 32 893 q 124 890 93 890 q 176 890 156 890 q 240 892 203 890 q 314 896 278 893 q 399 901 356 899 l 406 889 l 399 808 q 333 797 351 806 q 315 767 315 788 m 682 1058 q 582 1032 635 1047 q 481 1003 538 1019 q 364 968 424 988 l 346 981 l 328 1046 q 440 1096 385 1069 q 539 1143 494 1122 q 638 1190 590 1168 l 654 1183 l 690 1076 l 682 1058 z "},"Ŷ":{"ha":831,"x_min":-14,"x_max":844,"o":"m 315 767 q 332 713 315 754 q 369 624 349 672 q 409 535 390 576 q 433 481 428 493 l 447 481 l 557 710 q 576 776 576 749 q 560 799 576 792 q 506 808 543 806 l 503 815 l 513 896 q 547 895 525 896 q 595 893 569 894 q 647 891 621 892 q 697 890 674 890 q 746 891 721 890 q 792 893 771 892 q 839 896 817 894 l 844 886 l 835 801 q 784 778 806 792 q 744 743 763 764 q 707 692 725 722 q 667 624 689 663 l 533 375 q 519 338 524 356 q 512 299 514 321 q 509 249 510 276 q 508 183 508 221 q 521 113 507 132 q 574 93 535 93 q 597 93 585 93 q 619 94 608 93 q 643 97 632 96 l 647 90 l 635 -6 q 546 -3 589 -4 q 471 -1 510 -1 q 406 0 432 0 q 338 -3 375 0 q 268 -8 301 -6 q 189 -15 229 -12 l 199 81 q 264 94 239 86 q 302 116 289 101 q 319 153 315 131 q 324 211 324 176 l 324 253 q 315 319 324 289 q 283 394 307 349 l 147 660 q 117 714 132 690 q 85 754 103 738 q 45 781 68 771 q -10 799 22 792 l -14 806 l -3 894 q 65 892 32 893 q 124 890 93 890 q 176 890 156 890 q 240 892 203 890 q 314 896 278 893 q 399 901 356 899 l 406 889 l 399 808 q 333 797 351 806 q 315 767 315 788 m 218 1044 q 296 1103 257 1072 q 367 1160 335 1135 q 436 1217 403 1189 l 464 1217 q 483 1202 464 1218 q 534 1161 503 1186 q 604 1105 565 1136 q 682 1044 643 1074 l 649 988 l 626 982 q 528 1028 578 1006 q 450 1063 479 1050 q 372 1028 419 1050 q 275 982 324 1006 l 253 988 l 218 1044 z "},"Ÿ":{"ha":831,"x_min":-14,"x_max":844,"o":"m 315 767 q 332 713 315 754 q 369 624 349 672 q 409 535 390 576 q 433 481 428 493 l 447 481 l 557 710 q 576 776 576 749 q 560 799 576 792 q 506 808 543 806 l 503 815 l 513 896 q 547 895 525 896 q 595 893 569 894 q 647 891 621 892 q 697 890 674 890 q 746 891 721 890 q 792 893 771 892 q 839 896 817 894 l 844 886 l 835 801 q 784 778 806 792 q 744 743 763 764 q 707 692 725 722 q 667 624 689 663 l 533 375 q 519 338 524 356 q 512 299 514 321 q 509 249 510 276 q 508 183 508 221 q 521 113 507 132 q 574 93 535 93 q 597 93 585 93 q 619 94 608 93 q 643 97 632 96 l 647 90 l 635 -6 q 546 -3 589 -4 q 471 -1 510 -1 q 406 0 432 0 q 338 -3 375 0 q 268 -8 301 -6 q 189 -15 229 -12 l 199 81 q 264 94 239 86 q 302 116 289 101 q 319 153 315 131 q 324 211 324 176 l 324 253 q 315 319 324 289 q 283 394 307 349 l 147 660 q 117 714 132 690 q 85 754 103 738 q 45 781 68 771 q -10 799 22 792 l -14 806 l -3 894 q 65 892 32 893 q 124 890 93 890 q 176 890 156 890 q 240 892 203 890 q 314 896 278 893 q 399 901 356 899 l 406 889 l 399 808 q 333 797 351 806 q 315 767 315 788 m 567 981 q 505 1004 526 981 q 483 1065 483 1028 q 509 1132 483 1106 q 578 1158 535 1158 q 639 1135 618 1158 q 660 1075 660 1111 q 634 1007 660 1033 q 567 981 608 981 m 318 981 q 257 1004 278 981 q 236 1065 236 1028 q 262 1132 236 1106 q 329 1158 288 1158 q 391 1135 369 1158 q 413 1075 413 1111 q 387 1007 413 1033 q 318 981 361 981 z "},"Ỳ":{"ha":831,"x_min":-14,"x_max":844,"o":"m 315 767 q 332 713 315 754 q 369 624 349 672 q 409 535 390 576 q 433 481 428 493 l 447 481 l 557 710 q 576 776 576 749 q 560 799 576 792 q 506 808 543 806 l 503 815 l 513 896 q 547 895 525 896 q 595 893 569 894 q 647 891 621 892 q 697 890 674 890 q 746 891 721 890 q 792 893 771 892 q 839 896 817 894 l 844 886 l 835 801 q 784 778 806 792 q 744 743 763 764 q 707 692 725 722 q 667 624 689 663 l 533 375 q 519 338 524 356 q 512 299 514 321 q 509 249 510 276 q 508 183 508 221 q 521 113 507 132 q 574 93 535 93 q 597 93 585 93 q 619 94 608 93 q 643 97 632 96 l 647 90 l 635 -6 q 546 -3 589 -4 q 471 -1 510 -1 q 406 0 432 0 q 338 -3 375 0 q 268 -8 301 -6 q 189 -15 229 -12 l 199 81 q 264 94 239 86 q 302 116 289 101 q 319 153 315 131 q 324 211 324 176 l 324 253 q 315 319 324 289 q 283 394 307 349 l 147 660 q 117 714 132 690 q 85 754 103 738 q 45 781 68 771 q -10 799 22 792 l -14 806 l -3 894 q 65 892 32 893 q 124 890 93 890 q 176 890 156 890 q 240 892 203 890 q 314 896 278 893 q 399 901 356 899 l 406 889 l 399 808 q 333 797 351 806 q 315 767 315 788 m 217 1076 l 253 1183 l 269 1190 q 368 1143 317 1168 q 467 1096 413 1122 q 579 1046 522 1069 l 561 981 l 542 968 q 425 1003 482 988 q 324 1032 368 1019 q 224 1058 271 1047 l 217 1076 z "},"Z":{"ha":806,"x_min":26,"x_max":776,"o":"m 714 -4 l 165 4 l 61 -7 l 26 56 l 514 790 l 338 779 q 264 764 293 774 q 217 734 235 754 q 190 683 199 714 q 178 603 182 651 l 60 594 q 69 696 64 643 q 77 793 74 740 q 83 894 81 846 l 97 908 l 344 893 l 751 889 l 776 832 q 608 600 688 714 q 463 388 528 486 q 349 215 397 290 q 275 101 300 140 l 492 117 q 600 173 563 124 q 654 331 638 222 l 772 340 q 757 232 764 288 q 745 129 750 185 q 738 22 740 74 l 714 -4 z "},"Ź":{"ha":806,"x_min":26,"x_max":776,"o":"m 714 -4 l 165 4 l 61 -7 l 26 56 l 514 790 l 338 779 q 264 764 293 774 q 217 734 235 754 q 190 683 199 714 q 178 603 182 651 l 60 594 q 69 696 64 643 q 77 793 74 740 q 83 894 81 846 l 97 908 l 344 893 l 751 889 l 776 832 q 608 600 688 714 q 463 388 528 486 q 349 215 397 290 q 275 101 300 140 l 492 117 q 600 173 563 124 q 654 331 638 222 l 772 340 q 757 232 764 288 q 745 129 750 185 q 738 22 740 74 l 714 -4 m 665 1058 q 565 1032 618 1047 q 464 1003 521 1019 q 347 968 407 988 l 329 981 l 311 1046 q 423 1096 368 1069 q 522 1143 478 1122 q 621 1190 574 1168 l 638 1183 l 674 1076 l 665 1058 z "},"Ž":{"ha":806,"x_min":26,"x_max":776,"o":"m 714 -4 l 165 4 l 61 -7 l 26 56 l 514 790 l 338 779 q 264 764 293 774 q 217 734 235 754 q 190 683 199 714 q 178 603 182 651 l 60 594 q 69 696 64 643 q 77 793 74 740 q 83 894 81 846 l 97 908 l 344 893 l 751 889 l 776 832 q 608 600 688 714 q 463 388 528 486 q 349 215 397 290 q 275 101 300 140 l 492 117 q 600 173 563 124 q 654 331 638 222 l 772 340 q 757 232 764 288 q 745 129 750 185 q 738 22 740 74 l 714 -4 m 664 1139 q 585 1081 624 1111 q 515 1025 547 1050 q 446 967 479 996 l 418 967 q 347 1025 383 996 q 277 1081 315 1050 q 200 1139 239 1111 l 233 1196 l 256 1201 q 353 1156 304 1178 q 432 1121 403 1133 q 510 1156 463 1133 q 607 1201 558 1178 l 629 1196 l 664 1139 z "},"Ż":{"ha":806,"x_min":26,"x_max":776,"o":"m 714 -4 l 165 4 l 61 -7 l 26 56 l 514 790 l 338 779 q 264 764 293 774 q 217 734 235 754 q 190 683 199 714 q 178 603 182 651 l 60 594 q 69 696 64 643 q 77 793 74 740 q 83 894 81 846 l 97 908 l 344 893 l 751 889 l 776 832 q 608 600 688 714 q 463 388 528 486 q 349 215 397 290 q 275 101 300 140 l 492 117 q 600 173 563 124 q 654 331 638 222 l 772 340 q 757 232 764 288 q 745 129 750 185 q 738 22 740 74 l 714 -4 m 426 975 q 353 1003 378 975 q 329 1075 329 1031 q 360 1155 329 1124 q 440 1186 390 1186 q 512 1158 486 1186 q 538 1086 538 1131 q 507 1006 538 1038 q 426 975 476 975 z "},"a":{"ha":665,"x_min":38,"x_max":667,"o":"m 386 401 q 356 494 386 461 q 268 526 325 526 q 208 516 236 526 q 156 493 179 506 q 106 461 129 478 l 93 468 l 68 551 q 171 604 122 581 q 256 641 213 624 q 325 658 300 658 q 430 644 386 658 q 502 603 474 629 q 544 543 531 578 q 557 468 557 508 q 553 412 557 450 q 543 331 549 374 q 533 247 538 288 q 529 183 529 206 q 542 143 529 158 q 579 128 556 128 q 603 131 592 128 q 624 139 614 135 q 644 151 635 144 l 667 122 q 624 60 646 88 q 581 13 604 36 q 532 -17 557 -10 q 392 90 404 -17 l 381 94 q 297 21 339 53 q 228 -11 254 -11 q 153 4 188 -11 q 92 47 118 19 q 52 111 67 74 q 38 192 38 149 q 60 267 38 235 q 118 307 82 299 l 385 369 l 386 401 m 382 293 l 236 253 q 204 208 204 243 q 225 148 204 172 q 281 124 246 124 q 328 135 301 124 q 379 163 356 146 l 382 293 z "},"á":{"ha":665,"x_min":38,"x_max":667,"o":"m 386 401 q 356 494 386 461 q 268 526 325 526 q 208 516 236 526 q 156 493 179 506 q 106 461 129 478 l 93 468 l 68 551 q 171 604 122 581 q 256 641 213 624 q 325 658 300 658 q 430 644 386 658 q 502 603 474 629 q 544 543 531 578 q 557 468 557 508 q 553 412 557 450 q 543 331 549 374 q 533 247 538 288 q 529 183 529 206 q 542 143 529 158 q 579 128 556 128 q 603 131 592 128 q 624 139 614 135 q 644 151 635 144 l 667 122 q 624 60 646 88 q 581 13 604 36 q 532 -17 557 -10 q 392 90 404 -17 l 381 94 q 297 21 339 53 q 228 -11 254 -11 q 153 4 188 -11 q 92 47 118 19 q 52 111 67 74 q 38 192 38 149 q 60 267 38 235 q 118 307 82 299 l 385 369 l 386 401 m 382 293 l 236 253 q 204 208 204 243 q 225 148 204 172 q 281 124 246 124 q 328 135 301 124 q 379 163 356 146 l 382 293 m 525 907 q 442 853 486 882 q 358 796 404 828 q 263 728 311 764 l 242 733 l 200 788 q 284 871 243 829 q 358 947 325 913 q 432 1025 396 988 l 451 1024 l 526 926 l 525 907 z "},"´":{"ha":553,"x_min":160,"x_max":486,"o":"m 485 906 q 401 851 446 881 q 317 794 364 826 q 222 726 271 763 l 201 732 l 160 786 q 244 869 203 828 q 318 946 285 911 q 392 1024 356 986 l 411 1022 l 486 925 l 485 906 z "},"ă":{"ha":665,"x_min":38,"x_max":667,"o":"m 386 401 q 356 494 386 461 q 268 526 325 526 q 208 516 236 526 q 156 493 179 506 q 106 461 129 478 l 93 468 l 68 551 q 171 604 122 581 q 256 641 213 624 q 325 658 300 658 q 430 644 386 658 q 502 603 474 629 q 544 543 531 578 q 557 468 557 508 q 553 412 557 450 q 543 331 549 374 q 533 247 538 288 q 529 183 529 206 q 542 143 529 158 q 579 128 556 128 q 603 131 592 128 q 624 139 614 135 q 644 151 635 144 l 667 122 q 624 60 646 88 q 581 13 604 36 q 532 -17 557 -10 q 392 90 404 -17 l 381 94 q 297 21 339 53 q 228 -11 254 -11 q 153 4 188 -11 q 92 47 118 19 q 52 111 67 74 q 38 192 38 149 q 60 267 38 235 q 118 307 82 299 l 385 369 l 386 401 m 382 293 l 236 253 q 204 208 204 243 q 225 148 204 172 q 281 124 246 124 q 328 135 301 124 q 379 163 356 146 l 382 293 m 317 893 q 402 916 364 893 q 460 988 440 939 l 483 982 l 522 935 q 496 870 513 901 q 454 815 479 839 q 395 776 429 790 q 317 761 361 761 q 238 776 272 761 q 179 815 204 790 q 138 870 154 839 q 111 935 121 901 l 150 982 l 174 988 q 231 916 193 939 q 317 893 269 893 z "},"˘":{"ha":553,"x_min":71,"x_max":482,"o":"m 276 892 q 362 915 324 892 q 419 986 400 938 l 443 981 l 482 933 q 456 869 472 900 q 414 813 439 838 q 355 774 389 789 q 276 760 321 760 q 198 774 232 760 q 139 813 164 789 q 97 869 114 838 q 71 933 81 900 l 110 981 l 133 986 q 191 915 153 938 q 276 892 229 892 z "},"â":{"ha":665,"x_min":38,"x_max":667,"o":"m 386 401 q 356 494 386 461 q 268 526 325 526 q 208 516 236 526 q 156 493 179 506 q 106 461 129 478 l 93 468 l 68 551 q 171 604 122 581 q 256 641 213 624 q 325 658 300 658 q 430 644 386 658 q 502 603 474 629 q 544 543 531 578 q 557 468 557 508 q 553 412 557 450 q 543 331 549 374 q 533 247 538 288 q 529 183 529 206 q 542 143 529 158 q 579 128 556 128 q 603 131 592 128 q 624 139 614 135 q 644 151 635 144 l 667 122 q 624 60 646 88 q 581 13 604 36 q 532 -17 557 -10 q 392 90 404 -17 l 381 94 q 297 21 339 53 q 228 -11 254 -11 q 153 4 188 -11 q 92 47 118 19 q 52 111 67 74 q 38 192 38 149 q 60 267 38 235 q 118 307 82 299 l 385 369 l 386 401 m 382 293 l 236 253 q 204 208 204 243 q 225 148 204 172 q 281 124 246 124 q 328 135 301 124 q 379 163 356 146 l 382 293 m 93 800 q 167 873 129 836 q 236 942 206 910 q 304 1014 272 978 l 332 1014 q 400 942 364 978 q 467 873 431 910 q 542 800 504 836 l 501 743 l 481 738 q 391 803 436 774 q 318 853 346 833 q 244 803 289 833 q 156 738 200 774 l 133 743 l 93 800 z "},"ˆ":{"ha":553,"x_min":51,"x_max":500,"o":"m 51 800 q 126 873 88 836 q 194 942 164 910 q 263 1014 231 978 l 290 1014 q 358 942 322 978 q 426 873 389 910 q 500 800 463 836 l 460 743 l 439 738 q 349 803 394 774 q 276 853 304 833 q 203 803 247 833 q 114 738 158 774 l 92 743 l 51 800 z "},"ä":{"ha":665,"x_min":38,"x_max":667,"o":"m 386 401 q 356 494 386 461 q 268 526 325 526 q 208 516 236 526 q 156 493 179 506 q 106 461 129 478 l 93 468 l 68 551 q 171 604 122 581 q 256 641 213 624 q 325 658 300 658 q 430 644 386 658 q 502 603 474 629 q 544 543 531 578 q 557 468 557 508 q 553 412 557 450 q 543 331 549 374 q 533 247 538 288 q 529 183 529 206 q 542 143 529 158 q 579 128 556 128 q 603 131 592 128 q 624 139 614 135 q 644 151 635 144 l 667 122 q 624 60 646 88 q 581 13 604 36 q 532 -17 557 -10 q 392 90 404 -17 l 381 94 q 297 21 339 53 q 228 -11 254 -11 q 153 4 188 -11 q 92 47 118 19 q 52 111 67 74 q 38 192 38 149 q 60 267 38 235 q 118 307 82 299 l 385 369 l 386 401 m 382 293 l 236 253 q 204 208 204 243 q 225 148 204 172 q 281 124 246 124 q 328 135 301 124 q 379 163 356 146 l 382 293 m 433 783 q 372 807 393 783 q 350 867 350 831 q 376 935 350 908 q 444 961 401 961 q 506 938 485 961 q 526 876 526 914 q 501 810 526 836 q 433 783 475 783 m 185 783 q 124 807 144 783 q 103 867 103 831 q 128 935 103 908 q 196 961 154 961 q 258 938 236 961 q 279 876 279 914 q 253 810 279 836 q 185 783 228 783 z "},"¨":{"ha":553,"x_min":64,"x_max":488,"o":"m 394 782 q 333 806 354 782 q 311 865 311 829 q 337 933 311 907 q 406 960 363 960 q 467 936 446 960 q 488 875 488 913 q 462 808 488 835 q 394 782 436 782 m 146 782 q 85 806 106 782 q 64 865 64 829 q 90 933 64 907 q 157 960 115 960 q 219 936 197 960 q 240 875 240 913 q 215 808 240 835 q 146 782 189 782 z "},"æ":{"ha":931,"x_min":25,"x_max":907,"o":"m 907 86 q 828 35 868 57 q 753 -1 793 15 q 676 -17 713 -17 q 516 18 585 -17 q 411 119 447 53 q 300 28 351 63 q 217 -11 249 -6 q 141 4 176 -11 q 80 47 106 19 q 40 110 54 74 q 25 189 25 146 q 50 268 25 235 q 115 310 75 301 l 367 363 l 368 406 q 338 496 368 464 q 251 528 307 528 q 190 517 219 528 q 138 494 161 507 q 86 461 111 479 l 74 468 l 49 551 q 153 604 104 581 q 238 641 194 624 q 306 658 281 658 q 478 568 422 658 q 686 658 560 658 q 843 597 786 658 q 900 425 900 535 q 899 409 900 417 q 899 396 899 401 q 897 385 897 390 l 883 368 l 528 307 q 583 166 538 215 q 707 117 628 117 q 769 124 739 117 q 822 139 799 131 q 874 161 849 149 l 885 157 l 907 86 m 231 253 q 190 204 190 244 q 212 144 190 168 q 265 121 233 121 q 320 135 289 121 q 385 178 351 150 q 367 289 367 229 l 231 253 m 524 381 l 701 425 q 725 446 725 432 q 703 515 725 489 q 646 542 682 542 q 557 505 589 542 q 524 406 525 468 l 524 381 z "},"à":{"ha":665,"x_min":38,"x_max":667,"o":"m 386 401 q 356 494 386 461 q 268 526 325 526 q 208 516 236 526 q 156 493 179 506 q 106 461 129 478 l 93 468 l 68 551 q 171 604 122 581 q 256 641 213 624 q 325 658 300 658 q 430 644 386 658 q 502 603 474 629 q 544 543 531 578 q 557 468 557 508 q 553 412 557 450 q 543 331 549 374 q 533 247 538 288 q 529 183 529 206 q 542 143 529 158 q 579 128 556 128 q 603 131 592 128 q 624 139 614 135 q 644 151 635 144 l 667 122 q 624 60 646 88 q 581 13 604 36 q 532 -17 557 -10 q 392 90 404 -17 l 381 94 q 297 21 339 53 q 228 -11 254 -11 q 153 4 188 -11 q 92 47 118 19 q 52 111 67 74 q 38 192 38 149 q 60 267 38 235 q 118 307 82 299 l 385 369 l 386 401 m 382 293 l 236 253 q 204 208 204 243 q 225 148 204 172 q 281 124 246 124 q 328 135 301 124 q 379 163 356 146 l 382 293 m 128 925 l 203 1022 l 221 1024 q 294 947 256 986 q 369 871 328 913 q 454 788 411 829 l 413 733 l 392 728 q 297 797 343 764 q 213 853 250 829 q 129 906 168 881 l 128 925 z "},"`":{"ha":553,"x_min":90,"x_max":417,"o":"m 90 924 l 165 1021 l 183 1022 q 257 946 218 985 q 332 869 290 911 q 417 786 374 828 l 375 732 l 354 726 q 259 795 306 763 q 175 851 213 828 q 92 904 131 879 l 90 924 z "},"ā":{"ha":665,"x_min":38,"x_max":667,"o":"m 386 401 q 356 494 386 461 q 268 526 325 526 q 208 516 236 526 q 156 493 179 506 q 106 461 129 478 l 93 468 l 68 551 q 171 604 122 581 q 256 641 213 624 q 325 658 300 658 q 430 644 386 658 q 502 603 474 629 q 544 543 531 578 q 557 468 557 508 q 553 412 557 450 q 543 331 549 374 q 533 247 538 288 q 529 183 529 206 q 542 143 529 158 q 579 128 556 128 q 603 131 592 128 q 624 139 614 135 q 644 151 635 144 l 667 122 q 624 60 646 88 q 581 13 604 36 q 532 -17 557 -10 q 392 90 404 -17 l 381 94 q 297 21 339 53 q 228 -11 254 -11 q 153 4 188 -11 q 92 47 118 19 q 52 111 67 74 q 38 192 38 149 q 60 267 38 235 q 118 307 82 299 l 385 369 l 386 401 m 382 293 l 236 253 q 204 208 204 243 q 225 148 204 172 q 281 124 246 124 q 328 135 301 124 q 379 163 356 146 l 382 293 m 528 915 l 511 810 l 315 808 q 249 808 283 808 q 188 807 215 807 l 122 807 l 107 822 l 126 928 q 203 926 165 926 l 340 926 q 397 927 367 926 q 454 931 426 928 q 517 935 485 932 l 528 915 z "},"¯":{"ha":553,"x_min":69,"x_max":490,"o":"m 490 914 l 474 808 l 278 807 q 212 806 246 807 q 150 806 178 806 l 85 806 l 69 821 l 89 926 q 165 925 128 925 l 303 925 q 359 926 329 925 q 417 929 389 926 q 479 933 447 931 l 490 914 z "},"ą":{"ha":665,"x_min":38,"x_max":674,"o":"m 674 -242 q 628 -279 651 -261 q 583 -310 608 -294 q 532 -335 557 -326 q 410 -301 454 -335 q 365 -207 365 -267 q 391 -122 365 -167 q 481 -11 417 -78 q 392 90 400 6 l 381 94 q 291 17 332 46 q 228 -11 250 -11 q 153 4 188 -11 q 92 47 118 19 q 52 111 67 74 q 38 192 38 149 q 60 267 38 235 q 118 307 82 299 l 385 369 l 386 401 q 356 494 386 461 q 268 526 325 526 q 208 516 236 526 q 156 493 179 506 q 106 461 129 478 l 93 468 l 68 551 q 160 599 115 576 q 238 633 197 617 q 306 654 278 650 q 350 656 328 658 q 488 610 436 649 q 551 503 539 571 q 556 474 554 489 q 554 431 557 458 q 546 338 550 378 q 538 268 542 297 q 531 218 533 239 q 529 183 529 197 q 542 143 529 158 q 579 128 556 128 q 603 131 592 128 q 624 139 614 135 q 644 151 635 144 l 669 117 q 580 10 617 56 q 520 -70 543 -36 q 488 -128 497 -104 q 478 -169 478 -151 q 497 -217 478 -199 q 547 -236 515 -236 q 583 -231 565 -236 q 615 -219 600 -226 q 647 -203 632 -212 l 674 -242 m 382 293 l 236 253 q 204 208 204 243 q 226 147 204 171 q 281 124 247 124 q 329 134 303 124 q 379 163 356 144 l 382 293 z "},"å":{"ha":665,"x_min":38,"x_max":667,"o":"m 386 401 q 356 494 386 461 q 268 526 325 526 q 208 516 236 526 q 156 493 179 506 q 106 461 129 478 l 93 468 l 68 551 q 171 604 122 581 q 256 641 213 624 q 325 658 300 658 q 430 644 386 658 q 502 603 474 629 q 544 543 531 578 q 557 468 557 508 q 553 412 557 450 q 543 331 549 374 q 533 247 538 288 q 529 183 529 206 q 542 143 529 158 q 579 128 556 128 q 603 131 592 128 q 624 139 614 135 q 644 151 635 144 l 667 122 q 624 60 646 88 q 581 13 604 36 q 532 -17 557 -10 q 392 90 404 -17 l 381 94 q 297 21 339 53 q 228 -11 254 -11 q 153 4 188 -11 q 92 47 118 19 q 52 111 67 74 q 38 192 38 149 q 60 267 38 235 q 118 307 82 299 l 385 369 l 386 401 m 382 293 l 236 253 q 204 208 204 243 q 225 148 204 172 q 281 124 246 124 q 328 135 301 124 q 379 163 356 146 l 382 293 m 321 829 q 339 831 329 829 q 357 838 349 833 q 371 853 365 843 q 376 881 376 864 q 360 922 376 907 q 313 938 344 938 q 272 924 285 938 q 258 889 258 911 q 280 842 258 856 q 321 829 301 829 m 311 756 q 220 790 251 756 q 189 882 189 825 q 225 976 189 939 q 322 1014 261 1014 q 379 1003 356 1014 q 417 976 403 993 q 439 938 432 960 q 446 894 446 917 q 437 842 446 867 q 410 798 428 817 q 368 767 393 779 q 311 756 343 756 z "},"˚":{"ha":553,"x_min":147,"x_max":404,"o":"m 279 828 q 297 830 288 828 q 315 837 307 832 q 329 852 324 842 q 335 879 335 863 q 319 921 335 906 q 271 936 303 936 q 230 923 243 936 q 217 888 217 910 q 238 841 217 854 q 279 828 260 828 m 269 754 q 178 789 210 754 q 147 881 147 824 q 183 975 147 938 q 281 1013 219 1013 q 338 1002 314 1013 q 376 975 361 992 q 397 937 390 958 q 404 893 404 915 q 395 840 404 865 q 369 797 386 815 q 326 766 351 778 q 269 754 301 754 z "},"ã":{"ha":665,"x_min":38,"x_max":667,"o":"m 386 401 q 356 494 386 461 q 268 526 325 526 q 208 516 236 526 q 156 493 179 506 q 106 461 129 478 l 93 468 l 68 551 q 171 604 122 581 q 256 641 213 624 q 325 658 300 658 q 430 644 386 658 q 502 603 474 629 q 544 543 531 578 q 557 468 557 508 q 553 412 557 450 q 543 331 549 374 q 533 247 538 288 q 529 183 529 206 q 542 143 529 158 q 579 128 556 128 q 603 131 592 128 q 624 139 614 135 q 644 151 635 144 l 667 122 q 624 60 646 88 q 581 13 604 36 q 532 -17 557 -10 q 392 90 404 -17 l 381 94 q 297 21 339 53 q 228 -11 254 -11 q 153 4 188 -11 q 92 47 118 19 q 52 111 67 74 q 38 192 38 149 q 60 267 38 235 q 118 307 82 299 l 385 369 l 386 401 m 382 293 l 236 253 q 204 208 204 243 q 225 148 204 172 q 281 124 246 124 q 328 135 301 124 q 379 163 356 146 l 382 293 m 118 750 l 63 800 l 63 815 l 172 956 l 194 961 q 242 954 213 961 q 301 938 271 947 q 360 922 332 929 q 403 915 388 915 q 430 927 414 915 q 460 954 446 939 q 493 993 475 971 l 508 993 l 563 942 l 563 928 l 454 786 l 431 781 q 385 788 414 781 q 325 804 356 796 q 267 820 294 813 q 224 828 239 828 q 194 816 210 828 q 165 789 179 804 q 133 750 150 772 l 118 750 z "},"˜":{"ha":553,"x_min":26,"x_max":526,"o":"m 82 749 l 26 799 l 26 814 l 136 954 l 158 960 q 206 953 176 960 q 265 937 235 946 q 324 921 296 928 q 367 914 351 914 q 394 926 378 914 q 424 953 410 938 q 457 992 439 969 l 472 992 l 526 940 l 526 926 l 418 785 l 394 779 q 349 787 378 779 q 289 803 319 794 q 231 819 258 811 q 188 826 203 826 q 158 815 174 826 q 129 788 143 803 q 97 749 114 771 l 82 749 z "},"b":{"ha":714,"x_min":-3,"x_max":678,"o":"m 93 829 q 81 890 93 874 q 35 907 68 907 q 15 906 24 907 q 3 906 6 906 l -3 911 l 4 986 q 103 1000 53 993 q 196 1014 154 1007 q 290 1031 244 1021 l 301 1004 q 278 872 288 989 q 264 564 269 756 q 360 629 319 604 q 414 654 401 654 q 524 633 475 654 q 607 572 572 611 q 660 475 642 532 q 678 347 678 418 q 652 201 678 268 q 580 87 626 135 q 469 13 533 39 q 328 -14 404 -14 q 247 -10 286 -14 q 175 -3 207 -7 q 107 8 139 3 l 93 22 l 93 829 m 257 122 q 300 108 271 115 q 358 101 329 101 q 461 151 425 101 q 497 294 497 201 q 460 460 497 399 q 363 521 424 521 q 309 508 338 521 q 261 476 281 496 l 257 122 z "},"c":{"ha":600,"x_min":35,"x_max":556,"o":"m 529 160 l 551 88 q 478 35 514 58 q 410 -1 446 15 q 342 -17 374 -17 q 214 6 271 -17 q 117 69 157 28 q 56 170 78 111 q 35 304 35 229 q 60 447 35 382 q 130 559 85 513 q 237 632 175 606 q 374 658 299 658 q 445 653 413 658 q 501 643 478 649 q 550 629 528 638 l 556 617 q 543 553 549 588 q 533 485 538 524 q 525 401 528 446 l 435 396 l 435 442 q 349 540 435 540 q 252 494 285 540 q 219 357 219 447 q 258 183 219 243 q 371 124 297 124 q 426 130 399 124 q 474 143 453 136 q 518 164 499 151 l 529 160 z "},"ć":{"ha":600,"x_min":35,"x_max":563,"o":"m 529 160 l 551 88 q 478 35 514 58 q 410 -1 446 15 q 342 -17 374 -17 q 214 6 271 -17 q 117 69 157 28 q 56 170 78 111 q 35 304 35 229 q 60 447 35 382 q 130 559 85 513 q 237 632 175 606 q 374 658 299 658 q 445 653 413 658 q 501 643 478 649 q 550 629 528 638 l 556 617 q 543 553 549 588 q 533 485 538 524 q 525 401 528 446 l 435 396 l 435 442 q 349 540 435 540 q 252 494 285 540 q 219 357 219 447 q 258 183 219 243 q 371 124 297 124 q 426 130 399 124 q 474 143 453 136 q 518 164 499 151 l 529 160 m 561 906 q 478 851 522 881 q 394 794 440 826 q 299 726 347 763 l 278 732 l 236 786 q 320 869 279 828 q 394 946 361 911 q 468 1024 432 986 l 488 1022 l 563 925 l 561 906 z "},"č":{"ha":600,"x_min":35,"x_max":582,"o":"m 529 160 l 551 88 q 478 35 514 58 q 410 -1 446 15 q 342 -17 374 -17 q 214 6 271 -17 q 117 69 157 28 q 56 170 78 111 q 35 304 35 229 q 60 447 35 382 q 130 559 85 513 q 237 632 175 606 q 374 658 299 658 q 445 653 413 658 q 501 643 478 649 q 550 629 528 638 l 556 617 q 543 553 549 588 q 533 485 538 524 q 525 401 528 446 l 435 396 l 435 442 q 349 540 435 540 q 252 494 285 540 q 219 357 219 447 q 258 183 219 243 q 371 124 297 124 q 426 130 399 124 q 474 143 453 136 q 518 164 499 151 l 529 160 m 164 1001 l 185 1006 q 278 938 232 969 q 353 888 324 907 q 426 938 381 907 q 518 1006 472 969 l 540 1001 l 582 943 q 505 868 543 907 q 435 797 467 829 q 365 724 399 760 l 338 724 q 268 797 304 760 q 198 868 236 829 q 122 943 160 907 l 164 1001 z "},"ˇ":{"ha":553,"x_min":46,"x_max":506,"o":"m 88 1001 l 108 1006 q 201 938 156 969 q 276 888 247 907 q 350 938 304 907 q 442 1006 396 969 l 464 1001 l 506 943 q 428 868 467 907 q 358 797 390 829 q 289 724 322 760 l 261 724 q 192 797 228 760 q 122 868 160 829 q 46 943 83 907 l 88 1001 z "},"ç":{"ha":600,"x_min":35,"x_max":556,"o":"m 296 -14 q 103 83 172 0 q 35 304 35 167 q 60 447 35 382 q 130 559 85 513 q 237 632 175 606 q 374 658 299 658 q 445 653 413 658 q 501 643 478 649 q 550 629 528 638 l 556 617 q 543 553 549 588 q 533 485 538 524 q 525 401 528 446 l 435 396 l 435 442 q 349 540 435 540 q 252 494 285 540 q 219 357 219 447 q 258 183 219 243 q 371 124 297 124 q 426 130 399 124 q 474 143 453 136 q 518 164 499 151 l 529 160 l 551 88 q 490 43 522 64 q 431 9 463 25 q 368 -14 399 -7 l 354 -61 q 397 -87 374 -72 q 441 -119 421 -101 q 474 -156 461 -136 q 488 -196 488 -175 q 472 -248 488 -224 q 431 -290 457 -272 q 371 -319 404 -308 q 303 -329 338 -329 q 266 -325 285 -329 q 231 -313 247 -321 q 205 -294 215 -306 q 194 -269 194 -283 q 199 -250 194 -261 q 212 -227 204 -239 q 228 -203 219 -215 q 246 -182 238 -192 l 258 -182 q 279 -240 260 -221 q 331 -260 299 -260 q 370 -249 354 -260 q 386 -218 386 -237 q 375 -193 386 -206 q 347 -168 364 -181 q 309 -143 331 -156 q 267 -119 288 -131 l 296 -14 z "},"ċ":{"ha":600,"x_min":35,"x_max":556,"o":"m 529 160 l 551 88 q 478 35 514 58 q 410 -1 446 15 q 342 -17 374 -17 q 214 6 271 -17 q 117 69 157 28 q 56 170 78 111 q 35 304 35 229 q 60 447 35 382 q 130 559 85 513 q 237 632 175 606 q 374 658 299 658 q 445 653 413 658 q 501 643 478 649 q 550 629 528 638 l 556 617 q 543 553 549 588 q 533 485 538 524 q 525 401 528 446 l 435 396 l 435 442 q 349 540 435 540 q 252 494 285 540 q 219 357 219 447 q 258 183 219 243 q 371 124 297 124 q 426 130 399 124 q 474 143 453 136 q 518 164 499 151 l 529 160 m 344 797 q 272 825 296 797 q 247 897 247 853 q 278 977 247 946 q 358 1008 308 1008 q 430 981 404 1008 q 456 908 456 953 q 425 828 456 860 q 344 797 394 797 z "},"˙":{"ha":553,"x_min":172,"x_max":381,"o":"m 269 797 q 197 825 221 797 q 172 897 172 853 q 203 977 172 946 q 283 1008 233 1008 q 355 981 329 1008 q 381 908 381 953 q 350 828 381 860 q 269 797 319 797 z "},"d":{"ha":746,"x_min":35,"x_max":749,"o":"m 460 86 q 300 -11 326 -11 q 190 10 239 -11 q 106 70 140 31 q 53 166 72 110 q 35 293 35 222 q 61 438 35 372 q 134 552 88 504 q 245 627 181 600 q 386 654 310 654 q 419 654 403 654 q 456 651 436 654 l 456 826 q 443 888 456 871 q 397 904 431 904 q 376 901 390 904 q 364 900 371 900 l 372 985 q 472 999 422 992 q 561 1014 521 1007 q 650 1031 607 1022 l 663 1007 q 646 921 654 993 q 632 737 638 849 q 623 482 626 625 q 619 185 619 339 q 631 143 619 158 q 664 128 643 128 q 688 131 676 128 q 707 139 699 135 q 726 151 717 144 l 749 122 q 707 63 729 90 q 663 16 688 39 q 608 -17 638 -7 q 469 83 483 -17 l 460 86 m 456 514 q 428 525 443 519 q 396 533 414 529 q 356 538 378 538 q 253 488 289 538 q 217 344 217 438 q 253 180 217 240 q 351 119 290 119 q 389 126 371 119 q 422 142 407 133 q 456 165 439 151 l 456 514 z "},"ď":{"ha":842,"x_min":35,"x_max":867,"o":"m 460 86 q 300 -11 326 -11 q 190 10 239 -11 q 106 70 140 31 q 53 166 72 110 q 35 293 35 222 q 61 438 35 372 q 134 552 88 504 q 245 627 181 600 q 386 654 310 654 q 419 654 403 654 q 456 651 436 654 l 456 826 q 443 888 456 871 q 397 904 431 904 q 376 901 390 904 q 364 900 371 900 l 372 985 q 472 999 422 992 q 561 1014 521 1007 q 650 1031 607 1022 l 663 1007 q 646 921 654 993 q 632 737 638 849 q 623 482 626 625 q 619 185 619 339 q 631 143 619 158 q 664 128 643 128 q 688 131 676 128 q 707 139 699 135 q 726 151 717 144 l 749 122 q 707 63 729 90 q 663 16 688 39 q 608 -17 638 -7 q 469 83 483 -17 l 460 86 m 456 514 q 428 525 443 519 q 396 533 414 529 q 356 538 378 538 q 253 488 289 538 q 217 344 217 438 q 253 180 217 240 q 351 119 290 119 q 389 126 371 119 q 422 142 407 133 q 456 165 439 151 l 456 514 m 867 960 q 853 865 861 915 q 835 769 846 822 q 814 660 825 715 l 747 633 l 726 639 q 726 756 728 699 q 722 857 725 813 q 715 954 719 908 l 856 974 l 867 960 z "},"ı":{"ha":407,"x_min":35,"x_max":375,"o":"m 47 74 q 108 101 89 81 q 126 160 126 122 l 126 457 q 113 518 126 501 q 67 535 100 535 q 46 532 60 535 q 35 531 40 531 l 43 613 q 138 627 92 619 q 224 642 185 635 q 310 658 268 650 l 322 635 q 309 576 315 619 q 299 469 303 533 q 292 322 294 404 q 289 147 289 240 q 299 100 289 114 q 332 86 308 86 q 344 86 338 86 q 357 88 350 86 q 372 89 364 88 l 375 83 l 361 -4 q 306 -3 332 -4 q 256 -1 282 -1 q 207 0 229 0 q 151 -3 181 0 q 96 -8 121 -6 q 36 -15 65 -12 l 47 74 z "},"e":{"ha":643,"x_min":35,"x_max":599,"o":"m 401 413 q 422 421 417 415 q 428 444 428 426 q 340 547 428 547 q 255 510 288 547 q 215 403 222 474 l 401 413 m 215 325 l 215 313 q 265 169 219 219 q 389 119 311 119 q 451 126 421 119 q 506 140 482 132 q 556 161 532 149 l 567 157 l 589 86 q 507 35 549 57 q 429 -1 471 15 q 350 -17 388 -17 q 218 6 276 -17 q 119 69 160 28 q 56 170 78 111 q 35 304 35 229 q 60 444 35 379 q 128 557 85 510 q 233 631 172 604 q 365 658 294 658 q 599 419 599 658 q 597 390 599 404 q 593 365 596 376 q 589 340 590 351 l 572 325 l 215 325 z "},"é":{"ha":643,"x_min":35,"x_max":599,"o":"m 401 413 q 422 421 417 415 q 428 444 428 426 q 340 547 428 547 q 255 510 288 547 q 215 403 222 474 l 401 413 m 215 325 l 215 313 q 265 169 219 219 q 389 119 311 119 q 451 126 421 119 q 506 140 482 132 q 556 161 532 149 l 567 157 l 589 86 q 507 35 549 57 q 429 -1 471 15 q 350 -17 388 -17 q 218 6 276 -17 q 119 69 160 28 q 56 170 78 111 q 35 304 35 229 q 60 444 35 379 q 128 557 85 510 q 233 631 172 604 q 365 658 294 658 q 599 419 599 658 q 597 390 599 404 q 593 365 596 376 q 589 340 590 351 l 572 325 l 215 325 m 556 906 q 472 851 517 881 q 388 794 435 826 q 293 726 342 763 l 272 732 l 231 786 q 315 869 274 828 q 389 946 356 911 q 463 1024 426 986 l 482 1022 l 557 925 l 556 906 z "},"ě":{"ha":643,"x_min":35,"x_max":599,"o":"m 401 413 q 422 421 417 415 q 428 444 428 426 q 340 547 428 547 q 255 510 288 547 q 215 403 222 474 l 401 413 m 215 325 l 215 313 q 265 169 219 219 q 389 119 311 119 q 451 126 421 119 q 506 140 482 132 q 556 161 532 149 l 567 157 l 589 86 q 507 35 549 57 q 429 -1 471 15 q 350 -17 388 -17 q 218 6 276 -17 q 119 69 160 28 q 56 170 78 111 q 35 304 35 229 q 60 444 35 379 q 128 557 85 510 q 233 631 172 604 q 365 658 294 658 q 599 419 599 658 q 597 390 599 404 q 593 365 596 376 q 589 340 590 351 l 572 325 l 215 325 m 158 1001 l 179 1006 q 272 938 226 969 q 347 888 318 907 q 421 938 375 907 q 513 1006 467 969 l 535 1001 l 576 943 q 499 868 538 907 q 429 797 461 829 q 360 724 393 760 l 332 724 q 263 797 299 760 q 192 868 231 829 q 117 943 154 907 l 158 1001 z "},"ê":{"ha":643,"x_min":35,"x_max":599,"o":"m 401 413 q 422 421 417 415 q 428 444 428 426 q 340 547 428 547 q 255 510 288 547 q 215 403 222 474 l 401 413 m 215 325 l 215 313 q 265 169 219 219 q 389 119 311 119 q 451 126 421 119 q 506 140 482 132 q 556 161 532 149 l 567 157 l 589 86 q 507 35 549 57 q 429 -1 471 15 q 350 -17 388 -17 q 218 6 276 -17 q 119 69 160 28 q 56 170 78 111 q 35 304 35 229 q 60 444 35 379 q 128 557 85 510 q 233 631 172 604 q 365 658 294 658 q 599 419 599 658 q 597 390 599 404 q 593 365 596 376 q 589 340 590 351 l 572 325 l 215 325 m 124 800 q 198 873 160 836 q 267 942 236 910 q 335 1014 303 978 l 363 1014 q 431 942 394 978 q 498 873 461 910 q 572 800 535 836 l 532 743 l 511 738 q 422 803 467 774 q 349 853 376 833 q 275 803 319 833 q 186 738 231 774 l 164 743 l 124 800 z "},"ë":{"ha":643,"x_min":35,"x_max":599,"o":"m 401 413 q 422 421 417 415 q 428 444 428 426 q 340 547 428 547 q 255 510 288 547 q 215 403 222 474 l 401 413 m 215 325 l 215 313 q 265 169 219 219 q 389 119 311 119 q 451 126 421 119 q 506 140 482 132 q 556 161 532 149 l 567 157 l 589 86 q 507 35 549 57 q 429 -1 471 15 q 350 -17 388 -17 q 218 6 276 -17 q 119 69 160 28 q 56 170 78 111 q 35 304 35 229 q 60 444 35 379 q 128 557 85 510 q 233 631 172 604 q 365 658 294 658 q 599 419 599 658 q 597 390 599 404 q 593 365 596 376 q 589 340 590 351 l 572 325 l 215 325 m 464 782 q 402 806 424 782 q 381 865 381 829 q 406 933 381 907 q 475 960 432 960 q 536 936 515 960 q 557 875 557 913 q 531 808 557 835 q 464 782 506 782 m 215 782 q 154 806 175 782 q 133 865 133 829 q 159 933 133 907 q 226 960 185 960 q 288 936 267 960 q 310 875 310 913 q 284 808 310 835 q 215 782 258 782 z "},"ė":{"ha":643,"x_min":35,"x_max":599,"o":"m 401 413 q 422 421 417 415 q 428 444 428 426 q 340 547 428 547 q 255 510 288 547 q 215 403 222 474 l 401 413 m 215 325 l 215 313 q 265 169 219 219 q 389 119 311 119 q 451 126 421 119 q 506 140 482 132 q 556 161 532 149 l 567 157 l 589 86 q 507 35 549 57 q 429 -1 471 15 q 350 -17 388 -17 q 218 6 276 -17 q 119 69 160 28 q 56 170 78 111 q 35 304 35 229 q 60 444 35 379 q 128 557 85 510 q 233 631 172 604 q 365 658 294 658 q 599 419 599 658 q 597 390 599 404 q 593 365 596 376 q 589 340 590 351 l 572 325 l 215 325 m 339 797 q 266 825 290 797 q 242 897 242 853 q 272 977 242 946 q 353 1008 303 1008 q 424 981 399 1008 q 450 908 450 953 q 419 828 450 860 q 339 797 389 797 z "},"è":{"ha":643,"x_min":35,"x_max":599,"o":"m 401 413 q 422 421 417 415 q 428 444 428 426 q 340 547 428 547 q 255 510 288 547 q 215 403 222 474 l 401 413 m 215 325 l 215 313 q 265 169 219 219 q 389 119 311 119 q 451 126 421 119 q 506 140 482 132 q 556 161 532 149 l 567 157 l 589 86 q 507 35 549 57 q 429 -1 471 15 q 350 -17 388 -17 q 218 6 276 -17 q 119 69 160 28 q 56 170 78 111 q 35 304 35 229 q 60 444 35 379 q 128 557 85 510 q 233 631 172 604 q 365 658 294 658 q 599 419 599 658 q 597 390 599 404 q 593 365 596 376 q 589 340 590 351 l 572 325 l 215 325 m 158 924 l 233 1021 l 251 1022 q 325 946 286 985 q 400 869 358 911 q 485 786 442 828 l 443 732 l 422 726 q 327 795 374 763 q 243 851 281 828 q 160 904 199 879 l 158 924 z "},"ē":{"ha":643,"x_min":35,"x_max":599,"o":"m 401 413 q 422 421 417 415 q 428 444 428 426 q 340 547 428 547 q 255 510 288 547 q 215 403 222 474 l 401 413 m 215 325 l 215 313 q 265 169 219 219 q 389 119 311 119 q 451 126 421 119 q 506 140 482 132 q 556 161 532 149 l 567 157 l 589 86 q 507 35 549 57 q 429 -1 471 15 q 350 -17 388 -17 q 218 6 276 -17 q 119 69 160 28 q 56 170 78 111 q 35 304 35 229 q 60 444 35 379 q 128 557 85 510 q 233 631 172 604 q 365 658 294 658 q 599 419 599 658 q 597 390 599 404 q 593 365 596 376 q 589 340 590 351 l 572 325 l 215 325 m 558 914 l 542 808 l 346 807 q 280 806 314 807 q 218 806 246 806 l 153 806 l 138 821 l 157 926 q 233 925 196 925 l 371 925 q 427 926 397 925 q 485 929 457 926 q 547 933 515 931 l 558 914 z "},"ŋ":{"ha":761,"x_min":33,"x_max":690,"o":"m 481 658 q 635 611 581 658 q 690 478 690 564 l 668 129 q 645 2 663 57 q 596 -93 628 -53 q 514 -162 564 -133 q 393 -214 464 -192 l 354 -157 l 357 -142 q 431 -87 403 -114 q 476 -27 460 -60 q 500 49 493 6 q 508 154 507 93 l 510 392 q 421 513 510 513 q 355 494 389 513 q 301 461 321 476 q 297 356 299 407 q 292 264 294 306 q 289 192 290 222 q 288 150 288 163 q 297 101 288 114 q 329 88 306 88 q 339 88 333 88 q 351 89 344 88 q 365 90 357 89 l 369 83 l 354 -4 q 301 -3 326 -4 q 253 -1 278 -1 q 207 0 228 0 q 150 -1 179 0 q 97 -4 121 -3 q 42 -8 69 -7 l 53 81 q 109 101 93 85 q 125 157 125 118 l 125 449 q 111 515 125 497 q 57 532 97 532 l 39 532 l 33 539 l 42 613 q 135 628 89 619 q 218 643 182 636 q 300 658 261 650 l 311 644 q 304 614 307 629 q 296 549 299 588 l 301 543 q 347 582 321 561 q 398 619 372 603 q 446 647 424 636 q 481 658 468 658 z "},"ę":{"ha":643,"x_min":35,"x_max":613,"o":"m 613 -242 q 568 -279 592 -261 q 523 -310 549 -294 q 471 -335 497 -326 q 350 -301 396 -335 q 304 -207 304 -268 q 338 -112 304 -160 q 429 -1 371 -64 q 350 -17 386 -17 q 218 6 276 -17 q 119 69 160 28 q 56 170 78 111 q 35 304 35 229 q 60 444 35 379 q 128 557 85 510 q 233 631 172 604 q 365 658 294 658 q 599 419 599 658 q 597 390 599 404 q 593 365 596 376 q 589 340 590 351 l 572 325 l 215 325 l 215 313 q 265 169 219 219 q 389 119 311 119 q 451 126 421 119 q 506 140 482 132 q 556 161 532 149 l 567 157 l 589 86 q 509 -4 542 33 q 456 -71 476 -42 q 427 -124 436 -100 q 418 -169 418 -147 q 436 -217 418 -199 q 486 -236 454 -236 q 522 -231 504 -236 q 554 -219 539 -226 q 586 -203 571 -212 l 613 -242 m 401 413 q 422 421 417 415 q 428 444 428 426 q 340 547 428 547 q 255 510 288 547 q 215 403 222 474 l 401 413 z "},"ð":{"ha":706,"x_min":40,"x_max":665,"o":"m 557 988 l 581 906 l 432 832 q 605 605 544 728 q 665 347 665 482 q 642 199 665 265 q 575 84 618 132 q 472 10 532 36 q 339 -17 411 -17 q 120 66 200 -17 q 40 292 40 149 q 62 431 40 367 q 122 542 83 494 q 211 616 160 589 q 322 643 263 643 q 347 635 335 640 q 372 626 360 631 q 392 616 383 621 q 403 610 400 611 l 407 617 q 361 694 388 657 q 300 764 335 731 l 121 675 l 108 679 l 85 764 l 222 832 q 51 944 149 892 l 96 1022 l 114 1029 q 349 897 246 972 l 544 994 l 557 988 m 478 283 q 457 485 478 393 q 417 508 443 496 q 349 521 392 521 q 255 476 285 521 q 225 324 225 432 q 263 149 225 207 q 369 90 300 90 q 450 139 422 90 q 478 283 478 188 z "},"f":{"ha":475,"x_min":33,"x_max":646,"o":"m 33 544 l 44 617 l 129 631 l 129 642 q 154 803 129 731 q 225 926 179 875 q 335 1003 271 976 q 479 1031 400 1031 q 544 1026 515 1031 q 594 1015 574 1021 q 639 1001 619 1010 l 646 979 q 631 943 639 963 q 615 903 624 926 q 597 856 606 881 l 579 851 q 538 878 561 865 q 492 896 518 888 q 433 904 465 904 q 331 855 361 904 q 300 689 301 806 l 299 625 q 369 625 336 625 q 425 626 401 625 q 476 629 453 628 l 482 622 l 467 528 q 419 529 446 528 q 365 531 396 531 q 297 532 333 531 l 294 157 q 351 93 294 93 q 382 93 367 93 q 410 94 397 93 q 436 96 424 94 l 440 89 l 428 -4 q 350 -3 388 -4 q 284 -1 318 -1 q 226 0 250 0 q 165 -1 197 0 q 106 -4 133 -3 q 43 -8 74 -7 l 53 78 q 111 102 93 83 q 129 157 129 121 l 129 481 q 109 523 126 513 q 39 536 92 533 l 33 544 z "},"g":{"ha":711,"x_min":54,"x_max":701,"o":"m 331 176 q 288 179 308 176 q 244 186 267 182 q 208 139 208 163 q 343 86 208 90 q 500 74 436 83 q 603 45 564 64 q 660 -3 643 26 q 678 -76 678 -33 q 647 -173 678 -126 q 565 -256 615 -219 q 447 -315 514 -293 q 310 -336 381 -336 q 128 -283 196 -336 q 61 -140 61 -231 q 99 -106 76 -124 q 144 -74 121 -89 q 200 -39 169 -57 l 200 -31 q 94 19 133 -19 q 54 111 54 57 q 90 144 69 128 q 128 175 110 161 q 171 206 149 190 l 171 215 q 94 292 121 243 q 67 406 67 342 q 88 506 67 460 q 149 587 110 553 q 240 640 188 621 q 356 660 293 660 q 433 653 400 660 q 497 646 465 646 q 557 656 524 649 q 621 671 590 663 q 693 692 657 681 l 701 685 l 683 578 q 651 574 668 575 q 619 571 636 572 q 582 569 601 569 l 576 561 q 631 425 631 503 q 608 325 631 371 q 546 247 586 279 q 451 195 506 214 q 331 176 396 176 m 356 271 q 431 305 404 271 q 458 406 458 339 q 427 515 458 476 q 339 554 396 554 q 266 519 292 554 q 240 418 240 485 q 271 309 240 347 q 356 271 301 271 m 360 -232 q 421 -224 392 -232 q 472 -201 450 -215 q 506 -169 493 -187 q 518 -131 518 -151 q 510 -103 518 -114 q 478 -84 503 -93 q 408 -67 454 -75 q 286 -47 363 -58 q 260 -76 271 -61 q 242 -107 250 -90 q 235 -142 235 -124 q 268 -207 235 -182 q 360 -232 301 -232 z "},"ğ":{"ha":711,"x_min":54,"x_max":701,"o":"m 331 176 q 288 179 308 176 q 244 186 267 182 q 208 139 208 163 q 343 86 208 90 q 500 74 436 83 q 603 45 564 64 q 660 -3 643 26 q 678 -76 678 -33 q 647 -173 678 -126 q 565 -256 615 -219 q 447 -315 514 -293 q 310 -336 381 -336 q 128 -283 196 -336 q 61 -140 61 -231 q 99 -106 76 -124 q 144 -74 121 -89 q 200 -39 169 -57 l 200 -31 q 94 19 133 -19 q 54 111 54 57 q 90 144 69 128 q 128 175 110 161 q 171 206 149 190 l 171 215 q 94 292 121 243 q 67 406 67 342 q 88 506 67 460 q 149 587 110 553 q 240 640 188 621 q 356 660 293 660 q 433 653 400 660 q 497 646 465 646 q 557 656 524 649 q 621 671 590 663 q 693 692 657 681 l 701 685 l 683 578 q 651 574 668 575 q 619 571 636 572 q 582 569 601 569 l 576 561 q 631 425 631 503 q 608 325 631 371 q 546 247 586 279 q 451 195 506 214 q 331 176 396 176 m 356 271 q 431 305 404 271 q 458 406 458 339 q 427 515 458 476 q 339 554 396 554 q 266 519 292 554 q 240 418 240 485 q 271 309 240 347 q 356 271 301 271 m 360 -232 q 421 -224 392 -232 q 472 -201 450 -215 q 506 -169 493 -187 q 518 -131 518 -151 q 510 -103 518 -114 q 478 -84 503 -93 q 408 -67 454 -75 q 286 -47 363 -58 q 260 -76 271 -61 q 242 -107 250 -90 q 235 -142 235 -124 q 268 -207 235 -182 q 360 -232 301 -232 m 356 892 q 441 915 403 892 q 499 986 479 938 l 522 981 l 561 933 q 535 869 551 900 q 493 813 518 838 q 434 774 468 789 q 356 760 400 760 q 277 774 311 760 q 218 813 243 789 q 176 869 193 838 q 150 933 160 900 l 189 981 l 213 986 q 270 915 232 938 q 356 892 308 892 z "},"ġ":{"ha":711,"x_min":54,"x_max":701,"o":"m 331 176 q 288 179 308 176 q 244 186 267 182 q 208 139 208 163 q 343 86 208 90 q 500 74 436 83 q 603 45 564 64 q 660 -3 643 26 q 678 -76 678 -33 q 647 -173 678 -126 q 565 -256 615 -219 q 447 -315 514 -293 q 310 -336 381 -336 q 128 -283 196 -336 q 61 -140 61 -231 q 99 -106 76 -124 q 144 -74 121 -89 q 200 -39 169 -57 l 200 -31 q 94 19 133 -19 q 54 111 54 57 q 90 144 69 128 q 128 175 110 161 q 171 206 149 190 l 171 215 q 94 292 121 243 q 67 406 67 342 q 88 506 67 460 q 149 587 110 553 q 240 640 188 621 q 356 660 293 660 q 433 653 400 660 q 497 646 465 646 q 557 656 524 649 q 621 671 590 663 q 693 692 657 681 l 701 685 l 683 578 q 651 574 668 575 q 619 571 636 572 q 582 569 601 569 l 576 561 q 631 425 631 503 q 608 325 631 371 q 546 247 586 279 q 451 195 506 214 q 331 176 396 176 m 356 271 q 431 305 404 271 q 458 406 458 339 q 427 515 458 476 q 339 554 396 554 q 266 519 292 554 q 240 418 240 485 q 271 309 240 347 q 356 271 301 271 m 360 -232 q 421 -224 392 -232 q 472 -201 450 -215 q 506 -169 493 -187 q 518 -131 518 -151 q 510 -103 518 -114 q 478 -84 503 -93 q 408 -67 454 -75 q 286 -47 363 -58 q 260 -76 271 -61 q 242 -107 250 -90 q 235 -142 235 -124 q 268 -207 235 -182 q 360 -232 301 -232 m 349 797 q 276 825 300 797 q 251 897 251 853 q 282 977 251 946 q 363 1008 313 1008 q 434 981 408 1008 q 460 908 460 953 q 429 828 460 860 q 349 797 399 797 z "},"ß":{"ha":888,"x_min":33,"x_max":882,"o":"m 419 65 q 426 101 419 81 q 440 144 432 122 q 459 185 449 165 q 479 218 469 206 l 507 217 q 542 128 510 161 q 625 94 574 94 q 683 119 660 94 q 707 179 707 143 q 685 234 707 211 q 631 277 664 257 q 561 318 599 297 q 491 365 524 339 q 437 426 458 392 q 415 511 415 461 q 440 594 415 558 q 494 660 465 629 q 549 722 524 692 q 574 789 574 751 q 535 873 574 842 q 433 904 497 904 q 331 856 361 904 q 300 689 300 807 l 294 157 q 340 93 292 93 l 378 93 q 392 94 385 93 l 396 89 l 383 -4 q 324 -3 353 -4 q 272 -1 299 -1 q 226 0 246 0 q 170 -1 201 0 q 110 -4 139 -3 q 63 -7 82 -6 q 43 -8 43 -8 l 53 78 q 113 103 97 83 q 129 167 129 122 l 129 481 q 109 522 126 511 q 39 536 92 533 l 33 544 l 44 617 l 129 631 q 222 925 129 819 q 479 1031 314 1031 q 584 1016 536 1031 q 667 975 632 1001 q 721 913 701 949 q 740 835 740 878 q 716 745 740 782 q 663 677 692 708 q 609 617 633 646 q 585 553 585 588 q 607 502 585 524 q 662 461 629 481 q 733 420 694 442 q 805 371 772 399 q 860 306 838 343 q 882 217 882 269 q 860 125 882 168 q 801 51 839 82 q 713 1 764 19 q 604 -17 663 -17 q 481 6 533 -17 q 419 65 428 29 z "},"h":{"ha":756,"x_min":3,"x_max":724,"o":"m 35 82 q 86 102 72 86 q 100 157 100 118 l 100 829 q 88 889 100 872 q 42 906 75 906 l 10 906 l 3 913 l 11 986 q 110 1000 60 993 q 203 1014 161 1007 q 297 1031 251 1021 l 307 1004 q 294 959 300 996 q 283 862 289 922 q 274 719 278 801 q 268 538 271 638 q 308 572 283 551 q 360 612 333 593 q 413 644 388 631 q 453 658 438 658 q 608 612 554 658 q 663 478 663 565 q 658 413 663 457 q 649 319 654 369 q 640 223 644 269 q 636 151 636 176 q 646 101 636 115 q 679 86 656 86 l 706 86 q 721 88 713 86 l 724 82 l 711 -4 q 656 -3 682 -4 q 606 -1 632 -1 q 560 0 579 0 q 512 -1 539 0 q 461 -6 485 -3 q 404 -11 433 -8 l 413 76 q 460 102 446 85 q 476 154 475 119 l 482 392 q 393 513 482 513 q 355 506 374 513 q 319 490 336 499 q 288 471 301 481 q 267 456 275 461 q 265 306 265 383 q 264 149 264 229 q 273 100 264 114 q 306 86 282 86 q 316 86 310 86 q 328 88 322 86 q 340 89 333 88 l 343 81 l 329 -4 q 275 -3 301 -4 q 225 -1 251 -1 q 178 0 199 0 q 125 -1 151 0 q 75 -3 99 -1 q 24 -4 49 -4 l 35 82 z "},"ħ":{"ha":760,"x_min":-18,"x_max":728,"o":"m 39 82 q 90 102 76 86 q 104 157 104 118 l 104 717 q 63 715 82 715 q 28 715 43 715 l -4 715 l -18 728 l -7 794 q 26 793 8 793 l 104 793 l 104 829 q 92 889 104 872 q 46 906 79 906 l 14 906 l 7 913 l 15 986 q 115 1000 64 993 q 207 1014 165 1007 q 301 1031 256 1021 l 311 1004 q 296 939 303 993 q 282 793 289 885 q 324 795 303 794 q 360 797 344 796 q 396 800 378 799 l 415 781 l 410 717 l 278 717 q 274 631 275 676 q 272 538 274 586 q 313 572 288 551 q 365 612 338 593 q 417 644 392 631 q 457 658 442 658 q 613 612 558 658 q 667 478 667 565 q 663 413 667 457 q 653 319 658 369 q 644 223 649 269 q 640 151 640 176 q 650 101 640 115 q 683 86 660 86 l 710 86 q 725 88 717 86 l 728 82 l 715 -4 q 660 -3 686 -4 q 610 -1 636 -1 q 564 0 583 0 q 516 -1 543 0 q 465 -6 489 -3 q 408 -11 438 -8 l 417 76 q 465 102 450 85 q 481 154 479 119 l 486 392 q 397 513 486 513 q 359 506 378 513 q 323 490 340 499 q 292 471 306 481 q 271 456 279 461 q 269 306 269 383 q 268 149 268 229 q 277 100 268 114 q 310 86 286 86 q 320 86 314 86 q 332 88 326 86 q 344 89 338 88 l 347 81 l 333 -4 q 279 -3 306 -4 q 229 -1 256 -1 q 182 0 203 0 q 129 -1 156 0 q 79 -3 103 -1 q 28 -4 53 -4 l 39 82 z "},"i":{"ha":407,"x_min":35,"x_max":375,"o":"m 206 797 q 134 824 160 797 q 108 897 108 850 q 139 978 108 947 q 218 1008 169 1008 q 290 982 263 1008 q 317 908 317 956 q 285 828 317 858 q 206 797 254 797 m 47 74 q 108 101 89 81 q 126 160 126 122 l 126 457 q 113 518 126 501 q 67 535 100 535 q 46 532 60 535 q 35 531 40 531 l 43 613 q 138 627 92 619 q 224 642 185 635 q 310 658 268 650 l 322 635 q 309 576 315 619 q 299 469 303 533 q 292 322 294 404 q 289 147 289 240 q 299 100 289 114 q 332 86 308 86 q 344 86 338 86 q 357 88 350 86 q 372 89 364 88 l 375 83 l 361 -4 q 306 -3 332 -4 q 256 -1 282 -1 q 207 0 229 0 q 151 -3 181 0 q 96 -8 121 -6 q 36 -15 65 -12 l 47 74 z "},"ĳ":{"ha":789,"x_min":35,"x_max":715,"o":"m 206 797 q 134 824 160 797 q 108 897 108 850 q 139 978 108 947 q 218 1008 169 1008 q 290 982 263 1008 q 317 908 317 956 q 285 828 317 858 q 206 797 254 797 m 47 74 q 108 101 89 81 q 126 160 126 122 l 126 457 q 113 518 126 501 q 67 535 100 535 q 46 532 60 535 q 35 531 40 531 l 43 613 q 138 627 92 619 q 224 642 185 635 q 310 658 268 650 l 322 635 q 309 576 315 619 q 299 469 303 533 q 292 322 294 404 q 289 147 289 240 q 299 100 289 114 q 332 86 308 86 q 344 86 338 86 q 357 88 350 86 q 372 89 364 88 l 375 83 l 361 -4 q 306 -3 332 -4 q 256 -1 282 -1 q 207 0 229 0 q 151 -3 181 0 q 96 -8 121 -6 q 36 -15 65 -12 l 47 74 m 417 -297 l 419 -281 q 469 -222 449 -251 q 500 -153 489 -192 q 516 -66 511 -115 q 521 50 521 -17 l 521 457 q 510 518 521 501 q 471 535 499 535 q 457 534 464 535 q 443 532 450 533 q 429 531 436 531 l 438 611 q 526 626 479 618 q 613 640 572 633 q 703 658 658 649 l 715 635 q 692 438 700 603 q 685 -19 685 274 q 625 -202 685 -118 q 461 -339 565 -286 l 417 -297 m 603 797 q 530 824 556 797 q 504 897 504 850 q 535 978 504 947 q 615 1008 565 1008 q 686 982 660 1008 q 713 908 713 956 q 682 828 713 858 q 603 797 651 797 z "},"j":{"ha":381,"x_min":10,"x_max":308,"o":"m 10 -297 l 13 -281 q 62 -222 42 -251 q 93 -153 82 -192 q 109 -66 104 -115 q 114 50 114 -17 l 114 457 q 103 518 114 501 q 64 535 92 535 q 50 534 57 535 q 36 532 43 533 q 22 531 29 531 l 31 611 q 119 626 72 618 q 206 640 165 633 q 296 658 251 649 l 308 635 q 285 438 293 603 q 278 -19 278 274 q 218 -202 278 -118 q 54 -339 158 -286 l 10 -297 m 196 797 q 123 824 149 797 q 97 897 97 850 q 128 978 97 947 q 208 1008 158 1008 q 279 982 253 1008 q 306 908 306 956 q 275 828 306 858 q 196 797 244 797 z "},"į":{"ha":407,"x_min":35,"x_max":392,"o":"m 47 74 q 108 101 89 81 q 126 160 126 122 l 126 457 q 113 518 126 501 q 67 535 100 535 q 46 532 60 535 q 35 531 40 531 l 43 613 q 138 627 92 619 q 224 642 185 635 q 310 658 268 650 l 322 635 q 309 576 315 619 q 299 469 303 533 q 292 322 294 404 q 289 147 289 240 q 299 100 289 114 q 332 86 308 86 q 344 86 338 86 q 357 88 350 86 q 372 89 364 88 l 375 83 l 361 -4 q 339 -3 351 -3 q 315 -3 328 -3 q 288 -1 303 -3 q 217 -96 238 -61 q 197 -164 197 -131 q 216 -212 197 -193 q 267 -231 235 -231 q 302 -226 285 -231 q 335 -214 319 -221 q 367 -197 351 -207 l 392 -237 q 347 -275 371 -258 q 302 -306 328 -290 q 250 -329 276 -321 q 130 -296 175 -329 q 85 -203 85 -262 q 116 -110 85 -157 q 206 0 147 -62 q 149 -3 179 0 q 94 -8 119 -6 q 36 -15 65 -12 l 47 74 m 206 797 q 134 824 160 797 q 108 897 108 850 q 139 978 108 947 q 218 1008 169 1008 q 290 982 263 1008 q 317 908 317 956 q 285 828 317 858 q 206 797 254 797 z "},"k":{"ha":721,"x_min":4,"x_max":714,"o":"m 33 79 q 90 108 79 85 q 100 186 100 132 l 100 829 q 91 883 100 865 q 61 904 82 900 q 34 906 50 907 q 7 904 18 904 l 4 922 l 11 986 q 110 1000 60 993 q 203 1014 161 1007 q 297 1031 251 1021 l 307 1004 q 290 923 297 993 q 276 738 282 853 q 267 472 271 624 q 264 147 264 321 q 273 99 264 113 q 306 85 282 85 q 315 85 310 85 q 328 86 321 85 q 342 88 333 86 l 344 79 l 329 -6 q 274 -3 300 -4 q 224 -1 250 -1 q 178 0 199 0 q 125 -1 151 0 q 75 -4 99 -3 q 24 -8 49 -7 l 33 79 m 285 328 l 289 358 l 422 492 q 445 518 439 508 q 451 539 451 528 q 435 560 451 554 q 379 567 419 567 l 375 574 l 388 644 q 444 643 415 643 q 499 642 469 642 q 554 642 528 642 q 604 642 578 642 q 653 644 631 643 q 704 647 678 646 l 708 640 l 696 561 q 631 526 663 549 q 568 477 599 504 q 508 420 538 450 q 450 363 478 390 l 567 182 q 635 107 601 132 q 708 79 668 82 l 714 68 l 704 -1 q 665 -10 683 -6 q 633 -15 650 -12 q 603 -18 615 -18 q 567 -18 583 -19 q 542 -14 551 -17 q 480 18 506 -6 q 424 94 454 42 l 285 328 z "},"ķ":{"ha":721,"x_min":4,"x_max":714,"o":"m 33 79 q 90 108 79 85 q 100 186 100 132 l 100 829 q 91 883 100 865 q 61 904 82 900 q 34 906 50 907 q 7 904 18 904 l 4 922 l 11 986 q 110 1000 60 993 q 203 1014 161 1007 q 297 1031 251 1021 l 307 1004 q 290 923 297 993 q 276 738 282 853 q 267 472 271 624 q 264 147 264 321 q 273 99 264 113 q 306 85 282 85 q 315 85 310 85 q 328 86 321 85 q 342 88 333 86 l 344 79 l 329 -6 q 274 -3 300 -4 q 224 -1 250 -1 q 178 0 199 0 q 125 -1 151 0 q 75 -4 99 -3 q 24 -8 49 -7 l 33 79 m 285 328 l 289 358 l 422 492 q 445 518 439 508 q 451 539 451 528 q 435 560 451 554 q 379 567 419 567 l 375 574 l 388 644 q 444 643 415 643 q 499 642 469 642 q 554 642 528 642 q 604 642 578 642 q 653 644 631 643 q 704 647 678 646 l 708 640 l 696 561 q 631 526 663 549 q 568 477 599 504 q 508 420 538 450 q 450 363 478 390 l 567 182 q 635 107 601 132 q 708 79 668 82 l 714 68 l 704 -1 q 665 -10 683 -6 q 633 -15 650 -12 q 603 -18 615 -18 q 567 -18 583 -19 q 542 -14 551 -17 q 480 18 506 -6 q 424 94 454 42 l 285 328 m 275 -119 q 329 -85 300 -100 q 385 -71 358 -71 q 453 -103 426 -71 q 481 -190 481 -135 q 464 -263 481 -228 q 419 -331 447 -299 q 353 -391 390 -362 q 276 -442 317 -419 l 225 -400 l 225 -376 q 292 -310 265 -349 q 319 -235 319 -271 q 306 -181 319 -207 q 271 -139 292 -156 l 275 -119 z "},"l":{"ha":368,"x_min":4,"x_max":354,"o":"m 32 75 q 69 89 56 81 q 90 110 83 97 q 99 141 97 122 q 100 186 100 160 l 100 829 q 91 883 100 865 q 61 904 82 900 q 34 906 50 907 q 7 904 18 904 l 4 922 l 11 986 q 110 1000 60 993 q 203 1014 161 1007 q 297 1031 251 1021 l 307 1004 q 290 923 297 993 q 276 738 282 853 q 267 472 271 624 q 264 147 264 321 q 273 99 264 113 q 304 85 282 85 q 317 85 308 85 q 332 86 325 85 q 351 88 340 86 l 354 79 l 340 -4 q 281 -3 310 -4 q 228 -1 256 -1 q 181 0 201 0 q 126 -2 154 0 q 75 -7 99 -4 q 21 -12 47 -10 l 32 75 z "},"ĺ":{"ha":368,"x_min":4,"x_max":401,"o":"m 32 75 q 69 89 56 81 q 90 110 83 97 q 99 141 97 122 q 100 186 100 160 l 100 829 q 91 883 100 865 q 61 904 82 900 q 34 906 50 907 q 7 904 18 904 l 4 922 l 11 986 q 110 1000 60 993 q 203 1014 161 1007 q 297 1031 251 1021 l 307 1004 q 290 923 297 993 q 276 738 282 853 q 267 472 271 624 q 264 147 264 321 q 273 99 264 113 q 304 85 282 85 q 317 85 308 85 q 332 86 325 85 q 351 88 340 86 l 354 79 l 340 -4 q 281 -3 310 -4 q 228 -1 256 -1 q 181 0 201 0 q 126 -2 154 0 q 75 -7 99 -4 q 21 -12 47 -10 l 32 75 m 400 1238 q 317 1183 361 1213 q 233 1126 279 1158 q 138 1058 186 1094 l 117 1064 l 75 1118 q 159 1201 118 1160 q 233 1278 200 1243 q 307 1356 271 1318 l 326 1354 l 401 1257 l 400 1238 z "},"ľ":{"ha":506,"x_min":4,"x_max":506,"o":"m 506 947 q 490 853 499 903 q 474 756 483 810 q 451 647 464 703 l 385 621 l 364 626 q 365 742 365 686 q 361 843 364 799 q 354 942 358 894 l 494 961 l 506 947 m 32 75 q 69 89 56 81 q 90 110 83 97 q 99 141 97 122 q 100 186 100 160 l 100 829 q 91 883 100 865 q 61 904 82 900 q 34 906 50 907 q 7 904 18 904 l 4 922 l 11 986 q 110 1000 60 993 q 203 1014 161 1007 q 297 1031 251 1021 l 307 1004 q 290 923 297 993 q 276 738 282 853 q 267 472 271 624 q 264 147 264 321 q 273 99 264 113 q 304 85 282 85 q 317 85 308 85 q 332 86 325 85 q 351 88 340 86 l 354 79 l 340 -4 q 281 -3 310 -4 q 228 -1 256 -1 q 181 0 201 0 q 126 -2 154 0 q 75 -7 99 -4 q 21 -12 47 -10 l 32 75 z "},"ļ":{"ha":368,"x_min":4,"x_max":354,"o":"m 32 75 q 69 89 56 81 q 90 110 83 97 q 99 141 97 122 q 100 186 100 160 l 100 829 q 91 883 100 865 q 61 904 82 900 q 34 906 50 907 q 7 904 18 904 l 4 922 l 11 986 q 110 1000 60 993 q 203 1014 161 1007 q 297 1031 251 1021 l 307 1004 q 290 923 297 993 q 276 738 282 853 q 267 472 271 624 q 264 147 264 321 q 273 99 264 113 q 304 85 282 85 q 317 85 308 85 q 332 86 325 85 q 351 88 340 86 l 354 79 l 340 -4 q 281 -3 310 -4 q 228 -1 256 -1 q 181 0 201 0 q 126 -2 154 0 q 75 -7 99 -4 q 21 -12 47 -10 l 32 75 m 82 -119 q 136 -85 107 -100 q 192 -71 165 -71 q 260 -103 233 -71 q 288 -190 288 -135 q 271 -263 288 -228 q 226 -331 254 -299 q 160 -391 197 -362 q 83 -442 124 -419 l 32 -400 l 32 -376 q 99 -310 72 -349 q 126 -235 126 -271 q 113 -181 126 -207 q 78 -139 99 -156 l 82 -119 z "},"ŀ":{"ha":547,"x_min":4,"x_max":544,"o":"m 32 75 q 69 89 56 81 q 90 110 83 97 q 99 141 97 122 q 100 186 100 160 l 100 829 q 91 883 100 865 q 61 904 82 900 q 34 906 50 907 q 7 904 18 904 l 4 922 l 11 986 q 110 1000 60 993 q 203 1014 161 1007 q 297 1031 251 1021 l 307 1004 q 290 923 297 993 q 276 738 282 853 q 267 472 271 624 q 264 147 264 321 q 273 99 264 113 q 304 85 282 85 q 317 85 308 85 q 332 86 325 85 q 351 88 340 86 l 354 79 l 340 -4 q 281 -3 310 -4 q 228 -1 256 -1 q 181 0 201 0 q 126 -2 154 0 q 75 -7 99 -4 q 21 -12 47 -10 l 32 75 m 432 294 q 353 324 379 294 q 328 400 328 353 q 358 482 328 450 q 440 514 388 514 q 517 485 490 514 q 544 408 544 456 q 515 326 544 358 q 432 294 485 294 z "},"ł":{"ha":411,"x_min":-1,"x_max":410,"o":"m 51 75 q 89 89 75 81 q 110 110 103 97 q 118 141 117 122 q 119 186 119 160 l 119 426 l 36 383 l 24 386 l -1 472 l 119 535 l 119 829 q 110 883 119 865 q 81 904 101 900 q 53 906 69 907 q 26 904 38 904 l 24 922 l 31 986 q 130 1000 79 993 q 222 1014 181 1007 q 317 1031 271 1021 l 326 1004 q 305 883 314 989 q 290 607 296 778 l 374 651 l 385 646 l 410 561 l 288 497 q 283 147 283 336 q 292 99 283 113 q 324 85 301 85 q 336 85 328 85 q 351 86 344 85 q 371 88 360 86 l 374 79 l 360 -4 q 300 -3 329 -4 q 248 -1 275 -1 q 200 0 221 0 q 146 -2 174 0 q 94 -7 118 -4 q 40 -12 67 -10 l 51 75 z "},"m":{"ha":1165,"x_min":33,"x_max":1135,"o":"m 442 76 q 490 102 475 85 q 506 154 504 119 l 510 392 q 421 513 510 513 q 353 493 386 513 q 301 460 319 474 q 297 374 299 422 q 292 282 294 326 q 289 201 290 238 q 288 150 288 164 q 297 101 288 114 q 329 88 306 88 q 339 88 333 88 q 351 89 344 88 q 365 90 357 89 l 369 83 l 354 -4 q 301 -3 326 -4 q 253 -1 278 -1 q 207 0 228 0 q 150 -1 179 0 q 97 -3 121 -1 q 42 -4 69 -4 l 53 83 q 109 102 93 86 q 125 157 125 118 l 125 449 q 111 515 125 497 q 57 532 97 532 l 39 532 l 33 539 l 42 613 q 135 628 89 619 q 218 643 182 636 q 300 658 261 650 l 311 644 q 304 614 307 629 q 296 549 299 588 l 300 544 q 344 578 318 558 q 395 616 369 599 q 444 646 421 633 q 481 658 468 658 q 678 542 642 658 q 719 575 693 556 q 772 613 744 594 q 823 645 799 632 q 861 658 847 658 q 1016 611 961 658 q 1071 478 1071 564 q 1067 413 1071 457 q 1058 319 1063 369 q 1050 223 1054 269 q 1046 151 1046 176 q 1056 101 1046 115 q 1090 86 1067 86 l 1117 86 q 1132 88 1124 86 l 1135 82 l 1121 -4 q 1065 -3 1093 -4 q 1015 -1 1042 -1 q 968 0 988 0 q 922 -1 947 0 q 872 -4 896 -3 q 818 -7 846 -6 l 826 82 q 872 102 858 86 q 886 154 885 118 l 890 392 q 801 513 890 513 q 735 494 768 513 q 685 463 703 476 l 667 151 q 676 101 667 115 q 708 86 685 86 l 733 86 q 747 88 740 86 l 750 82 l 736 -4 q 682 -3 708 -4 q 633 -1 658 -1 q 589 0 608 0 q 541 -1 568 0 q 490 -6 514 -3 q 433 -11 463 -8 l 442 76 z "},"n":{"ha":792,"x_min":33,"x_max":753,"o":"m 442 76 q 490 102 475 85 q 506 154 504 119 l 510 392 q 421 513 510 513 q 353 493 386 513 q 301 461 319 474 q 297 376 299 424 q 292 283 294 328 q 289 201 290 238 q 288 150 288 164 q 297 101 288 114 q 329 88 306 88 q 339 88 333 88 q 351 89 344 88 q 365 90 357 89 l 369 83 l 354 -4 q 301 -3 326 -4 q 253 -1 278 -1 q 207 0 228 0 q 150 -1 179 0 q 97 -4 121 -3 q 42 -8 69 -7 l 53 81 q 109 101 93 85 q 125 157 125 118 l 125 449 q 111 515 125 497 q 57 532 97 532 l 39 532 l 33 539 l 42 613 q 135 628 89 619 q 218 643 182 636 q 300 658 261 650 l 311 644 q 304 614 307 629 q 296 549 299 588 l 301 543 q 343 577 318 557 q 394 615 368 597 q 443 646 419 633 q 481 658 467 658 q 635 611 581 658 q 690 478 690 564 q 686 413 690 457 q 678 319 682 369 q 669 223 674 269 q 665 151 665 176 q 675 101 665 115 q 708 86 685 86 l 735 86 q 750 88 742 86 l 753 82 l 740 -4 q 685 -3 711 -4 q 635 -1 661 -1 q 589 0 608 0 q 541 -1 568 0 q 490 -6 514 -3 q 433 -11 463 -8 l 442 76 z "},"ń":{"ha":792,"x_min":33,"x_max":753,"o":"m 442 76 q 490 102 475 85 q 506 154 504 119 l 510 392 q 421 513 510 513 q 353 493 386 513 q 301 461 319 474 q 297 376 299 424 q 292 283 294 328 q 289 201 290 238 q 288 150 288 164 q 297 101 288 114 q 329 88 306 88 q 339 88 333 88 q 351 89 344 88 q 365 90 357 89 l 369 83 l 354 -4 q 301 -3 326 -4 q 253 -1 278 -1 q 207 0 228 0 q 150 -1 179 0 q 97 -4 121 -3 q 42 -8 69 -7 l 53 81 q 109 101 93 85 q 125 157 125 118 l 125 449 q 111 515 125 497 q 57 532 97 532 l 39 532 l 33 539 l 42 613 q 135 628 89 619 q 218 643 182 636 q 300 658 261 650 l 311 644 q 304 614 307 629 q 296 549 299 588 l 301 543 q 343 577 318 557 q 394 615 368 597 q 443 646 419 633 q 481 658 467 658 q 635 611 581 658 q 690 478 690 564 q 686 413 690 457 q 678 319 682 369 q 669 223 674 269 q 665 151 665 176 q 675 101 665 115 q 708 86 685 86 l 735 86 q 750 88 742 86 l 753 82 l 740 -4 q 685 -3 711 -4 q 635 -1 661 -1 q 589 0 608 0 q 541 -1 568 0 q 490 -6 514 -3 q 433 -11 463 -8 l 442 76 m 625 906 q 542 851 586 881 q 458 794 504 826 q 363 726 411 763 l 342 732 l 300 786 q 384 869 343 828 q 458 946 425 911 q 532 1024 496 986 l 551 1022 l 626 925 l 625 906 z "},"ň":{"ha":792,"x_min":33,"x_max":753,"o":"m 442 76 q 490 102 475 85 q 506 154 504 119 l 510 392 q 421 513 510 513 q 353 493 386 513 q 301 461 319 474 q 297 376 299 424 q 292 283 294 328 q 289 201 290 238 q 288 150 288 164 q 297 101 288 114 q 329 88 306 88 q 339 88 333 88 q 351 89 344 88 q 365 90 357 89 l 369 83 l 354 -4 q 301 -3 326 -4 q 253 -1 278 -1 q 207 0 228 0 q 150 -1 179 0 q 97 -4 121 -3 q 42 -8 69 -7 l 53 81 q 109 101 93 85 q 125 157 125 118 l 125 449 q 111 515 125 497 q 57 532 97 532 l 39 532 l 33 539 l 42 613 q 135 628 89 619 q 218 643 182 636 q 300 658 261 650 l 311 644 q 304 614 307 629 q 296 549 299 588 l 301 543 q 343 577 318 557 q 394 615 368 597 q 443 646 419 633 q 481 658 467 658 q 635 611 581 658 q 690 478 690 564 q 686 413 690 457 q 678 319 682 369 q 669 223 674 269 q 665 151 665 176 q 675 101 665 115 q 708 86 685 86 l 735 86 q 750 88 742 86 l 753 82 l 740 -4 q 685 -3 711 -4 q 635 -1 661 -1 q 589 0 608 0 q 541 -1 568 0 q 490 -6 514 -3 q 433 -11 463 -8 l 442 76 m 228 1001 l 249 1006 q 342 938 296 969 q 417 888 388 907 q 490 938 444 907 q 582 1006 536 969 l 604 1001 l 646 943 q 569 868 607 907 q 499 797 531 829 q 429 724 463 760 l 401 724 q 332 797 368 760 q 262 868 300 829 q 186 943 224 907 l 228 1001 z "},"ņ":{"ha":792,"x_min":33,"x_max":753,"o":"m 442 76 q 490 102 475 85 q 506 154 504 119 l 510 392 q 421 513 510 513 q 353 493 386 513 q 301 461 319 474 q 297 376 299 424 q 292 283 294 328 q 289 201 290 238 q 288 150 288 164 q 297 101 288 114 q 329 88 306 88 q 339 88 333 88 q 351 89 344 88 q 365 90 357 89 l 369 83 l 354 -4 q 301 -3 326 -4 q 253 -1 278 -1 q 207 0 228 0 q 150 -1 179 0 q 97 -4 121 -3 q 42 -8 69 -7 l 53 81 q 109 101 93 85 q 125 157 125 118 l 125 449 q 111 515 125 497 q 57 532 97 532 l 39 532 l 33 539 l 42 613 q 135 628 89 619 q 218 643 182 636 q 300 658 261 650 l 311 644 q 304 614 307 629 q 296 549 299 588 l 301 543 q 343 577 318 557 q 394 615 368 597 q 443 646 419 633 q 481 658 467 658 q 635 611 581 658 q 690 478 690 564 q 686 413 690 457 q 678 319 682 369 q 669 223 674 269 q 665 151 665 176 q 675 101 665 115 q 708 86 685 86 l 735 86 q 750 88 742 86 l 753 82 l 740 -4 q 685 -3 711 -4 q 635 -1 661 -1 q 589 0 608 0 q 541 -1 568 0 q 490 -6 514 -3 q 433 -11 463 -8 l 442 76 m 293 -119 q 347 -85 318 -100 q 403 -71 376 -71 q 472 -103 444 -71 q 499 -190 499 -135 q 482 -263 499 -228 q 437 -331 465 -299 q 372 -391 408 -362 q 294 -442 335 -419 l 243 -400 l 243 -376 q 310 -310 283 -349 q 338 -235 338 -271 q 324 -181 338 -207 q 289 -139 310 -156 l 293 -119 z "},"ñ":{"ha":792,"x_min":33,"x_max":753,"o":"m 442 76 q 490 102 475 85 q 506 154 504 119 l 510 392 q 421 513 510 513 q 353 493 386 513 q 301 461 319 474 q 297 376 299 424 q 292 283 294 328 q 289 201 290 238 q 288 150 288 164 q 297 101 288 114 q 329 88 306 88 q 339 88 333 88 q 351 89 344 88 q 365 90 357 89 l 369 83 l 354 -4 q 301 -3 326 -4 q 253 -1 278 -1 q 207 0 228 0 q 150 -1 179 0 q 97 -4 121 -3 q 42 -8 69 -7 l 53 81 q 109 101 93 85 q 125 157 125 118 l 125 449 q 111 515 125 497 q 57 532 97 532 l 39 532 l 33 539 l 42 613 q 135 628 89 619 q 218 643 182 636 q 300 658 261 650 l 311 644 q 304 614 307 629 q 296 549 299 588 l 301 543 q 343 577 318 557 q 394 615 368 597 q 443 646 419 633 q 481 658 467 658 q 635 611 581 658 q 690 478 690 564 q 686 413 690 457 q 678 319 682 369 q 669 223 674 269 q 665 151 665 176 q 675 101 665 115 q 708 86 685 86 l 735 86 q 750 88 742 86 l 753 82 l 740 -4 q 685 -3 711 -4 q 635 -1 661 -1 q 589 0 608 0 q 541 -1 568 0 q 490 -6 514 -3 q 433 -11 463 -8 l 442 76 m 218 749 l 163 799 l 163 814 l 272 954 l 294 960 q 342 953 313 960 q 401 937 371 946 q 460 921 432 928 q 503 914 488 914 q 530 926 514 914 q 560 953 546 938 q 593 992 575 969 l 608 992 l 663 940 l 663 926 l 554 785 l 531 779 q 485 787 514 779 q 425 803 456 794 q 367 819 394 811 q 324 826 339 826 q 294 815 310 826 q 265 788 279 803 q 233 749 250 771 l 218 749 z "},"o":{"ha":699,"x_min":35,"x_max":664,"o":"m 329 -17 q 208 6 263 -17 q 115 71 154 29 q 56 171 76 113 q 35 301 35 229 q 59 447 35 381 q 128 560 83 513 q 234 633 172 607 q 371 658 296 658 q 493 636 439 658 q 585 573 547 614 q 644 473 624 532 q 664 340 664 414 q 640 195 664 261 q 572 82 615 129 q 466 9 528 35 q 329 -17 404 -17 m 357 90 q 476 276 476 90 q 441 474 476 410 q 339 539 406 539 q 219 353 219 539 q 255 155 219 219 q 357 90 290 90 z "},"ó":{"ha":699,"x_min":35,"x_max":664,"o":"m 329 -17 q 208 6 263 -17 q 115 71 154 29 q 56 171 76 113 q 35 301 35 229 q 59 447 35 381 q 128 560 83 513 q 234 633 172 607 q 371 658 296 658 q 493 636 439 658 q 585 573 547 614 q 644 473 624 532 q 664 340 664 414 q 640 195 664 261 q 572 82 615 129 q 466 9 528 35 q 329 -17 404 -17 m 357 90 q 476 276 476 90 q 441 474 476 410 q 339 539 406 539 q 219 353 219 539 q 255 155 219 219 q 357 90 290 90 m 568 906 q 485 851 529 881 q 401 794 447 826 q 306 726 354 763 l 285 732 l 243 786 q 327 869 286 828 q 401 946 368 911 q 475 1024 439 986 l 494 1022 l 569 925 l 568 906 z "},"ô":{"ha":699,"x_min":35,"x_max":664,"o":"m 329 -17 q 208 6 263 -17 q 115 71 154 29 q 56 171 76 113 q 35 301 35 229 q 59 447 35 381 q 128 560 83 513 q 234 633 172 607 q 371 658 296 658 q 493 636 439 658 q 585 573 547 614 q 644 473 624 532 q 664 340 664 414 q 640 195 664 261 q 572 82 615 129 q 466 9 528 35 q 329 -17 404 -17 m 357 90 q 476 276 476 90 q 441 474 476 410 q 339 539 406 539 q 219 353 219 539 q 255 155 219 219 q 357 90 290 90 m 136 800 q 210 873 172 836 q 279 942 249 910 q 347 1014 315 978 l 375 1014 q 443 942 407 978 q 510 873 474 910 q 585 800 547 836 l 544 743 l 524 738 q 434 803 479 774 q 361 853 389 833 q 288 803 332 833 q 199 738 243 774 l 176 743 l 136 800 z "},"ö":{"ha":699,"x_min":35,"x_max":664,"o":"m 329 -17 q 208 6 263 -17 q 115 71 154 29 q 56 171 76 113 q 35 301 35 229 q 59 447 35 381 q 128 560 83 513 q 234 633 172 607 q 371 658 296 658 q 493 636 439 658 q 585 573 547 614 q 644 473 624 532 q 664 340 664 414 q 640 195 664 261 q 572 82 615 129 q 466 9 528 35 q 329 -17 404 -17 m 357 90 q 476 276 476 90 q 441 474 476 410 q 339 539 406 539 q 219 353 219 539 q 255 155 219 219 q 357 90 290 90 m 476 782 q 415 806 436 782 q 393 865 393 829 q 419 933 393 907 q 488 960 444 960 q 549 936 528 960 q 569 875 569 913 q 544 808 569 835 q 476 782 518 782 m 228 782 q 167 806 188 782 q 146 865 146 829 q 172 933 146 907 q 239 960 197 960 q 301 936 279 960 q 322 875 322 913 q 297 808 322 835 q 228 782 271 782 z "},"œ":{"ha":1071,"x_min":35,"x_max":1028,"o":"m 817 119 q 879 126 849 119 q 933 140 910 132 q 983 161 960 149 l 994 157 l 1017 86 q 935 35 976 57 q 857 -1 899 15 q 778 -17 815 -17 q 702 -7 738 -17 q 637 18 667 3 q 585 52 607 33 q 550 89 563 71 q 517 56 539 74 q 465 22 494 38 q 399 -6 435 6 q 325 -17 364 -17 q 206 6 260 -17 q 115 71 153 29 q 56 171 76 113 q 35 301 35 229 q 59 447 35 381 q 127 560 83 513 q 232 633 171 607 q 367 658 293 658 q 438 647 404 658 q 499 620 472 636 q 546 586 526 604 q 574 553 565 568 q 610 588 586 569 q 663 622 633 607 q 726 648 692 638 q 793 658 760 658 q 900 642 856 658 q 973 594 944 625 q 1015 522 1001 564 q 1028 428 1028 479 q 1026 392 1028 408 q 1021 365 1024 376 q 1015 340 1018 351 l 999 325 l 643 325 l 643 311 q 694 169 650 219 q 817 119 739 119 m 353 90 q 468 276 468 90 q 433 474 468 410 q 335 539 399 539 q 219 353 219 539 q 254 155 219 219 q 353 90 289 90 m 768 547 q 682 510 714 547 q 643 401 650 474 l 829 413 q 850 420 844 414 q 856 444 856 426 q 768 547 856 547 z "},"ò":{"ha":699,"x_min":35,"x_max":664,"o":"m 329 -17 q 208 6 263 -17 q 115 71 154 29 q 56 171 76 113 q 35 301 35 229 q 59 447 35 381 q 128 560 83 513 q 234 633 172 607 q 371 658 296 658 q 493 636 439 658 q 585 573 547 614 q 644 473 624 532 q 664 340 664 414 q 640 195 664 261 q 572 82 615 129 q 466 9 528 35 q 329 -17 404 -17 m 357 90 q 476 276 476 90 q 441 474 476 410 q 339 539 406 539 q 219 353 219 539 q 255 155 219 219 q 357 90 290 90 m 169 924 l 244 1021 l 263 1022 q 336 946 297 985 q 411 869 369 911 q 496 786 453 828 l 454 732 l 433 726 q 338 795 385 763 q 254 851 292 828 q 171 904 210 879 l 169 924 z "},"ő":{"ha":699,"x_min":35,"x_max":664,"o":"m 329 -17 q 208 6 263 -17 q 115 71 154 29 q 56 171 76 113 q 35 301 35 229 q 59 447 35 381 q 128 560 83 513 q 234 633 172 607 q 371 658 296 658 q 493 636 439 658 q 585 573 547 614 q 644 473 624 532 q 664 340 664 414 q 640 195 664 261 q 572 82 615 129 q 466 9 528 35 q 329 -17 404 -17 m 357 90 q 476 276 476 90 q 441 474 476 410 q 339 539 406 539 q 219 353 219 539 q 255 155 219 219 q 357 90 290 90 m 444 925 q 381 868 415 899 q 315 808 351 842 q 239 738 278 774 l 219 739 l 176 778 q 238 859 208 818 q 293 933 268 900 q 349 1008 321 972 l 365 1010 l 444 940 l 444 925 m 646 925 q 582 868 617 899 q 516 808 553 842 q 440 738 479 774 l 421 739 l 376 778 q 439 859 408 818 q 494 933 469 900 q 550 1008 524 972 l 565 1010 l 646 940 l 646 925 z "},"˝":{"ha":553,"x_min":68,"x_max":538,"o":"m 336 925 q 272 868 307 899 q 206 808 243 842 q 131 738 169 774 l 111 739 l 68 778 q 130 859 100 818 q 185 933 160 900 q 240 1008 213 972 l 257 1010 l 336 940 l 336 925 m 538 925 q 474 868 508 899 q 408 808 444 842 q 332 738 371 774 l 313 739 l 268 778 q 331 859 300 818 q 386 933 361 900 q 442 1008 415 972 l 457 1010 l 538 940 l 538 925 z "},"ō":{"ha":699,"x_min":35,"x_max":664,"o":"m 329 -17 q 208 6 263 -17 q 115 71 154 29 q 56 171 76 113 q 35 301 35 229 q 59 447 35 381 q 128 560 83 513 q 234 633 172 607 q 371 658 296 658 q 493 636 439 658 q 585 573 547 614 q 644 473 624 532 q 664 340 664 414 q 640 195 664 261 q 572 82 615 129 q 466 9 528 35 q 329 -17 404 -17 m 357 90 q 476 276 476 90 q 441 474 476 410 q 339 539 406 539 q 219 353 219 539 q 255 155 219 219 q 357 90 290 90 m 569 914 l 553 808 l 357 807 q 291 806 325 807 q 229 806 257 806 l 164 806 l 149 821 l 168 926 q 244 925 207 925 l 382 925 q 438 926 408 925 q 496 929 468 926 q 558 933 526 931 l 569 914 z "},"ø":{"ha":699,"x_min":33,"x_max":664,"o":"m 132 54 q 60 159 85 96 q 35 301 35 222 q 59 447 35 381 q 128 560 83 513 q 234 633 172 607 q 371 658 296 658 q 426 653 400 658 q 476 642 453 649 l 569 794 l 654 753 l 658 736 l 568 589 q 639 485 614 547 q 664 340 664 422 q 640 195 664 261 q 572 82 615 129 q 466 9 528 35 q 329 -17 404 -17 q 272 -12 299 -17 q 219 1 244 -7 l 119 -162 l 38 -122 l 33 -108 l 132 54 m 357 90 q 476 276 476 90 q 473 350 476 317 q 463 411 469 383 l 288 114 q 357 90 315 90 m 219 353 q 232 222 219 276 l 404 518 q 339 539 375 539 q 219 353 219 539 z "},"õ":{"ha":699,"x_min":35,"x_max":664,"o":"m 329 -17 q 208 6 263 -17 q 115 71 154 29 q 56 171 76 113 q 35 301 35 229 q 59 447 35 381 q 128 560 83 513 q 234 633 172 607 q 371 658 296 658 q 493 636 439 658 q 585 573 547 614 q 644 473 624 532 q 664 340 664 414 q 640 195 664 261 q 572 82 615 129 q 466 9 528 35 q 329 -17 404 -17 m 357 90 q 476 276 476 90 q 441 474 476 410 q 339 539 406 539 q 219 353 219 539 q 255 155 219 219 q 357 90 290 90 m 161 749 l 106 799 l 106 814 l 215 954 l 238 960 q 285 953 256 960 q 344 937 314 946 q 403 921 375 928 q 446 914 431 914 q 473 926 457 914 q 503 953 489 938 q 536 992 518 969 l 551 992 l 606 940 l 606 926 l 497 785 l 474 779 q 428 787 457 779 q 368 803 399 794 q 310 819 338 811 q 267 826 282 826 q 238 815 253 826 q 208 788 222 803 q 176 749 193 771 l 161 749 z "},"p":{"ha":747,"x_min":31,"x_max":711,"o":"m 51 -242 q 103 -221 90 -237 q 115 -156 115 -204 l 122 57 l 122 449 q 108 515 122 497 q 54 532 94 532 l 36 532 l 31 539 l 38 613 q 132 628 86 619 q 214 643 178 636 q 294 658 257 650 l 307 644 q 301 615 304 631 q 296 588 299 603 q 292 557 293 572 l 297 550 q 435 653 408 653 q 548 631 497 653 q 635 569 599 608 q 692 472 672 529 q 711 347 711 415 q 684 199 711 265 q 608 85 657 132 q 490 12 558 38 q 342 -14 422 -14 q 324 -14 333 -14 q 306 -12 314 -14 q 285 -10 296 -11 l 285 -137 q 293 -212 285 -190 q 335 -233 301 -233 q 367 -232 350 -233 q 390 -231 385 -231 l 394 -236 l 379 -322 q 351 -322 371 -322 q 306 -321 331 -321 q 255 -320 281 -321 q 210 -319 229 -319 q 150 -321 181 -319 q 96 -324 119 -322 q 40 -328 67 -326 l 51 -242 m 289 121 q 332 108 303 115 q 392 101 361 101 q 494 151 458 101 q 531 294 531 201 q 494 456 531 397 q 394 514 457 514 q 349 503 375 514 q 297 474 322 493 q 293 388 294 433 q 291 295 292 342 q 290 203 290 249 q 289 121 289 158 z "},"q":{"ha":718,"x_min":35,"x_max":701,"o":"m 350 -239 q 400 -233 381 -237 q 431 -220 419 -229 q 446 -195 442 -211 q 450 -154 450 -179 l 456 82 q 351 11 392 36 q 300 -14 311 -14 q 190 8 239 -14 q 106 69 140 29 q 53 165 72 108 q 35 293 35 222 q 61 438 35 372 q 134 552 88 504 q 245 627 181 600 q 386 654 310 654 q 457 651 418 654 q 540 640 496 647 q 576 654 560 647 q 606 667 593 661 q 632 678 621 672 l 647 661 q 635 582 640 646 q 626 413 629 518 q 620 167 622 307 q 618 -140 618 26 q 619 -187 618 -169 q 626 -214 621 -204 q 639 -227 631 -224 q 661 -231 647 -231 l 686 -231 q 697 -229 692 -231 l 701 -233 l 692 -319 l 514 -319 q 458 -320 488 -319 q 403 -322 429 -321 q 342 -325 372 -324 l 350 -239 m 456 514 q 428 525 443 519 q 396 533 414 529 q 356 538 378 538 q 253 488 289 538 q 217 344 217 438 q 253 179 217 240 q 351 118 290 118 q 389 125 371 118 q 422 142 407 132 q 456 165 439 151 l 456 514 z "},"r":{"ha":574,"x_min":38,"x_max":556,"o":"m 60 81 q 116 103 101 83 q 131 175 131 122 l 131 450 q 118 515 131 499 q 71 532 106 532 q 62 531 67 532 q 53 531 57 531 l 44 531 l 38 540 l 46 613 q 136 627 90 619 q 218 642 182 635 q 300 658 261 650 l 314 646 l 307 604 q 301 562 304 585 q 299 517 299 539 l 307 511 q 403 613 351 576 q 503 649 454 649 q 521 648 513 649 q 536 646 529 647 q 550 643 543 644 l 556 632 q 543 547 549 590 q 534 465 538 510 q 528 378 531 421 l 438 372 q 429 460 438 439 q 397 482 421 482 q 351 466 375 482 q 306 422 326 450 q 299 299 301 354 q 294 208 296 250 q 293 156 293 165 q 304 106 293 119 q 346 92 315 92 q 368 92 356 92 q 392 94 381 93 q 417 97 404 96 l 421 89 l 406 -6 q 339 -3 372 -4 q 280 -1 311 -1 q 224 0 249 0 q 160 -1 192 0 q 104 -3 129 -1 q 49 -6 75 -4 l 60 81 z "},"ŕ":{"ha":574,"x_min":38,"x_max":556,"o":"m 60 81 q 116 103 101 83 q 131 175 131 122 l 131 450 q 118 515 131 499 q 71 532 106 532 q 62 531 67 532 q 53 531 57 531 l 44 531 l 38 540 l 46 613 q 136 627 90 619 q 218 642 182 635 q 300 658 261 650 l 314 646 l 307 604 q 301 562 304 585 q 299 517 299 539 l 307 511 q 403 613 351 576 q 503 649 454 649 q 521 648 513 649 q 536 646 529 647 q 550 643 543 644 l 556 632 q 543 547 549 590 q 534 465 538 510 q 528 378 531 421 l 438 372 q 429 460 438 439 q 397 482 421 482 q 351 466 375 482 q 306 422 326 450 q 299 299 301 354 q 294 208 296 250 q 293 156 293 165 q 304 106 293 119 q 346 92 315 92 q 368 92 356 92 q 392 94 381 93 q 417 97 404 96 l 421 89 l 406 -6 q 339 -3 372 -4 q 280 -1 311 -1 q 224 0 249 0 q 160 -1 192 0 q 104 -3 129 -1 q 49 -6 75 -4 l 60 81 m 424 906 q 340 851 385 881 q 256 794 303 826 q 161 726 210 763 l 140 732 l 99 786 q 183 869 142 828 q 257 946 224 911 q 331 1024 294 986 l 350 1022 l 425 925 l 424 906 z "},"ř":{"ha":574,"x_min":-15,"x_max":556,"o":"m 60 81 q 116 103 101 83 q 131 175 131 122 l 131 450 q 118 515 131 499 q 71 532 106 532 q 62 531 67 532 q 53 531 57 531 l 44 531 l 38 540 l 46 613 q 136 627 90 619 q 218 642 182 635 q 300 658 261 650 l 314 646 l 307 604 q 301 562 304 585 q 299 517 299 539 l 307 511 q 403 613 351 576 q 503 649 454 649 q 521 648 513 649 q 536 646 529 647 q 550 643 543 644 l 556 632 q 543 547 549 590 q 534 465 538 510 q 528 378 531 421 l 438 372 q 429 460 438 439 q 397 482 421 482 q 351 466 375 482 q 306 422 326 450 q 299 299 301 354 q 294 208 296 250 q 293 156 293 165 q 304 106 293 119 q 346 92 315 92 q 368 92 356 92 q 392 94 381 93 q 417 97 404 96 l 421 89 l 406 -6 q 339 -3 372 -4 q 280 -1 311 -1 q 224 0 249 0 q 160 -1 192 0 q 104 -3 129 -1 q 49 -6 75 -4 l 60 81 m 26 1001 l 47 1006 q 140 938 94 969 q 215 888 186 907 q 289 938 243 907 q 381 1006 335 969 l 403 1001 l 444 943 q 367 868 406 907 q 297 797 329 829 q 228 724 261 760 l 200 724 q 131 797 167 760 q 60 868 99 829 q -15 943 22 907 l 26 1001 z "},"ŗ":{"ha":574,"x_min":38,"x_max":556,"o":"m 60 81 q 116 103 101 83 q 131 175 131 122 l 131 450 q 118 515 131 499 q 71 532 106 532 q 62 531 67 532 q 53 531 57 531 l 44 531 l 38 540 l 46 613 q 136 627 90 619 q 218 642 182 635 q 300 658 261 650 l 314 646 l 307 604 q 301 562 304 585 q 299 517 299 539 l 307 511 q 403 613 351 576 q 503 649 454 649 q 521 648 513 649 q 536 646 529 647 q 550 643 543 644 l 556 632 q 543 547 549 590 q 534 465 538 510 q 528 378 531 421 l 438 372 q 429 460 438 439 q 397 482 421 482 q 351 466 375 482 q 306 422 326 450 q 299 299 301 354 q 294 208 296 250 q 293 156 293 165 q 304 106 293 119 q 346 92 315 92 q 368 92 356 92 q 392 94 381 93 q 417 97 404 96 l 421 89 l 406 -6 q 339 -3 372 -4 q 280 -1 311 -1 q 224 0 249 0 q 160 -1 192 0 q 104 -3 129 -1 q 49 -6 75 -4 l 60 81 m 122 -119 q 176 -85 147 -100 q 232 -71 206 -71 q 301 -103 274 -71 q 328 -190 328 -135 q 311 -263 328 -228 q 266 -331 294 -299 q 201 -391 238 -362 q 124 -442 164 -419 l 72 -400 l 72 -376 q 140 -310 113 -349 q 167 -235 167 -271 q 153 -181 167 -207 q 118 -139 139 -156 l 122 -119 z "},"s":{"ha":568,"x_min":40,"x_max":521,"o":"m 235 -17 q 158 -11 192 -17 q 100 1 124 -6 q 49 21 72 10 l 40 36 q 44 73 42 50 q 50 122 47 96 q 55 173 53 147 q 58 218 57 199 l 138 226 q 260 86 138 86 q 325 103 299 86 q 351 147 351 121 q 346 172 351 161 q 324 196 340 183 q 282 224 308 208 q 214 258 256 239 q 92 341 131 297 q 54 444 54 385 q 76 531 54 492 q 135 599 97 571 q 226 642 174 626 q 343 658 279 658 q 405 654 376 658 q 454 646 433 650 q 499 633 479 640 l 507 618 q 497 563 503 592 q 488 505 493 538 q 481 438 483 472 l 400 433 q 401 443 400 438 q 402 451 401 447 q 403 457 403 454 q 306 551 401 551 q 246 535 269 551 q 222 492 222 518 q 244 443 222 465 q 315 397 265 421 q 416 344 376 368 q 479 297 456 321 q 512 248 503 274 q 521 192 521 222 q 499 110 521 147 q 438 44 476 72 q 347 -1 400 15 q 235 -17 294 -17 z "},"ś":{"ha":568,"x_min":40,"x_max":521,"o":"m 235 -17 q 158 -11 192 -17 q 100 1 124 -6 q 49 21 72 10 l 40 36 q 44 73 42 50 q 50 122 47 96 q 55 173 53 147 q 58 218 57 199 l 138 226 q 260 86 138 86 q 325 103 299 86 q 351 147 351 121 q 346 172 351 161 q 324 196 340 183 q 282 224 308 208 q 214 258 256 239 q 92 341 131 297 q 54 444 54 385 q 76 531 54 492 q 135 599 97 571 q 226 642 174 626 q 343 658 279 658 q 405 654 376 658 q 454 646 433 650 q 499 633 479 640 l 507 618 q 497 563 503 592 q 488 505 493 538 q 481 438 483 472 l 400 433 q 401 443 400 438 q 402 451 401 447 q 403 457 403 454 q 306 551 401 551 q 246 535 269 551 q 222 492 222 518 q 244 443 222 465 q 315 397 265 421 q 416 344 376 368 q 479 297 456 321 q 512 248 503 274 q 521 192 521 222 q 499 110 521 147 q 438 44 476 72 q 347 -1 400 15 q 235 -17 294 -17 m 510 906 q 426 851 471 881 q 342 794 389 826 q 247 726 296 763 l 226 732 l 185 786 q 269 869 228 828 q 343 946 310 911 q 417 1024 381 986 l 436 1022 l 511 925 l 510 906 z "},"š":{"ha":568,"x_min":40,"x_max":531,"o":"m 235 -17 q 158 -11 192 -17 q 100 1 124 -6 q 49 21 72 10 l 40 36 q 44 73 42 50 q 50 122 47 96 q 55 173 53 147 q 58 218 57 199 l 138 226 q 260 86 138 86 q 325 103 299 86 q 351 147 351 121 q 346 172 351 161 q 324 196 340 183 q 282 224 308 208 q 214 258 256 239 q 92 341 131 297 q 54 444 54 385 q 76 531 54 492 q 135 599 97 571 q 226 642 174 626 q 343 658 279 658 q 405 654 376 658 q 454 646 433 650 q 499 633 479 640 l 507 618 q 497 563 503 592 q 488 505 493 538 q 481 438 483 472 l 400 433 q 401 443 400 438 q 402 451 401 447 q 403 457 403 454 q 306 551 401 551 q 246 535 269 551 q 222 492 222 518 q 244 443 222 465 q 315 397 265 421 q 416 344 376 368 q 479 297 456 321 q 512 248 503 274 q 521 192 521 222 q 499 110 521 147 q 438 44 476 72 q 347 -1 400 15 q 235 -17 294 -17 m 113 1001 l 133 1006 q 226 938 181 969 q 301 888 272 907 q 375 938 329 907 q 467 1006 421 969 l 489 1001 l 531 943 q 453 868 492 907 q 383 797 415 829 q 314 724 347 760 l 286 724 q 217 797 253 760 q 147 868 185 829 q 71 943 108 907 l 113 1001 z "},"ş":{"ha":568,"x_min":40,"x_max":521,"o":"m 219 -17 q 148 -10 179 -15 q 94 3 117 -4 q 49 21 69 10 l 40 36 q 44 73 42 50 q 50 122 47 96 q 55 173 53 147 q 58 218 57 199 l 138 226 q 260 86 138 86 q 325 103 299 86 q 351 147 351 121 q 346 172 351 161 q 324 196 340 183 q 282 224 308 208 q 214 258 256 239 q 92 341 131 297 q 54 444 54 385 q 76 531 54 492 q 135 599 97 571 q 226 642 174 626 q 343 658 279 658 q 405 654 376 658 q 454 646 433 650 q 499 633 479 640 l 507 618 q 497 563 503 592 q 488 505 493 538 q 481 438 483 472 l 400 433 q 401 443 400 438 q 402 451 401 447 q 403 457 403 454 q 306 551 401 551 q 246 535 269 551 q 222 492 222 518 q 244 443 222 465 q 315 397 265 421 q 416 344 376 368 q 479 297 456 321 q 512 248 503 274 q 521 192 521 222 q 503 119 521 153 q 456 58 486 85 q 385 13 426 32 q 293 -12 343 -6 l 279 -61 q 322 -87 299 -72 q 366 -119 346 -101 q 399 -156 386 -136 q 413 -196 413 -175 q 397 -248 413 -224 q 356 -290 382 -272 q 296 -319 329 -308 q 228 -329 263 -329 q 191 -325 210 -329 q 156 -313 172 -321 q 130 -294 140 -306 q 119 -269 119 -283 q 124 -250 119 -261 q 137 -227 129 -239 q 153 -203 144 -215 q 171 -182 163 -192 l 183 -182 q 204 -240 185 -221 q 256 -260 224 -260 q 295 -249 279 -260 q 311 -218 311 -237 q 300 -193 311 -206 q 272 -168 289 -181 q 234 -143 256 -156 q 192 -119 213 -131 l 219 -17 z "},"ș":{"ha":568,"x_min":40,"x_max":521,"o":"m 235 -17 q 158 -11 192 -17 q 100 1 124 -6 q 49 21 72 10 l 40 36 q 44 73 42 50 q 50 122 47 96 q 55 173 53 147 q 58 218 57 199 l 138 226 q 260 86 138 86 q 325 103 299 86 q 351 147 351 121 q 346 172 351 161 q 324 196 340 183 q 282 224 308 208 q 214 258 256 239 q 92 341 131 297 q 54 444 54 385 q 76 531 54 492 q 135 599 97 571 q 226 642 174 626 q 343 658 279 658 q 405 654 376 658 q 454 646 433 650 q 499 633 479 640 l 507 618 q 497 563 503 592 q 488 505 493 538 q 481 438 483 472 l 400 433 q 401 443 400 438 q 402 451 401 447 q 403 457 403 454 q 306 551 401 551 q 246 535 269 551 q 222 492 222 518 q 244 443 222 465 q 315 397 265 421 q 416 344 376 368 q 479 297 456 321 q 512 248 503 274 q 521 192 521 222 q 499 110 521 147 q 438 44 476 72 q 347 -1 400 15 q 235 -17 294 -17 m 182 -119 q 236 -85 207 -100 q 292 -71 265 -71 q 360 -103 333 -71 q 388 -190 388 -135 q 371 -263 388 -228 q 326 -331 354 -299 q 260 -391 297 -362 q 183 -442 224 -419 l 132 -400 l 132 -376 q 199 -310 172 -349 q 226 -235 226 -271 q 213 -181 226 -207 q 178 -139 199 -156 l 182 -119 z "},"t":{"ha":461,"x_min":6,"x_max":446,"o":"m 94 463 q 79 522 94 507 q 19 538 64 536 l 6 547 l 15 617 q 103 663 60 638 q 179 713 146 689 q 251 767 218 739 l 290 746 q 285 714 288 732 q 280 676 282 699 q 275 625 278 653 l 438 629 l 443 622 l 429 528 l 267 532 q 261 397 264 471 q 258 232 258 324 q 279 147 258 174 q 347 121 300 121 q 403 131 376 121 q 429 140 417 135 l 446 94 q 382 39 413 64 q 328 1 356 18 q 286 -17 301 -17 q 140 24 186 -17 q 94 154 94 65 l 94 463 z "}}}
